<?xml version="1.0" encoding="UTF-8"?><svg id="_레이어_2" xmlns="http://www.w3.org/2000/svg" viewBox="0 0 347.67 859.28"><defs><style>.cls-1{fill:#7d9c3c;}.cls-1,.cls-2,.cls-3,.cls-4,.cls-5,.cls-6,.cls-7,.cls-8,.cls-9,.cls-10,.cls-11,.cls-12{stroke-width:0px;}.cls-2{fill:#8caf44;}.cls-3{fill:#8fb245;}.cls-4{fill:#fcfdfd;}.cls-5{fill:#90b446;}.cls-6{fill:#8fb145;}.cls-7{fill:#f7f7f8;}.cls-8{fill:#fff;}.cls-9{fill:#cccfc6;}.cls-10{fill:#88a941;}.cls-11{fill:#8eb044;}.cls-12{fill:#391c0b;}</style></defs><g id="_레이어_1-2"><path class="cls-12" d="m346.78,295.72c-.14.24-.29.49-.43.73-.12.16-.24.32-.36.48-.25.36-.5.72-.75,1.08-.16.19-.32.37-.48.56,0,0-.04.05-.04.05-.15.17-.31.34-.46.52,0,0-.07.09-.07.09-.14.15-.28.3-.42.45h-.14s.01.15.01.15c-.12.13-.25.26-.37.4l-.17.03v.17c-.12.11-.23.23-.34.34l-.19.05-.04.19c-.22-.01-.32.09-.3.3l-.2.05-.05.2-.24.06-.06.24-.19.05-.05.19-.24.06-.06.24-.19.05-.05.19c-.22-.02-.32.09-.31.31l-.19.03-.04.18c-.11.11-.23.22-.34.33l-.17.02-.03.17-.38.36h-.15s-.01.15-.01.15c-.14.13-.28.26-.42.39l-.13.11c-.15.14-.31.29-.46.43l-.08.07c-.53.15-.91.47-1.13.98-.37.27-.74.54-1.12.81-.13.11-.25.21-.38.32l-.11.07c-.33-.03-.51.12-.56.44-.22.14-.43.29-.65.43l-.19-.05-.06.2-.17.09c-.33-.05-.51.1-.57.42-.18.09-.36.18-.55.27-.14.1-.29.21-.43.31-.23.15-.47.29-.7.44-.18.08-.35.16-.53.23-.32-.08-.5.06-.57.36-.17.07-.35.14-.52.2-.31-.08-.49.05-.57.34-.17.06-.35.12-.52.19-.31-.08-.53.02-.62.34-.35.13-.71.26-1.06.39-.26-.17-.35-.01-.42.21-.2.06-.4.11-.6.17-1.48.47-2.95.95-4.43,1.42-.53.08-1.07.16-1.6.24-.76-.14-1.48.01-2.15.37-1.64.06-3.29.12-4.93.17-.33-.15-.49-.01-.56.31,0,0,.02,0,.02,0-.55.11-.88.49-1.14.95l-.21-.02-.05.21-.15-.02-.04.15c-.18.13-.36.26-.54.39-.19.08-.38.16-.57.24-.18.1-.35.2-.53.31-.19.05-.38.1-.56.15-.61-.1-1.15.04-1.64.42-.55,0-1.1.01-1.66.02-.55-.11-1.09-.23-1.64-.34-.37-.08-.73-.17-1.1-.25-.18-.1-.36-.19-.54-.29-.24-.07-.47-.15-.71-.22l-.08-.19-.17.07c-.28-.14-.55-.29-.83-.43l-.09-.21-.21.04c-.23-.13-.45-.26-.68-.38-.17-.12-.33-.24-.5-.36-.38-.24-.77-.49-1.15-.73-.17-.13-.34-.27-.52-.4l-.05-.15-.16.02-.04-.18-.14.08c-.32-.51-.74-.45-1.19-.21-.16.1-.33.2-.49.3-.21.08-.42.16-.63.23-.16.1-.31.2-.47.31-.2.07-.39.14-.59.2-2.14.63-1.24,1.32-.04,2.01.39.7.96,1.23,1.68,1.58.18.17.36.34.53.52,0,0,.02.02.02.02.17.17.35.34.52.52,0,0,.03.03.03.03.17.17.35.34.52.51,0,0,.03.03.03.03.17.17.34.34.52.52,0,0,.03.03.03.03.17.17.34.35.52.52,0,0,.03.03.03.03.17.17.34.35.51.52.73,1.09,1.6,2.03,2.67,2.79.34.38.67.76,1.01,1.14l-.03.18.19.03.02.18.17.05c.12.13.24.25.36.38v.15s.13.01.13.01c.14.15.27.3.41.45l.08.09c.15.17.31.34.46.52,0,0,.04.05.04.05.16.18.32.36.48.54,0,0,.03.01.03.01.16.57.53.96,1.03,1.25l-.11.04.15.03.02.21.19.09c.12.13.24.27.35.4l.1.13c.14.53.44.92.96,1.13.29.38.58.76.87,1.14l.02.24.24.07.11.15c.13.53.43.93.94,1.15.18.23.35.46.53.69l-.11.04.16.04v.19s.17.08.17.08c.13.15.25.3.38.45l.07.1c-.03.33.13.51.45.55.26.38.53.76.79,1.13.11.13.22.26.33.4l.07.1c-.03.33.12.51.44.56.17.24.34.48.52.71l-.11.06.17.04v.17s.15.07.15.07c.12.53.39.94.9,1.16.11.17.21.34.32.51l.29.38s.09.14.09.14c-.05.32.11.49.42.54,0,0,.04.03.04.03.24.37.48.73.72,1.1.12.5.36.91.85,1.12.13.2.26.39.39.59l-.02.22.22.07.09.16c-.05.32.11.5.42.55.16.23.32.47.48.7l-.09.11.18.04-.02.16.15.06c-.05.31.1.47.39.52.25.39.5.78.74,1.16l.35.45c.25.39.5.79.75,1.18.11.15.23.3.34.45.25.4.49.79.74,1.19.12.15.23.31.35.46l.52.78-.11.04.16.05-.03.17.15.07c-.06.32.09.49.39.55.14.22.27.44.41.65l-.03.21.21.08.07.14c.14.21.28.41.42.62.08.17.15.33.23.5.12.16.23.33.35.49.13.23.27.47.4.7l-.05.2.2.08c.15.25.31.5.46.75.07.18.14.36.22.54-.08.32.06.5.36.57.07.17.14.35.21.52-.08.31.05.48.34.55.07.18.14.36.2.54-.09.31.04.49.34.57.06.17.12.33.18.5.12.21.23.43.35.64.13.33.25.66.38,1,.08.15.15.3.23.46.07.22.13.44.2.66-.1.3.01.48.3.57.1.36.2.72.3,1.08.09.18.17.36.26.53.08.35.15.7.23,1.06.78,3.88.89,7.72-.61,11.48-.18.11-.24.26-.18.46-.14.22-.27.44-.41.66l-.07.13-.23.09v.23c-.11.2-.24.4-.36.6-.5.23-.81.62-.94,1.14l-.1.12c-.13.14-.26.27-.4.41h-.15s0,.16,0,.16c-.13.13-.26.26-.38.39h-.15s0,.16,0,.16c-.13.13-.27.26-.4.39l-.14.12c-.51.15-.9.44-1.11.95-.38.26-.76.51-1.14.77-.15.11-.29.22-.44.34l-.8.5-.07-.11-.06.17-.15-.04-.06.14c-.21.13-.42.26-.63.39-.17.07-.35.14-.52.21-.31-.09-.48.05-.56.34-.18.06-.35.13-.53.19-.31-.08-.52.02-.62.33-.33.11-.66.21-.99.32-.17.09-.35.18-.52.27-.2.05-.39.1-.59.15-.43-.09-.79.01-1.05.39-.37.08-.74.16-1.11.23-.36.12-.73.24-1.09.36-.36.05-.73.11-1.09.16-.61-.14-1.14.04-1.63.38-.36.04-.73.07-1.09.11-2.01.02-4.01.04-6.02.06-.54-.07-1.08-.14-1.62-.21l-4.92-1.48c-.17-.06-.35-.11-.52-.17-.18-.11-.36-.21-.54-.32-.19-.07-.38-.14-.57-.22-.18-.12-.37-.23-.55-.35l-.49-.21c-.2-.13-.41-.27-.61-.4l-.16-.08-.08-.21-.21.03c-.21-.13-.41-.27-.62-.4-.06-.31-.24-.47-.57-.43l-.11-.07c-.15-.12-.29-.24-.44-.37l-.05-.16h-.17s-.07-.21-.07-.21h-.23c-.36-.32-.72-.63-1.08-.93-.18-.17-.36-.35-.55-.52,0,0-.02-.02-.02-.02-.18-.18-.35-.35-.53-.53,0,0-.02-.02-.02-.02-.18-.18-.35-.35-.53-.53,0,0-.02-.02-.02-.02-.17-.18-.35-.37-.52-.55,0,0-.02,0-.02,0-.34-.4-.68-.8-1.01-1.2l.09-.11-.18-.03v-.19s-.18-.07-.18-.07l-.37-.43-.08-.1c-.13-.54-.44-.95-.95-1.21-.09-.15-.17-.3-.26-.46-.12-.5-.35-.92-.85-1.14-.09-.18-.18-.35-.27-.53-.11-.14-.21-.28-.32-.42-.23-.39-.46-.79-.69-1.18.07-.32-.08-.48-.37-.55-.08-.18-.16-.36-.24-.54-.11-.16-.22-.31-.33-.47-.11-.21-.21-.41-.32-.62-.24-.85-.57-1.66-1.26-2.27-.06-.16-.13-.32-.19-.47.08-.32-.04-.52-.36-.61.06-.2,0-.35-.18-.46-.12-.21-.24-.43-.36-.64.06-.2,0-.36-.18-.47.08-.42-.12-.7-.46-.91-.12-.26-.23-.53-.35-.79l.04-.23-.22-.12c-.07-.22-.15-.44-.22-.65-.29-.99-.59-1.97-1.77-3.34v7.13c-.04.55-.08,1.11-.11,1.66-.43,1.43-.48,2.89-.4,4.36-.05.54-.11,1.09-.16,1.63-.44,1.06-.47,2.16-.37,3.28-.06.54-.12,1.09-.17,1.63-.45,1.05-.49,2.14-.39,3.25-.04.37-.08.75-.12,1.12-.45,1.05-.51,2.15-.42,3.26l-.19,1.62c-.44.86-.47,1.78-.37,2.72-.05.37-.09.74-.14,1.11-.45.86-.5,1.77-.41,2.71-.05.37-.1.74-.15,1.1-.43.68-.48,1.42-.37,2.19-.05.36-.1.73-.15,1.09-.5,2.36-.99,4.71-1.49,7.07-.07.35-.14.71-.21,1.06-.61.83-.66,1.83-.83,2.79-.08.36-.16.72-.24,1.09-.4.26-.48.63-.39,1.07-.05.2-.1.4-.15.6-.23.08-.38.19-.21.45-.12.37-.24.74-.36,1.11-.28.09-.41.26-.31.56-.07.21-.14.42-.2.63-.1.16-.2.33-.3.5-.08.21-.16.42-.24.63-.09.14-.18.27-.27.41-.1.21-.19.41-.29.62-.12.17-.24.35-.36.52-.24.38-.48.76-.72,1.14-.3.04-.46.2-.42.52,0,0-.09.12-.09.12-.13.15-.26.29-.4.44l-.16.03v.16c-.12.11-.23.22-.34.34l-.18.03-.03.18c-.11.11-.23.22-.34.33h-.17s-.04.16-.04.16c-.15.13-.31.26-.46.39,0,0-.09.07-.09.07-.19.15-.38.29-.58.44-.19.09-.38.18-.57.27-.14.1-.29.2-.43.3l-.66.24-.52.28-1.07.23c-.6-.12-1.14.01-1.64.34-.37,0-.74,0-1.1,0-1.27-.33-2.55-.65-3.82-.98l-.2-.17s-.26,0-.26,0c-.22-.13-.44-.27-.66-.4,0,0-.14-.07-.14-.07l-.08-.22s-.22.02-.22.02c-.2-.13-.4-.26-.61-.39-.22-.5-.62-.81-1.14-.96,0,0-.1-.09-.1-.09-.14-.14-.29-.28-.43-.43l-.12-.12-.43-.44-.09-.1c-.15-.52-.46-.9-.97-1.11-1.86-2.98-3.59-6.02-4.8-9.34-1.61-4.42-2.38-9.03-3.29-13.61-.08-.9-.16-1.8-.23-2.7.07-2.21.12-4.41-.26-6.6.29-.7.28-1.39,0-2.09.37-1.46.3-2.93.18-4.4.23-1.26.49-2.52.28-3.81.43-1.06.42-2.16.34-3.27.25-.52.4-1.06.21-1.63.42-.68.39-1.43.31-2.18.08-.54.16-1.09.24-1.63.44-.67.43-1.42.36-2.18.06-.36.13-.73.19-1.09.46-.67.44-1.42.38-2.18.07-.35.14-.7.21-1.05.34-.32.34-.71.23-1.13.09-.54.18-1.07.28-1.61.44-.49.41-1.07.33-1.66.07-.36.13-.72.2-1.09.76-3.35,1.52-6.71,2.44-10.74-3.82,3.19-6.96,5.92-10.23,8.49-5.48,4.33-10.97,8.69-17.57,11.26-6.81,2.65-11.47.48-13.87-6.32.03-1.61.06-3.22.08-4.82.32-1.28.64-2.56.96-3.84,0,0,0,.02,0,.02.3-.08.37-.28.27-.56.11-.36.22-.73.33-1.09.73-1.19,1.29-2.45,1.56-3.84,0,0,0,0,0,0,.1-.18.2-.35.3-.53.15-.35.3-.69.44-1.04.66-1.03,1.25-2.09,1.47-3.31,0,0-.01.02-.01.02.32-.07.41-.28.34-.59.06-.17.13-.34.19-.51.31-.08.42-.28.34-.58.07-.17.13-.34.2-.51,5.13-9.12,10.75-17.87,18.76-24.81,0,0,.09-.07.09-.07,5.58-4.57,11.81-8.14,18.79-11.56-3.72-.91-6.71-1.93-9.87-2.27-.16-.04-.32-.07-.48-.11-.3-.38-.69-.42-1.12-.32-.45-.09-.91-.19-1.36-.28-.27-.09-.55-.17-.82-.26-.45-.1-.9-.19-1.35-.29-.28-.09-.56-.18-.84-.27-.36-.08-.73-.16-1.09-.24-1.2-.63-2.48-.97-3.84-1.03l-.1-.13s-.16.05-.16.05c-.27-.09-.54-.18-.8-.27-.37-.08-.74-.16-1.1-.24-1.2-.64-2.48-.97-3.83-1.05l-.1-.13s-.16.05-.16.05c-.27-.09-.54-.18-.81-.28-.34-.08-.68-.15-1.01-.23-.2-.08-.4-.17-.61-.25-.54-.13-1.08-.26-1.63-.39-.31-.37-.71-.38-1.14-.3-.26-.07-.51-.13-.77-.2-.28-.09-.56-.18-.84-.28-.36-.08-.73-.16-1.09-.24-.92-.31-1.82-.68-2.75-.91-4.08-1.02-4.09-1-5.46,3.14,0,0,0,0,0,0-.11.17-.21.35-.32.52-.07.2-.14.39-.21.59-.11.17-.21.33-.32.5-.07.2-.15.4-.22.59-.11.17-.22.33-.32.5-.07.19-.15.39-.22.58-1.45,2.25-2.8,4.55-3.7,7.09-.48.86-.48,1.76-.23,2.69-.7,2.91-1.7,5.76-1.97,8.77-.08.35-.16.7-.23,1.05-.41.5-.4,1.08-.33,1.68-.07.35-.15.7-.22,1.05-.4.51-.4,1.09-.32,1.68-.07.35-.14.7-.22,1.05-.49,1.43-.86,2.88-.83,4.4-.09.53-.19,1.06-.28,1.59-.32.33-.33.72-.22,1.14-.09.54-.18,1.07-.26,1.61-.34.32-.35.71-.24,1.12-.12.71-.25,1.42-.37,2.13-.86,3.25-1.57,6.52-1.95,9.86-.08.35-.16.69-.24,1.04-.4.51-.4,1.09-.33,1.68-.19.11-.23.26-.1.45-.37.31-.4.72-.3,1.16-.06.37-.13.75-.19,1.12-.52.65-.54,1.41-.49,2.18-.19.12-.23.27-.11.46-.38.3-.41.7-.31,1.14-.07.37-.14.75-.21,1.12-.61,1.39-1,2.84-1.03,4.36l-.17.17s.07.23.07.23c-.08.21-.15.42-.23.64-.11.55-.22,1.1-.33,1.66-.53,1.04-.83,2.13-.86,3.3-.08.35-.16.71-.25,1.06-.78,1.94-1.34,3.93-1.58,6.01,0,0,0-.01,0-.01-.27.09-.36.26-.21.52-.12.52-.24,1.04-.36,1.55-.31.13-.35.36-.25.65-.08.38-.15.75-.23,1.13-.98,2.28-1.55,4.67-2.03,7.09-.07.32-.15.63-.22.95-.31.13-.36.36-.25.65-.08.38-.15.75-.23,1.13-.62,1-.85,2.12-.93,3.27-.07.32-.14.63-.22.95-.3.13-.35.36-.24.64-.07.38-.14.75-.22,1.13-.78,1.74-1.2,3.58-1.49,5.45-.07.34-.14.69-.21,1.03-.39.29-.43.69-.33,1.12-.13.53-.25,1.06-.38,1.6-.42,1.07-.81,2.16-.76,3.34-.25.52-.52,1.04-.24,1.64.15,1.45,1.18,2.53,1.64,3.85.03,1.99.05,3.98.08,5.96-.38,1.06-.44,2.16-.34,3.27-.27.88-.5,1.76-.3,2.69-.37.51-.35,1.07-.24,1.65-.07.55-.13,1.11-.2,1.66-.42.87-.45,1.79-.36,2.73-.06.54-.12,1.09-.19,1.63-.43.87-.45,1.79-.37,2.73-.07.54-.14,1.09-.21,1.63-.41.68-.42,1.43-.33,2.18-.07.54-.13,1.09-.2,1.63-.55,1.4-.49,2.88-.54,4.34-.8,3.32-.68,6.73-1.08,10.45,1.46-1.29,2.07-2.47,1.73-4.04-.36-1.62-.21-3.23.14-4.83.09-.21.17-.41.26-.62.35-.22.6-.51.56-.96l.02-.03c.31-.05.47-.21.42-.54l.08-.12c.38-.18.66-.43.69-.89.33-.38.66-.76.99-1.14,0,0,.02-.02.02-.02,1.29-.66,2.59-1.33,3.88-1.99h2.07c.9.36,1.81.73,2.71,1.11.18.13.35.27.53.4,1.92,2.22,2.14,4.84,1.82,7.6-.06.26-.12.52-.18.79-.09.27-.17.55-.26.82-.12.54-.25,1.08-.37,1.62-.7,1.96-1.3,3.95-1.41,6.05-.19.12-.23.27-.1.46-.38.31-.41.71-.3,1.15-.07.37-.13.75-.2,1.12-.55.65-.53,1.41-.44,2.18-.37,1.82-.17,3.64.07,5.45.94,3.38,1.27,6.83,1.12,10.33-.26,2.37-.48,4.73-.26,7.12-.44,2.16-.41,4.34-.32,6.52-.05,1.64-.11,3.29-.16,4.93-.34,2.17-.56,4.35-.4,6.55-.07,2.18-.14,4.36-.21,6.54-.48,1.97-.4,3.97-.29,5.97-.25,2.92-.54,5.83-.3,8.76-.43,1.97-.37,3.97-.27,5.97-.25,2-.49,4-.25,6.03-.43,1.61-.38,3.24-.27,4.88-.26,1.82-.5,3.64-.27,5.48-.42,1.42-.38,2.88-.27,4.34-.26,1.64-.5,3.27-.27,4.94-.41,1.24-.38,2.51-.26,3.79-.25,1.45-.48,2.91-.26,4.39-.41,1.42-.41,2.87-.3,4.33-.25,1.27-.46,2.55-.23,3.85-.42,1.42-.42,2.87-.31,4.34-.26,1.27-.47,2.54-.25,3.85-.4,1.24-.4,2.51-.28,3.79-.27,1.45-.5,2.91-.28,4.39-.41,1.24-.39,2.51-.26,3.79-.26,1.64-.49,3.28-.26,4.94-.41,1.42-.39,2.87-.27,4.33-.28,2.18-.55,4.37-.3,6.58-.44,1.97-.36,3.97-.27,5.97-.25,2.37-.41,4.74-.21,7.12-.18,1.6.92.87,1.61.89.56,0,1.13,0,1.69,0,0,0,.25.11.25.11l.25-.1c1.84.22,3.67.22,5.51,0,2.92.14,5.84.24,8.74-.22,3.62-.01,7.24-.03,10.86-.04.68.38,1.41.36,2.15.26.54.1,1.09.2,1.63.3,1.85.69,3.81,1.18,5.51,2.13,2.62,1.45,4.76.87,6.98-.78,2.82-2.09,5.64-4.19,8.88-5.64,1.22,0,2.45,0,3.67.01.57.24,1.14.48,1.71.73.34.25.69.49,1.03.74.69,1.28,1.38,2.57,2.07,3.85.05.89.1,1.78.14,2.67-.49,1.6-.51,3.23-.34,4.88l-.24,4.94c-.4,1.24-.4,2.51-.29,3.79-.26,1.09-.46,2.18-.24,3.3-.4,1.05-.4,2.14-.29,3.24-.25.9-.44,1.81-.24,2.76-.39.88-.41,1.79-.3,2.73,0,.37,0,.74-.01,1.11-.13.35.05.41.34.36,2.72,2.03,2.78,2.6.56,5.22-1.76.63-2.25,1.94-2,3.67-.06.55-.12,1.09-.17,1.64-.43,1.06-.47,2.16-.39,3.27-.06.54-.12,1.09-.17,1.63-.4.87-.44,1.79-.33,2.73-.08.73-.15,1.45-.23,2.18-.41.87-.43,1.79-.34,2.73-.06.55-.12,1.09-.18,1.64-.4.87-.45,1.79-.35,2.73-.08.73-.16,1.45-.25,2.18-.42.87-.43,1.79-.35,2.73-.06.54-.13,1.09-.19,1.63-.42.87-.44,1.79-.36,2.73-.07.54-.13,1.09-.2,1.63-.39.69-.41,1.43-.3,2.18-.06.55-.13,1.09-.19,1.64-.42.87-.46,1.79-.37,2.73l-.2,1.63c-.43.87-.46,1.79-.38,2.73-.07.54-.14,1.09-.22,1.63-.41.68-.41,1.43-.32,2.18-.05.36-.09.73-.14,1.09-.45.86-.48,1.79-.4,2.73-.27.69-.47,1.39-.28,2.14-.32.33-.31.72-.19,1.13-.09.73-.19,1.45-.28,2.18-.41.68-.42,1.43-.32,2.18-.07.54-.14,1.09-.21,1.63-.41.68-.42,1.42-.33,2.18-.07.54-.14,1.09-.21,1.63-.41.68-.43,1.42-.33,2.18-.07.54-.14,1.09-.21,1.63-.45.86-.48,1.79-.4,2.73-.05.36-.1.73-.15,1.09-.44.86-.47,1.79-.4,2.73-.05.36-.1.73-.15,1.09-.41.68-.43,1.42-.34,2.18-.26.7-.46,1.42-.29,2.18-.38.5-.37,1.06-.26,1.64-.26.69-.46,1.4-.29,2.15-.38.51-.37,1.08-.26,1.67-.26.69-.47,1.39-.29,2.15-.38.51-.37,1.08-.27,1.67-.07.54-.14,1.09-.21,1.63-.41.68-.42,1.43-.33,2.18-.27.7-.46,1.42-.28,2.18-.37.5-.36,1.06-.25,1.64-.07.55-.13,1.09-.2,1.64-.43.87-.46,1.79-.38,2.73-.07.54-.14,1.09-.2,1.63-.4.68-.42,1.43-.32,2.18-.07.55-.14,1.09-.2,1.64-.44.86-.47,1.79-.39,2.73-.05.36-.09.73-.14,1.09-.44.86-.47,1.79-.39,2.73-.05.36-.09.73-.14,1.09-.43.87-.47,1.79-.39,2.73-.07.54-.13,1.09-.2,1.63-.43.87-.46,1.79-.37,2.73-.06.54-.13,1.09-.19,1.63-.4.69-.4,1.43-.3,2.18-.26.71-.42,1.42-.25,2.18-.4.69-.39,1.43-.29,2.18-.08.73-.16,1.45-.24,2.18-.42.87-.43,1.79-.34,2.73-.06.54-.12,1.09-.18,1.63-.4.87-.44,1.79-.33,2.73-.08.73-.15,1.45-.23,2.18-.41.87-.43,1.79-.32,2.73-.07.73-.15,1.45-.22,2.18-.4.88-.42,1.79-.31,2.73-.07.73-.14,1.45-.22,2.18-.42,1.06-.45,2.16-.36,3.27-.25.71-.41,1.43-.21,2.18-.43,1.05-.43,2.15-.35,3.25-.25.72-.41,1.44-.21,2.2-.39.88-.41,1.79-.32,2.73-.06.55-.13,1.09-.19,1.64-.44.86-.48,1.79-.41,2.73-.09.53-.18,1.06-.28,1.59-.47,1.43-.86,2.88-.82,4.41-.09.53-.19,1.06-.28,1.59-.32.33-.32.73-.22,1.14-.11.53-.22,1.06-.32,1.59-.45,1.06-.73,2.16-.74,3.32-.07.36-.15.72-.22,1.08-1.1,2.72-2.2,5.44-3.3,8.16-.34.38-.69.75-1.03,1.13-1.09.53-2.19,1.06-3.28,1.59-1.07-.02-2.15-.05-3.22-.07-.75-.42-1.5-.39-2.26-.02-1.29-.22-2.54.06-3.8.29-1.28-.05-2.57-.23-3.8.3-.54.08-1.09.16-1.63.23-19.31,5.01-39.03,2.43-58.57,3.18-8.35.32-16.37-1.97-24.3-4.34-3.38-1.01-4.86-3.64-5.39-6.88-1.17-7.17-2.31-14.34-3.38-21.52-3.48-23.36-5.97-46.84-8.58-70.3-2.45-22.03-4.08-44.14-5.69-66.25-1.31-17.94-2.29-35.9-4.72-53.74-.22-1.61-.22-3.26-.22-4.9,0-1.69.38-3.55,1.77-4.4,3.46-2.13,6.65-4.89,11.18-4.72,10.44.4,20.83,1.66,31.3,1.51,4.51-.07,4,.99,4.21-3.97.84-20.16,1.85-40.3,3.88-60.38,1.33-13.2,3.63-26.28,4.65-39.51,1.74-22.56,4.15-45.05,6.72-67.53.7-6.18-.25-12.51.57-18.76.45-3.42.57-6.89,1.14-10.29.58-3.49-.72-6.94-.18-10.3.69-4.31,0-8.17-1.25-12.33-2.79-9.29-4.5-18.88-6.04-28.47-1.38-8.6-2.52-17.24-3.76-25.87-.23-1.61-.74-3.11-1.67-4.87-1.81,2.29-3.47,4.4-5.13,6.51-10.88,13.75-21.53,27.69-33.85,40.23-4.97,5.07-10.07,9.98-16.09,13.82-3.39,2.16-6.95,3.92-11.07,4.21-6.57.45-11.45-3.73-11.91-10.3-.33-4.78,1.14-9.16,3.16-13.36,6.17-12.86,14.45-24.33,23.55-35.24,2.14-2.57,4.37-5.07,6.64-7.71-1.51-.33-2.63.39-3.79.74-14.68,4.48-29.46,8.52-44.74,10.36-8.68,1.05-17.38,1.66-25.97-.79-.96-.27-1.9-.61-2.82-.97-11.15-4.42-14.88-13.33-10.23-24.4,3.23-7.69,8.52-13.69,15.43-18.25,15.19-10.02,31.43-17.71,49.2-21.95.69-.16,1.36-.38,2.32-.66-1.67-1.36-3.15-2.53-4.6-3.74-1.81-1.52-3.53-3.13-4.97-5.03-4.55-5.98-3.5-12.53,2.8-16.66,5.38-3.53,11.55-4.79,17.79-5.48,18.67-2.07,36.5,1.69,53.85,8.25,5.2,1.97,9.99,4.83,13.86,8.93,1.08,1.14,1.61.9,2.49-.17,5.62-6.81,11.65-13.23,18.67-18.64.95-.73,1.12-1.54.9-2.61-.87-4.27-1.87-8.52-3.44-12.58-2.41-6.22-3.54-12.81-4.25-19.28-.35-3.22-1.09-5.86-2.43-8.61-2.38-4.87-4.63-9.81-6.98-14.81-1.32.97-1.81,2.28-2.54,3.4-5.64,8.61-11.63,16.94-19.77,23.43-3.79,3.02-7.88,5.53-12.63,6.76-7.9,2.04-14.05-2.68-14.13-10.81-.03-3.63,1.16-6.95,2.54-10.23,2.69-6.38,6.36-12.21,10.16-17.96.31-.05.47-.23.44-.56,0,0,.06-.09.06-.09.68-.47,1.15-1.08,1.33-1.9-.43-.03-.86-.05-1.29-.08-.91-.02-1.82-.04-2.72-.06-1.81-.13-3.62-.26-5.43-.38-.55-.05-1.11-.1-1.66-.15-1.05-.38-2.13-.49-3.24-.4-.55-.06-1.1-.13-1.65-.19-.68-.38-1.41-.45-2.16-.33-.56-.07-1.11-.14-1.67-.21-.67-.41-1.4-.47-2.16-.36-.37-.05-.74-.1-1.12-.15-.67-.42-1.4-.51-2.16-.41-.36-.06-.72-.12-1.08-.18-.3-.34-.66-.41-1.08-.28l-1.14-.19c-1-.63-2.15-.71-3.27-.93-.34-.08-.69-.16-1.03-.24-.63-.59-1.44-.73-2.24-.91-.17-.06-.33-.12-.5-.18-.42-.57-1.02-.86-1.68-1.04,0,0-.02-.02-.02-.02-.18-.15-.36-.31-.54-.46,0,0-.08-.07-.08-.07-.16-.16-.32-.31-.47-.47,0,0-.07-.08-.07-.08.01-.32-.14-.49-.46-.51-.23-.39-.47-.78-.7-1.17.08-.31-.02-.52-.34-.61-.08-.33-.17-.67-.25-1-.28-1.88.01-3.69.61-5.48.22-.39.45-.77.67-1.16.3-.03.45-.19.41-.5l.14-.02s-.02-.14-.02-.14c.12-.13.25-.26.37-.39l.17-.02s.01-.17.01-.17c.12-.12.24-.24.35-.35,0,0,.17-.01.17-.01,0,0,.02-.16.02-.16.13-.12.27-.25.4-.37,0,0,.15-.12.15-.12.31.03.46-.12.49-.41.42-.31.84-.62,1.26-.93,0,0,.2.03.2.03l.06-.21.13.04s.03-.14.03-.14c.33.05.5-.1.56-.41.21-.13.43-.26.64-.39,0,0,.22.03.22.03l.08-.22s.14-.08.14-.08c.2-.14.41-.27.61-.41.17-.08.35-.16.52-.24.16-.11.32-.22.48-.34.21-.1.42-.2.64-.3.13-.09.26-.17.39-.26.25-.13.5-.25.74-.38,0,0,.21.05.21.05l.09-.21c.26-.13.53-.26.79-.38,0,0,.21.05.21.05l.1-.21c.25-.1.49-.2.74-.3.14-.08.28-.15.42-.23.22-.07.43-.14.65-.21.3.1.46-.03.55-.31.18-.05.36-.11.53-.16.43.09.75-.06.99-.42.21-.05.42-.11.62-.16.9-.24,1.93-.21,2.63-1.24-.74-.43-1.42-.83-2.1-1.22,0,0-.06-.04-.06-.04-.17-.13-.33-.26-.5-.39l-.06-.16s-.17.01-.17.01c0,0-.04-.18-.04-.18l-.14.07c-.42-.33-.83-.67-1.25-1-.03-.31-.2-.47-.52-.46,0,0-.08-.07-.08-.07,0-.3-.16-.46-.47-.44,0,0-.11-.1-.11-.1-.14-.14-.29-.28-.43-.42,0,0-.12-.12-.12-.12-.14-.14-.28-.28-.42-.42,0,0-.13-.13-.13-.13-.14-.14-.28-.28-.42-.43,0,0-.11-.12-.11-.12-.14-.16-.29-.31-.43-.47,0,0-.07-.08-.07-.08.02-.32-.14-.5-.45-.53-.26-.39-.52-.77-.78-1.16-.11-.14-.22-.29-.32-.43-.12-.24-.25-.47-.37-.71,0,0,.04-.23.04-.23l-.22-.11c-.08-.24-.16-.47-.24-.71-.09-.18-.18-.35-.27-.53-.07-.35-.14-.71-.21-1.06-.13-2.04-.08-4.06.59-6.02.17-.12.23-.27.18-.47.13-.21.27-.42.4-.64,0,0,.08-.13.08-.13.09-.12.18-.23.27-.35.84-.82,1.68-1.64,2.52-2.46.14-.11.28-.22.42-.33.4-.22.81-.45,1.21-.67.21-.12.42-.24.63-.35.35-.13.7-.26,1.06-.39.26.17.37.02.44-.21.2-.05.4-.1.6-.15.44.09.83.02,1.12-.37.54-.08,1.07-.16,1.61-.25.59.13,1.13.04,1.61-.33.73-.05,1.47-.11,2.2-.16.72.04,1.51.43,2.05-.41,0,0,.08-.08.08-.08.27,0,.42-.1.32-.4.08-.22.16-.44.24-.66.08-.14.17-.27.25-.41.1-.22.2-.44.3-.66.11-.15.21-.3.32-.46.08-.19.17-.37.25-.56.32-.07.46-.26.4-.59l.14-.04s-.04-.13-.04-.13c0,0,.19-.06.19-.06,0,0-.05-.18-.05-.18.15-.22.29-.45.44-.67.31-.06.46-.23.41-.55l.13-.03s-.03-.13-.03-.13c0,0,.22-.07.22-.07,0,0-.02-.21-.02-.21.3-.41.61-.83.91-1.24.13-.16.27-.33.4-.49l.15-.03s-.02-.15-.02-.15c0,0,.22-.06.22-.06,0,0-.01-.21-.01-.21.31-.39.62-.78.92-1.17.16-.18.32-.37.47-.55,0,0,.05-.06.05-.06.15-.17.3-.33.45-.5,0,0,.09-.11.09-.11.13-.15.26-.29.39-.44l.16-.03s0-.16,0-.16c0,0,.22-.05.22-.05v-.21c.82-.62,1.51-1.35,2-2.26.17-.18.33-.36.5-.54,0,0,.03-.04.03-.04.33-.02.49-.19.48-.52,0,0,.05-.06.05-.06.31-.02.48-.17.46-.5,0,0,.07-.08.07-.08.15-.15.29-.31.44-.46,0,0,.1-.12.1-.12.13-.14.27-.28.4-.43,0,0,.15-.01.15-.01,0,0,0-.15,0-.15.12-.13.24-.25.35-.38,0,0,.18-.05.18-.05,0,0,.02-.18.02-.18,0,0,.2-.03.2-.03l-.03-.18c1.03-.78,1.91-1.7,2.59-2.8.17-.18.34-.36.51-.54,0,0,.02-.02.02-.02.17-.18.34-.35.5-.53,0,0,.03-.04.03-.04.32-.02.49-.19.5-.52,0,0,.04-.04.04-.04.32-.01.49-.18.49-.51,0,0,.05-.06.05-.06.31-.01.48-.17.48-.49,0,0,.07-.07.07-.07.31,0,.47-.16.47-.48,0,0,.08-.08.08-.08.15-.16.3-.31.46-.47,0,0,.09-.09.09-.09.31,0,.46-.15.45-.46,0,0,.09-.1.09-.1.15-.15.3-.3.44-.45,0,0,.1-.1.1-.1.15-.15.29-.29.44-.44,0,0,.11-.11.11-.11.15-.15.29-.29.44-.44,0,0,.11-.11.11-.11.15-.15.29-.29.44-.44,0,0,.11-.11.11-.11.15-.15.29-.29.44-.44,0,0,.11-.11.11-.11.15-.15.29-.29.44-.44,0,0,.11-.11.11-.11.15-.15.3-.29.44-.44,0,0,.1-.1.1-.1.15-.15.3-.3.45-.44,0,0,.1-.09.1-.09.31,0,.46-.14.46-.45,0,0,.08-.08.08-.08.31,0,.47-.15.47-.46,0,0,.08-.07.08-.07.32,0,.48-.16.49-.47,0,0,.06-.06.06-.06.32,0,.49-.16.5-.48,0,0,.05-.05.05-.05.33,0,.49-.17.51-.49,0,0,.04-.04.04-.04.18-.17.35-.33.53-.5,0,0,.03-.02.03-.02.18-.17.36-.34.54-.51.91-.51,1.65-1.2,2.26-2.04,0,0,.19.02.19.02l.03-.2h.18s.05-.19.05-.19c.13-.12.26-.24.4-.37,0,0,.14.02.14.02,0,0,.01-.14.01-.14.15-.14.31-.28.47-.42,0,0,.09-.07.09-.07.32.01.49-.14.51-.46.6-.51,1.2-1.02,1.8-1.53,0,0,.15.06.15.06l.03-.18h.18s.06-.18.06-.18c.14-.12.29-.25.43-.37,0,0,.12-.09.12-.09.32.03.48-.13.51-.44,0,0,.05-.04.05-.04.19-.16.38-.32.57-.48.37-.28.74-.56,1.11-.84.11-.1.23-.2.34-.3,0,0,.14-.1.14-.1.32.03.47-.12.51-.42.43-.34.86-.68,1.29-1.02,0,0,.09.1.09.1l.04-.18h.18s.07-.17.07-.17c.15-.13.31-.26.46-.38,0,0,.09-.07.09-.07.33.03.51-.13.55-.45.38-.27.76-.54,1.14-.8.13-.11.25-.21.38-.32,0,0,.11-.08.11-.08.33.03.5-.12.55-.44.38-.26.76-.52,1.14-.78.14-.11.28-.23.41-.34,0,0,.09-.06.08-.06.19-.15.38-.3.58-.45.21-.14.42-.29.62-.43,0,0,.19.04.19.04l.05-.2.15.03s.04-.14.04-.14c.32.05.48-.1.52-.4.39-.26.78-.51,1.17-.77.14-.11.28-.22.42-.33.41-.27.82-.54,1.23-.8.13-.1.25-.2.38-.3,0,0,.11-.07.11-.07.2-.14.39-.29.59-.43.19-.11.38-.22.57-.33.12-.09.24-.17.35-.26,0,0,.12-.07.12-.07.2-.14.39-.28.59-.43.19-.1.38-.21.57-.31.12-.09.25-.18.37-.28,0,0,.1-.06.1-.06.79-.2,1.39-.66,1.94-1.27-.58-.4-1.15-.78-1.89-.67-.19-.05-.38-.09-.57-.14-.08-.24-.21-.39-.48-.23-.38-.11-.76-.22-1.14-.32-.17-.09-.34-.18-.52-.27-.35-.1-.7-.2-1.06-.3-.1-.3-.29-.4-.59-.3-.22-.06-.45-.13-.67-.19,0,0-.13-.21-.13-.21l-.22.06c-.38-.14-.77-.29-1.15-.43-.09-.28-.26-.41-.56-.31-.21-.07-.43-.13-.64-.2-.58-.6-1.32-.83-2.11-.97-.16-.06-.32-.11-.48-.17-.09-.3-.27-.42-.58-.34-.18-.06-.36-.13-.55-.19-.08-.28-.24-.42-.54-.33-.19-.07-.37-.14-.56-.21-.18-.11-.35-.22-.53-.33-.19-.07-.37-.14-.56-.21-.07-.28-.23-.43-.54-.34-.18-.07-.35-.14-.53-.21-.08-.3-.25-.44-.57-.36-.16-.07-.32-.14-.48-.2-.22-.13-.43-.26-.65-.4,0,0-.16-.07-.16-.07s-.07-.19-.07-.19l-.17.06c-.26-.15-.51-.29-.77-.44-.14-.1-.27-.19-.41-.29-.2-.09-.4-.18-.6-.28-.06-.28-.2-.43-.51-.35-.16-.08-.33-.15-.49-.23-.21-.14-.43-.28-.64-.42,0,0-.11-.06-.11-.06-.12-.08-.24-.16-.35-.24-.21-.11-.41-.23-.62-.34-.17-.12-.34-.24-.51-.37-.4-.24-.79-.47-1.19-.71-.15-.11-.3-.22-.44-.34-.4-.25-.81-.5-1.21-.75-.14-.11-.28-.22-.42-.33-.4-.26-.8-.51-1.2-.77-.15-.12-.29-.23-.44-.35-.38-.25-.77-.5-1.15-.75-.05-.3-.21-.46-.53-.41l-.03-.14s-.14.03-.14.03c0,0-.07-.22-.07-.22h-.22c-.19-.12-.39-.25-.58-.38-.2-.16-.4-.31-.59-.47,0,0-.06-.04-.06-.04-.17-.14-.34-.27-.51-.41l-.04-.15s-.15.02-.15.02c0,0-.05-.21-.05-.21l-.2.02c-.4-.31-.8-.62-1.2-.93-.04-.31-.21-.47-.53-.45,0,0-.1-.07-.1-.07-.15-.13-.3-.26-.45-.38l-.05-.16s-.17,0-.17,0-.03-.19-.03-.19l-.16.05c-.4-.33-.8-.66-1.2-.98-.18-.16-.37-.31-.55-.47,0,0-.06-.05-.06-.05-.17-.14-.33-.29-.5-.43,0,0-.13-.1-.13-.1-.14-.12-.28-.25-.41-.37l-.05-.17s-.18-.01-.18-.01c0,0-.03-.19-.03-.19l-.17.04c-.63-.84-1.38-1.54-2.3-2.05-.03-.32-.2-.49-.52-.5,0,0-.04-.04-.04-.04-.02-.32-.18-.49-.51-.49,0,0-.05-.05-.05-.05-.17-.16-.33-.33-.5-.49,0,0-.06-.06-.06-.06,0-.32-.17-.48-.49-.49,0,0-.06-.06-.06-.06-.16-.16-.33-.33-.49-.5,0,0-.05-.05-.05-.05,0-.32-.17-.49-.49-.51,0,0-.04-.04-.04-.04-.16-.18-.33-.36-.49-.54-.33-.4-.66-.8-.99-1.2,0,0,.05-.16.05-.16l-.19-.03v-.17s-.15-.06-.15-.06c-.13-.16-.26-.33-.39-.49,0,0-.05-.07-.04-.07-.15-.21-.3-.41-.45-.62-.09-.17-.17-.34-.25-.51-.11-.15-.22-.3-.33-.46-.11-.22-.22-.44-.32-.66-.08-.13-.15-.26-.23-.39-.07-.22-.15-.45-.22-.67-.09-.19-.19-.37-.28-.56-.07-.35-.15-.69-.22-1.04-.24-2.06-.04-4.08.64-6.05,0,0,.06-.15.06-.15s.19-.07.19-.07l-.07-.17c.15-.24.3-.47.45-.71.32-.03.47-.21.44-.53,0,0,.08-.1.08-.1.14-.15.29-.3.43-.45,0,0,.11-.11.11-.11.15-.14.3-.29.45-.43,0,0,.1-.08.1-.08.32.03.5-.13.54-.44,0,0,.03-.02.02-.02.68-.17,1.28-.46,1.72-1.03.2.06.35,0,.46-.18.91-.33,1.81-.66,2.72-1,.36-.06.73-.13,1.09-.19.43.12.79,0,1.1-.32.55-.06,1.1-.13,1.66-.19.93.13,1.83,0,2.7-.38,2.73,0,5.46,0,8.2,0,1.23.49,2.5.46,3.78.36.56.06,1.12.12,1.67.18.85.49,1.77.49,2.7.4.37.05.75.1,1.12.16,1.38.62,2.87.7,4.33.9.39.07.77.14,1.16.2.26.34.6.45,1.01.33.39.07.78.15,1.17.22.26.35.6.46,1.02.34.36.08.73.15,1.09.23.28.39.66.47,1.1.37.21.05.42.09.63.14,1.34.75,2.82,1.12,4.3,1.46.22.05.43.11.65.16.23.34.54.5.96.4.21.06.42.11.63.17.07.21.16.37.41.19.38.13.76.26,1.13.39.18.1.36.2.55.29.23.07.46.13.7.2.23.34.53.52.95.43.18.06.36.11.54.17.08.28.24.41.54.31.22.07.43.14.65.21.13.07.27.14.4.21.26.1.52.21.77.31.21.33.49.53.91.45.16.06.32.12.49.18.09.31.29.42.61.34.17.06.34.13.51.19.08.3.27.43.58.34.17.07.35.13.52.2.08.3.26.43.57.35.17.07.34.13.51.2.08.31.27.44.59.36.16.07.32.13.47.2.22.13.44.26.66.39,0,0,.17.07.17.07,0,0,.06.18.06.18l.14-.08c.27.15.54.31.82.46.12.08.24.15.36.23.22.11.43.22.65.33.16.11.32.22.48.33.18.08.36.16.53.24.2.13.4.27.61.4l.04.13s.13-.05.13-.05.06.19.06.19l.17-.06c.24.15.49.3.73.44.15.11.3.22.46.33.42.25.83.5,1.25.74.12.09.24.18.37.27.19.1.38.21.56.31.2.14.39.29.59.43,0,0,.11.07.11.07.13.1.25.2.38.3.4.27.8.54,1.2.81.04.3.19.45.5.4l.04.15s.15-.02.15-.02c0,0,.05.2.05.2l.2-.03c.4.31.81.63,1.21.94.04.31.21.47.53.45,0,0,.09.07.09.07.15.13.31.26.46.4l.03.15s.16,0,.16,0c0,0,.05.21.05.21,0,0,.21,0,.21,0,.17.14.34.28.51.41.26.45.5,1,1.14.83.35-.09.46-.5.36-.89.07-.37.15-.74.22-1.11.36-.26.46-.61.35-1.03.08-.36.15-.71.23-1.07.27-.1.38-.28.24-.56.09-.39.18-.79.27-1.18.78-1.34,1.09-2.83,1.43-4.32.08-.33.17-.67.25-1,.29-.11.39-.3.28-.6.09-.34.18-.69.27-1.03.59-.64.73-1.45.86-2.27.05-.21.11-.42.16-.62.37-.23.51-.56.42-.99.05-.19.11-.37.16-.56.61-.6.77-1.39.9-2.19.06-.19.11-.39.17-.58.23-.07.39-.18.24-.45.12-.35.24-.7.36-1.05.31-.1.41-.31.32-.62.06-.2.12-.4.18-.6.09-.16.18-.32.27-.48.08-.24.16-.48.24-.72.34-.22.52-.51.43-.93.06-.17.12-.34.18-.51.29-.09.42-.27.32-.57.07-.2.13-.39.2-.59.1-.17.2-.33.3-.5.08-.21.15-.43.23-.64.09-.15.18-.29.27-.44.09-.23.18-.46.27-.69.07-.13.14-.25.22-.38.11-.24.22-.48.33-.73.07-.12.14-.24.21-.36.11-.24.23-.48.34-.72.08-.12.15-.25.23-.37.11-.23.22-.46.32-.69.09-.14.18-.28.27-.42.09-.21.19-.42.28-.64.11-.16.21-.31.32-.47.08-.19.16-.38.24-.57.29-.06.44-.22.35-.53.23-.43.47-.85.7-1.28,0,0,.22-.08.22-.08,0,0-.03-.22-.03-.22.13-.22.25-.44.38-.66.12-.16.23-.32.35-.49.08-.16.16-.33.24-.49.14-.21.28-.43.42-.64,0,0,.05-.1.05-.1.1-.13.2-.26.3-.39.1-.19.19-.38.29-.56.14-.2.28-.39.42-.59,0,0,.08-.14.08-.14,0,0,.23-.09.23-.09,0,0-.01-.23-.01-.23.12-.2.25-.4.37-.6.14-.19.28-.38.43-.58,0,0,.08-.12.08-.12.09-.12.18-.24.27-.35.11-.18.22-.36.33-.54.15-.2.31-.4.46-.61,0,0,.04-.06.04-.06.29-.04.45-.19.4-.5l.15-.05s-.02-.16-.02-.16.19-.04.19-.04c0,0-.04-.18-.04-.18.32-.41.64-.82.96-1.23.31-.03.47-.2.45-.52,0,0,.07-.09.07-.09.14-.15.28-.31.41-.46,0,0,.14,0,.14,0,0,0-.01-.14-.01-.14.12-.13.25-.26.37-.39,0,0,.17-.03.17-.03,0,0,.01-.17.01-.17.12-.12.23-.23.35-.35,0,0,.17-.03.17-.03,0,0,.03-.17.03-.17.12-.11.23-.23.35-.35,0,0,.17-.03.17-.03,0,0,.03-.17.03-.17.12-.12.24-.23.35-.35,0,0,.16,0,.16,0,0,0,.03-.16.03-.16.14-.13.28-.26.42-.38,0,0,.13-.11.13-.11.16-.14.33-.29.49-.43,0,0,.07-.05.07-.05.19-.15.38-.31.57-.46.21-.15.43-.3.64-.45,0,0,.18.05.18.05l.05-.2.14.04s.04-.14.04-.14c.2-.13.41-.26.61-.39.17-.06.34-.13.5-.19,1.78-.6,3.61-.71,5.47-.52.19.05.37.1.56.15.16.09.33.19.49.28.21.08.42.17.63.25.89.91,1.79,1.82,2.68,2.72.08.2.16.39.24.59.1.17.2.35.3.52.09.36.19.72.28,1.08.11.36.22.72.33,1.09.05.56.1,1.12.15,1.68-.01,2.71-.02,5.42-.03,8.13-.04.56-.09,1.11-.13,1.67-.41,1.04-.48,2.13-.39,3.23-.07.55-.15,1.1-.22,1.65-.4.48-.43,1.03-.3,1.62-.08.55-.17,1.1-.25,1.64-.42.48-.46,1.05-.34,1.64-.06.37-.12.75-.19,1.12-.59,1.2-.77,2.49-.91,3.79-.07.36-.13.71-.2,1.07-.38.29-.44.67-.33,1.11-.07.36-.14.73-.21,1.09-.38.28-.44.66-.34,1.09-.07.36-.14.72-.21,1.08-.62.82-.65,1.82-.82,2.77-.08.38-.16.76-.23,1.13-.36.25-.47.6-.36,1.01-.08.35-.15.7-.23,1.05-.28.11-.38.29-.26.58-.08.38-.17.76-.25,1.15-.06.03-.18.05-.18.09-.02.12,0,.24,0,.36-.11.42-.23.83-.34,1.25-.75,1.34-1.16,2.8-1.48,4.29-.05.21-.1.42-.16.63-.35.24-.5.56-.4.98-.05.21-.11.41-.16.62-.37.24-.5.59-.41,1.02-.05.19-.1.38-.15.57-.24.08-.39.21-.25.49-.11.36-.21.73-.32,1.09-.42.96-.93,1.89-1.24,2.88-.23.72.22.71.71.38.56-.06,1.11-.12,1.67-.19.59.15,1.12.03,1.61-.33.73-.06,1.47-.12,2.2-.18,1.29.13,2.56.07,3.79-.36,2,0,4,0,6,0,1.23.47,2.51.43,3.79.35.55.07,1.11.14,1.66.21.66.48,1.41.47,2.17.37.37.06.74.12,1.11.18.47.44,1.02.47,1.61.35.38.06.75.13,1.13.19.28.34.63.43,1.04.3.38.06.76.13,1.14.19,1,.64,2.15.71,3.27.91.38.07.75.15,1.13.22.26.35.6.46,1.02.35.36.07.72.15,1.08.22.28.4.67.46,1.11.37.22.04.43.09.65.13.25.34.57.47.98.36.35.08.71.16,1.06.24.1.27.28.38.57.26.38.09.76.17,1.14.26.26.39.62.48,1.06.38.21.05.41.1.62.15.24.38.59.5,1.02.41.18.05.36.11.53.16.18.1.37.21.55.31.2.07.4.14.6.21.16.11.33.21.49.32.18.08.37.16.55.24.2.14.39.28.59.42,0,0,.13.08.13.08.12.09.23.18.35.27.65.66,1.29,1.32,1.94,1.98.1.13.21.27.31.4,0,0,.05.09.05.09.33.75.66,1.51.98,2.26.02,1.26.03,2.52.05,3.77-.37.28-.49.65-.4,1.1-.06.18-.11.37-.17.55-.11.17-.21.34-.32.51-.25.42-.5.85-.75,1.27-.1.12-.2.24-.3.36-.87.91-1.73,1.81-2.6,2.72,0,0-.06-.1-.06-.1l-.03.16-.21.02s-.08.19-.08.19c-.13.12-.26.23-.4.35,0,0-.14.11-.14.11-.17.14-.33.28-.5.42-.41.3-.82.6-1.23.91,0,0-.22-.02-.22-.02l-.07.22s-.15.09-.15.09c-.32-.05-.5.11-.56.41-.21.13-.42.26-.63.39,0,0-.22-.02-.22-.02l-.08.22s-.14.08-.14.08c-.21.14-.41.27-.62.41-.17.08-.35.16-.52.25-.16.11-.32.22-.48.33-.21.11-.43.22-.64.33-.12.08-.25.16-.37.23-.25.13-.51.27-.76.4,0,0-.2-.05-.2-.05,0,0-.08.2-.08.2-.27.14-.55.28-.82.42,0,0-.18-.07-.18-.07l-.08.19c-.27.12-.53.25-.8.37,0,0-.22-.05-.22-.05l-.11.22c-.24.09-.48.18-.72.27-.15.09-.29.17-.44.26-.21.07-.42.14-.63.21-.3-.1-.47.03-.55.31-.39.15-.78.31-1.17.46,0,0-.2-.07-.2-.07,0,0-.11.2-.11.2-.23.07-.47.13-.7.2-.3-.11-.48.01-.57.29-.36.1-.72.2-1.08.31-.17.08-.34.17-.52.25-.37.09-.74.18-1.11.27-.28-.12-.47-.02-.57.26-.35.07-.7.15-1.05.22-.43-.1-.8-.02-1.07.34-.37.06-.74.13-1.1.19-.6-.13-1.13.03-1.61.41-.37.05-.74.09-1.12.14-.59-.12-1.15-.06-1.62.36-.55.06-1.1.12-1.65.18-.77-.13-1.5-.06-2.16.37-.55.05-1.1.1-1.65.16-.94-.12-1.86-.1-2.71.38-.91.06-1.83.13-2.74.19-1.47-.14-2.92-.04-4.33.39-1.28.05-2.57.11-3.85.16-1.1-.13-2.2-.21-3.36.19.47.92.98,1.5,1.7,1.88.15.18.31.35.46.53,0,0-.04.17-.04.17l.19.03v.18s.19.05.19.05c.12.13.24.27.36.4,0,0,.12.14.12.14-.03.31.12.46.42.48,0,0,.06.08.06.07-.02.33.14.5.46.54.31.4.62.79.92,1.19,0,0-.02.21-.02.21l.21.06-.02.15s.15.03.15.03c-.04.31.11.47.41.51,0,0,.04.06.04.06.15.2.31.4.46.6.12.19.24.37.36.56,0,0,0,.24,0,.24l.24.08s.09.14.09.14c-.05.33.11.5.42.56.15.22.29.44.44.65,0,0-.05.18-.05.18l.19.05-.04.14s.14.04.14.04c-.06.32.09.5.4.56.13.21.25.42.38.63,0,0-.02.23-.02.23l.22.09s.07.14.07.14c.14.21.28.41.41.62.08.17.16.35.24.52.11.16.22.32.34.48.11.22.23.43.34.65.07.12.15.24.22.36.15.27.3.54.45.81,0,0-.07.16-.07.16l.19.07s.07.16.07.16c.34,1.15.8,2.24,1.56,3.18.08.23.15.47.23.7.09.16.19.33.28.49.06.19.11.37.17.56.14.81.3,1.62.89,2.26.08.34.17.67.25,1.01.2.93.26,1.91.88,2.7.07.37.14.74.21,1.11-.11.44.02.8.35,1.1.06.36.12.72.17,1.09-.11.43-.06.82.31,1.12.08.55.16,1.09.24,1.64-.13.59-.03,1.14.36,1.61.06.55.12,1.1.18,1.66-.14.76-.05,1.49.37,2.16.06.74.12,1.47.18,2.21-.14,1.11-.06,2.2.37,3.25.05.92.1,1.83.15,2.75-.12,2.55-.03,5.09.39,7.62.06,4.19.12,8.38.17,12.57,0,2.71,0,5.42,0,8.14-.06.92-.12,1.84-.17,2.75-.32,1.27-.64,2.55-.97,3.82-.05.17-.11.34-.16.5-.29.08-.42.26-.34.56-.24.4-.47.79-.71,1.19-.31.02-.46.18-.43.5,0,0-.1.11-.1.11-.14.15-.29.29-.43.44,0,0-.11.11-.11.11-.16.14-.32.29-.48.43,0,0-.07.06-.07.06-.2.15-.4.3-.6.44-.18.08-.35.15-.53.23-.3-.09-.47.03-.55.32l-.51.15c-.6-.08-1.16,0-1.64.42-.55,0-1.09,0-1.64,0-.37-.09-.73-.18-1.1-.27-.37-.09-.75-.19-1.12-.28-.16-.09-.31-.18-.47-.27-.22-.09-.44-.17-.67-.26-.14-.1-.29-.2-.43-.3-.4-.26-.8-.53-1.2-.79-.03-.3-.18-.45-.49-.42,0,0-.13-.1-.13-.1-.14-.13-.28-.26-.42-.4v-.15s-.16,0-.16,0c-.13-.13-.25-.25-.38-.38v-.16s-.17-.01-.17-.01c-.13-.13-.25-.26-.38-.38v-.15s-.15-.01-.15-.01c-.13-.14-.26-.27-.4-.41,0,0-.12-.14-.12-.14-.14-.15-.28-.31-.42-.46,0,0-.08-.09-.08-.09.01-.32-.15-.47-.46-.49,0,0-.05-.06-.05-.06,0-.32-.15-.5-.48-.53-.46-.57-.92-1.14-1.38-1.71-.1-.11-.19-.22-.29-.34,0,0-.1-.14-.1-.14.03-.31-.12-.47-.42-.5-.44-.58-.88-1.16-1.32-1.73-.11-.13-.22-.25-.33-.38,0,0-.08-.11-.08-.11.03-.32-.13-.49-.44-.53-.32-.41-.65-.82-.97-1.23,0,0,.05-.17.05-.17l-.19-.04v-.16s-.15-.05-.15-.05c-.13-.16-.26-.32-.4-.47,0,0-.06-.08-.06-.08-.15-.19-.3-.37-.45-.56-.26-.37-.52-.75-.78-1.12-.11-.14-.23-.28-.34-.41,0,0-.06-.09-.06-.09-.15-.19-.3-.39-.45-.58-.13-.2-.27-.4-.4-.61,0,0,.02-.21.02-.21l-.21-.07s-.1-.16-.1-.16c.05-.33-.1-.5-.42-.55-.15-.22-.3-.45-.45-.67,0,0,.06-.17.06-.17l-.19-.05.04-.14s-.14-.05-.14-.05c.06-.33-.1-.5-.41-.56-.13-.21-.26-.42-.39-.64,0,0,.02-.22.02-.22l-.22-.08s-.08-.15-.08-.15c-.14-.2-.28-.4-.42-.59-.09-.18-.17-.37-.26-.55-.11-.14-.21-.28-.32-.43-.16-.27-.33-.53-.49-.8,0,0,.1-.09.1-.09l-.18-.06.04-.15s-.14-.06-.14-.06c.06-.33-.08-.52-.39-.6-.08-.18-.16-.36-.24-.54-.11-.16-.22-.32-.33-.48-.1-.21-.2-.42-.29-.63-.09-.13-.18-.26-.26-.4-.13-.25-.26-.49-.39-.74,0,0,.05-.21.05-.21l-.21-.09c-.15-.28-.3-.56-.45-.84,0,0,.08-.16.08-.16l-.19-.07s-.06-.15-.06-.15c-.1-.7-.37-1.32-.94-1.77.06-.2,0-.35-.18-.45-.12-.21-.24-.42-.36-.64.06-.19,0-.34-.18-.44-.13-.77-.42-1.47-1.01-2.01-.13-.28-.27-.55-.4-.83,0,0,.07-.19.07-.19l-.2-.09c-.11-.26-.22-.52-.34-.78-.07-.12-.13-.25-.2-.37-.08-.23-.16-.46-.24-.68-.1-.16-.19-.31-.29-.47-.07-.2-.14-.41-.2-.61.1-.3-.04-.47-.32-.55-.06-.17-.11-.34-.17-.51-.14-.79-.34-1.56-.95-2.14-.06-.2-.12-.41-.18-.61.1-.31,0-.51-.31-.61-.12-.35-.23-.7-.35-1.06-.08-.15-.16-.31-.24-.46-.05-.19-.11-.39-.16-.58-.13-.81-.29-1.61-.89-2.24-.1-.36-.2-.72-.29-1.07-.09-.17-.18-.35-.27-.52-.11-.38-.22-.76-.33-1.13.16-.27,0-.39-.23-.48-.05-.19-.1-.38-.15-.58-.04-.94-.36-1.75-1.16-2.97-.29,1.53-.47,2.52-.66,3.51-.07.38-.14.76-.21,1.14-.35.27-.44.62-.32,1.03-.07.38-.14.75-.2,1.13-.33.3-.46.66-.35,1.1-.07.36-.13.72-.2,1.09-.33.3-.47.66-.35,1.1-.07.38-.14.75-.21,1.13-.34.26-.45.6-.34,1.02-.07.38-.15.76-.22,1.14-.36.27-.45.62-.34,1.05-.07.37-.15.73-.22,1.1-.38.28-.45.65-.34,1.09-.07.35-.14.71-.22,1.06-.63.82-.65,1.83-.81,2.79-.07.36-.14.73-.21,1.09-.32.3-.48.65-.36,1.09-.07.37-.15.75-.22,1.12-.35.26-.45.61-.34,1.02-.07.38-.14.75-.22,1.13-.36.27-.45.63-.33,1.05-.07.38-.14.75-.21,1.13-.35.27-.45.63-.33,1.05-.07.38-.14.77-.21,1.15-.35.27-.44.61-.32,1.02-.07.38-.13.75-.2,1.13-.32.3-.45.66-.34,1.09-.06.36-.13.73-.19,1.09-.64,1.18-.82,2.48-.96,3.79-.07.37-.13.73-.2,1.1-.35.28-.43.65-.31,1.07-.06.38-.12.75-.19,1.13-.4.47-.53,1.01-.4,1.61-.06.38-.13.75-.19,1.13-.43.46-.49,1.01-.37,1.6-.06.37-.12.73-.18,1.1-.43.47-.47,1.03-.36,1.63-.06.37-.12.75-.18,1.12-.41.47-.46,1.02-.34,1.6-.06.38-.11.75-.17,1.13-.44.66-.52,1.39-.41,2.15,0,.37,0,.75.01,1.12-.13.34.04.48.35.54.14.2.27.41.41.61,0,0-.04.2-.04.2l.21.06c.23.43.45.86.68,1.29.3.75.6,1.5.9,2.25.08.52.16,1.04.25,1.56.19,1.98-.35,3.99.36,5.94,0,0,.03.05.03.05.1.71.45,1.28,1.01,1.72.13.36.25.72.38,1.08-.17.26-.03.39.2.48.04.18.08.36.12.55.72,5.24.5,10.51.49,15.78-.01,7.82.22,15.63.47,23.44.06,1.94.56,2.37,2.49,2.17,5.93-.59,9.86,2.44,11.24,8.28,1.02,4.29.43,8.48-.66,12.65-.12.47-.86.9-.25,1.39.49.39,1,.03,1.42-.37,3.06-2.98,6.31-2.88,9.56-.41,1.27.96,1.8.51,2.01-.72.79-4.61,4.03-7.11,7.73-9.28,8.32-4.86,16.33-10.2,23.73-16.4.44-.37,1.18-.57,1.01-1.45-7.77-2.16-15.38-4.84-22.87-7.86-9.6-3.87-19.17-7.84-27.45-14.25-4.26-3.3-7.26-7.36-7.55-12.98.04-.36.08-.72.13-1.08.33-.92.66-1.84.98-2.76,0,0,.07-.17.07-.17,0,0,.18-.06.18-.06,0,0-.09-.13-.09-.13.16-.25.32-.5.48-.76.3-.04.45-.2.41-.51l.14-.02s-.02-.14-.02-.14c.11-.13.23-.26.34-.38l.19-.05s.03-.19.03-.19c0,0,.24-.06.24-.06l.05-.24.2-.05s.05-.2.05-.2c.11-.1.21-.2.32-.3h.17s.05-.17.05-.17c.15-.13.3-.26.45-.38,0,0,.1-.07.1-.07.33.03.51-.12.57-.44.21-.13.41-.25.62-.38,0,0,.23.02.23.02l.1-.23s.12-.06.12-.06c.78-.18,1.52-.45,2.1-1.03.22-.06.43-.12.65-.18,1.09-.31,2.18-.63,3.27-.94.37-.04.75-.09,1.12-.13.76.12,1.49.05,2.16-.36,3.27,0,6.55,0,9.82,0,1.41.51,2.88.44,4.34.37.55.06,1.11.12,1.66.17.85.49,1.77.45,2.69.34.56.07,1.11.13,1.67.2.85.5,1.77.49,2.7.4.37.05.74.1,1.11.16.66.47,1.4.49,2.16.39.37.06.75.12,1.12.18.47.43,1.02.46,1.6.34.37.06.75.11,1.12.17.47.4,1.01.51,1.61.37.37.06.74.12,1.12.18.47.41,1.01.52,1.61.39.37.06.74.13,1.11.19.28.36.64.43,1.06.31.38.06.75.13,1.13.19.3.32.66.46,1.09.34.36.07.73.13,1.09.2.3.32.65.47,1.09.36.37.07.74.15,1.11.22.79.63,1.77.67,2.71.86.35.08.71.16,1.06.25.09.25.24.39.52.24.38.1.76.2,1.15.3.09.24.21.39.48.22.38.11.77.22,1.15.33.08.25.22.39.5.25.37.1.73.21,1.1.31.62.6,1.42.75,2.22.89.2.06.39.11.59.17.07.23.18.39.45.24.35.12.69.24,1.04.36.1.32.32.41.63.32.19.06.37.12.56.18.17.1.35.2.52.31.21.07.43.15.64.22.14.08.28.17.43.25.23.1.47.19.7.29.12.07.24.13.36.2.25.11.5.23.74.34,0,0,.11.23.11.23l.23-.03c.24.12.48.24.72.36.13.08.26.16.39.24.22.1.44.21.65.31.15.11.31.21.46.32.19.08.37.16.56.25.07.31.26.46.59.39l.07.14s.16-.04.16-.04c0,0,.06.16.06.16l.04-.11c.27.17.55.34.82.51.14.11.29.22.43.32.42.25.84.51,1.26.76.12.09.25.19.37.28.18.1.36.2.54.31.2.15.4.29.6.44,0,0,.09.05.09.05.14.11.28.22.41.33.38.26.77.52,1.15.78.04.31.21.47.53.43,0,0,.13.09.13.09.12.1.24.2.36.31.37.28.75.55,1.12.83.19.16.37.32.56.47,0,0,.06.04.06.04.03.3.19.46.5.43,0,0,.13.1.13.1.14.12.28.25.42.37l.05.17s.18.01.18.01c0,0,.03.19.03.19l.17-.05c.19.16.37.31.56.47.51.86,1.26,1.44,2.37,2.04-.18-1.03.02-1.9-.65-2.62-.07-.37-.14-.73-.21-1.1.11-.43.02-.8-.35-1.07-.07-.36-.14-.72-.21-1.08.11-.44-.02-.81-.37-1.1-.07-.36-.14-.72-.2-1.08.11-.44-.06-.79-.37-1.09-.07-.36-.14-.73-.2-1.09-.36-1.85-.65-3.72-1.44-5.45-.06-.36-.12-.73-.17-1.09.12-.44,0-.8-.33-1.1-.06-.37-.11-.74-.17-1.11.13-.6-.03-1.13-.4-1.61-.05-.37-.1-.75-.15-1.12.13-.6.02-1.14-.37-1.61-.04-.37-.09-.74-.13-1.11.11-.77.09-1.51-.39-2.17-.05-.55-.11-1.1-.16-1.65.13-1.12.05-2.21-.42-3.25-.06-.92-.11-1.84-.17-2.76,0-3.62,0-7.24,0-10.86.07-.55.14-1.11.21-1.66.42-.48.45-1.03.33-1.62.06-.37.12-.74.19-1.12.34-.3.45-.66.33-1.1.07-.36.14-.72.21-1.09.62-.81.74-1.78.93-2.73.06-.21.11-.42.17-.63.37-.23.51-.55.42-.98.06-.18.11-.35.17-.53.28-.08.41-.26.31-.56.07-.2.14-.41.21-.61.1-.16.19-.31.29-.47.08-.22.17-.43.25-.65.1-.15.19-.29.29-.44.09-.21.18-.42.26-.63.11-.16.22-.32.33-.47.08-.18.16-.36.24-.55.13-.2.27-.4.4-.6l.13-.04s-.04-.13-.04-.13c0,0,.2-.06.2-.06,0,0-.04-.19-.04-.19.14-.22.29-.44.43-.65.31-.05.47-.23.43-.56,0,0,.08-.12.08-.12.11-.12.21-.25.32-.37,1.02-1.04,2.03-2.09,3.05-3.13,0,0,.22.01.22.01l.07-.22s.16-.1.16-.1c.32.05.51-.09.58-.41.19-.08.38-.17.57-.25.16-.1.33-.2.49-.31.19-.06.37-.12.56-.18.36-.13.73-.26,1.09-.39.37-.04.74-.09,1.11-.13.53,0,1.07-.02,1.6-.03.37.05.75.1,1.12.15.28.36.64.5,1.09.42.18.06.36.11.54.17.17.11.35.22.52.33.38.25.76.5,1.14.75.18.17.35.33.53.5,0,0,.04.04.04.04.17.17.33.35.5.52.27.39.53.77.8,1.16.1.14.21.28.31.42.12.24.23.48.35.71-.17.25-.02.32.2.36.07.23.14.46.22.69.09.19.19.38.28.57.08.34.16.69.24,1.03-.11.44.02.8.35,1.1.05.37.1.74.15,1.11-.13.77-.03,1.5.39,2.16.05.74.11,1.47.16,2.21-.13,1.65-.04,3.28.39,4.88.06,1.83.11,3.65.17,5.48v24.01c1.28-1.05,1.84-1.83,2.18-2.78.12-.18.23-.36.35-.54.32-.06.47-.23.43-.56,0,0,.08-.12.08-.12.1-.12.19-.24.29-.36.27-.4.55-.8.82-1.19.3-.04.45-.2.41-.51l.14-.03s-.03-.14-.03-.14c0,0,.21-.06.21-.06,0,0-.02-.21-.02-.21.31-.41.61-.81.92-1.22.31-.04.46-.2.43-.52,0,0,.09-.13.09-.13.1-.12.21-.24.31-.36.45-.58.9-1.15,1.35-1.73.31-.03.47-.19.44-.51,0,0,.09-.11.09-.11.13-.14.26-.29.39-.43l.16-.04s0-.17,0-.17.21-.04.21-.04v-.2c.66-.76,1.33-1.52,2-2.28.17-.17.34-.35.51-.52,0,0,.03-.03.03-.03.17-.17.34-.34.51-.51,0,0,.03-.03.03-.03.17-.17.34-.34.51-.51,0,0,.03-.03.03-.03.17-.17.35-.34.52-.51,0,0,.03-.03.03-.03.18-.17.36-.34.54-.51.57-.49,1.14-.97,1.71-1.46,0,0,.21,0,.21,0l.05-.22h.15s.03-.14.03-.14c.16-.13.32-.27.48-.4,0,0,.08-.06.08-.06.19-.15.38-.3.57-.45.22-.16.44-.32.66-.48,0,0,.14.07.14.07l.04-.18.16.03s.06-.15.06-.15c.32.06.49-.09.54-.4.22-.13.44-.27.66-.4,0,0,.2.04.2.04l.08-.21c.42-.22.85-.43,1.27-.65.91-.33,1.82-.66,2.73-.99,1.27.01,2.55.02,3.82.03.27.41.66.48,1.1.41.16.05.33.11.49.16.43.56,1,.91,1.67,1.09.5.56,1,1.12,1.49,1.68,0,0-.03.21-.03.21l.22.07c.3.64.61,1.28.91,1.92-.04.05-.11.14-.1.16.07.1.17.17.26.26.06.38.13.75.19,1.13,0,1.63,0,3.27,0,4.9-.06.37-.12.74-.18,1.11-.35.3-.45.67-.34,1.1-.07.36-.15.72-.22,1.08-.4.26-.48.64-.39,1.08-.05.2-.1.4-.15.6-.22.08-.38.19-.2.45-.12.38-.24.77-.36,1.15-.09.17-.18.34-.28.51-.1.34-.2.68-.31,1.03-.31.1-.41.32-.32.62-.06.2-.12.4-.18.6-.09.16-.18.32-.27.47-.08.24-.16.48-.24.72-.35.22-.53.52-.44.94-.06.16-.11.33-.17.49-.31.09-.42.29-.34.6-.06.18-.13.36-.19.54-.28.08-.43.24-.33.55-.07.19-.14.38-.21.57-.27.07-.42.22-.33.52-.07.19-.15.37-.22.56-.28.07-.43.23-.35.53-.07.17-.14.34-.22.51-.13.21-.26.42-.4.62,0,0-.13.05-.13.05,0,0,.05.13.05.13s-.19.06-.19.06l.07.16c-.15.25-.3.49-.46.74-.11.15-.22.3-.34.45-.25.4-.5.81-.75,1.21-.11.14-.23.28-.34.42-.26.38-.51.77-.77,1.15-.31.05-.47.21-.43.54,0,0-.09.14-.09.14-.09.11-.18.23-.27.34-.29.38-.57.76-.86,1.15-.16.18-.31.37-.47.55,0,0-.05.06-.05.06-.14.17-.28.33-.43.5,0,0-.11.14-.11.14-.1.11-.2.23-.3.34-.46.55-.92,1.11-1.38,1.66-.63.32-1.25.82-1.26,1.48,0,.54.69.67,1.26.58.17.05.34.09.51.14.62.6,1.43.74,2.23.89.19.06.38.11.57.17.16.09.32.19.48.28.24.08.48.16.72.24,0,0,.1.2.1.2l.2-.06c.28.13.56.26.83.39.22.34.5.55.93.48l.05.13s.13-.06.13-.06c0,0,.07.18.07.18l.11-.1c.29.16.59.32.88.48,0,0,.08.2.08.2l.2-.05c.24.14.48.27.73.41.14.1.29.21.43.31.19.09.38.17.56.26.07.31.26.46.58.4l.05.14s.14-.04.14-.04.05.19.05.19l.15-.07c.24.15.47.31.71.46.05.3.22.45.53.39l.06.15s.16-.02.16-.02c0,0,.05.18.05.18l.1-.1c.24.17.47.33.71.5.05.31.22.47.55.43,0,0,.13.08.13.08.12.09.23.19.35.28.39.28.78.56,1.17.84.04.31.21.47.54.44,0,0,.1.08.1.08.15.13.29.25.44.38l.06.17s.18,0,.18,0c0,0,.03.18.03.18l.14-.07c.6.51,1.19,1.03,1.79,1.54.02.32.19.48.52.48,0,0,.06.05.06.05.16.16.33.32.49.48,0,0,.06.06.06.06,0,.32.16.48.48.48,0,0,.06.06.06.06,0,.32.17.48.48.49,0,0,.06.06.06.06,0,.32.17.48.48.5,0,0,.05.05.05.05,0,.32.17.5.49.52,0,0,.03.03.03.03.17.18.33.36.5.55.35.41.7.82,1.05,1.24,0,0-.1.08-.1.08l.17.03v.2s.19.08.19.08c.12.15.25.29.37.44,0,0,.08.11.08.11-.03.33.12.5.44.54.25.38.5.76.76,1.14.12.15.23.3.35.45.24.4.47.79.71,1.19-.08.31.08.46.37.51.09.2.18.39.27.59.1.14.2.28.3.42.14.25.27.49.41.74,0,0-.05.19-.05.19l.2.08c.16.29.31.58.47.87,0,0-.1.12-.1.12l.18.06c.15.3.3.6.45.9,0,0-.08.15-.08.15l.18.07c.11.27.22.53.33.8.07.13.14.27.2.4.07.22.13.43.2.65-.1.3,0,.49.3.59.09.34.18.68.27,1.02.12.36.25.72.37,1.08.04.37.09.73.13,1.1,0,.72.01,1.45.02,2.17-.07.37-.13.74-.2,1.11-.43.26-.52.66-.47,1.12,0,0-.05.12-.05.12s-.2.09-.2.09l.06.2c-.32.43-.65.86-.97,1.28-.16.16-.32.32-.48.48,0,0-.06.05-.06.05-.19.15-.38.31-.56.46,0,0,0,0,0,0-.72.37-1.43.73-2.15,1.1-.37.07-.74.14-1.11.2-1.45,0-2.9,0-4.35,0-.37-.07-.75-.13-1.12-.2-.29-.35-.66-.47-1.1-.37-.34-.08-.67-.15-1.01-.23-.11-.28-.3-.39-.59-.27-.36-.09-.72-.18-1.08-.26-.1-.27-.27-.39-.55-.27-.36-.09-.73-.18-1.09-.28-.18-.09-.36-.18-.55-.27-.36-.09-.71-.19-1.07-.28-1.18-.8-2.52-1.13-3.88-1.42-.21-.05-.42-.1-.63-.16-.24-.35-.56-.49-.98-.39-.21-.05-.43-.11-.64-.16-.24-.36-.57-.5-1-.4-.21-.05-.41-.1-.62-.15-.25-.37-.59-.5-1.02-.4-.2-.05-.4-.1-.6-.15-.08-.22-.18-.38-.44-.2-.39-.12-.78-.24-1.17-.35-.08-.24-.21-.39-.48-.23-.38-.11-.76-.21-1.14-.32-.09-.25-.23-.39-.51-.25-.37-.1-.75-.2-1.12-.3-.17-.09-.35-.17-.52-.26-.37-.1-.74-.19-1.11-.29-.18-.09-.35-.18-.53-.27-.37-.09-.73-.19-1.1-.28-.09-.26-.25-.39-.54-.27-.36-.09-.72-.19-1.08-.28-.1-.27-.27-.39-.56-.28-.35-.09-.71-.18-1.06-.28-1.45-.82-3-1.33-4.97-1.75.45.97.77,1.66,1.09,2.34.1.37.21.74.31,1.1-.14.28,0,.42.25.51.11.38.21.76.32,1.14-.16.27-.01.4.23.49.1.38.2.76.3,1.14-.15.28,0,.42.24.51.09.37.18.74.27,1.11.09.18.18.37.26.55.08.36.17.72.25,1.08-.12.3-.02.49.27.61.08.33.16.66.23,1,.16.96.26,1.93.89,2.73.08.36.15.72.23,1.09.18.96.22,1.96.85,2.77.07.36.14.72.21,1.07-.11.43-.02.8.35,1.07.07.37.14.74.2,1.11-.11.43-.03.81.34,1.09.06.36.13.72.19,1.08-.13.61.04,1.14.42,1.61.05.36.1.73.16,1.09-.11.43-.07.82.31,1.12.08.55.16,1.09.24,1.64-.14.6.02,1.13.38,1.6.04.37.09.74.13,1.12-.12.6-.07,1.15.36,1.62.07.55.14,1.1.21,1.65-.14.59-.04,1.14.35,1.61.06.55.12,1.1.18,1.66-.13.59-.09,1.15.33,1.63.08.72.16,1.44.23,2.16.17,1.86,1.15.94,1.96.57.55-.08,1.1-.16,1.65-.24.59.14,1.12,0,1.6-.35.37-.04.74-.07,1.11-.11,1.3.12,2.57.02,3.79-.45.92-.04,1.84-.09,2.76-.13,1.99,0,3.97,0,5.96-.01.73.06,1.47.11,2.2.17.85.47,1.77.44,2.69.34.55.08,1.09.16,1.64.24,1.1.28,2.21.55,3.31.83.37.08.73.16,1.1.25.08.24.21.39.48.23.36.12.72.23,1.09.35.09.3.28.41.58.33.18.07.36.14.55.21.41.57.99.88,1.66,1.06,0,0,.02.02.02.02.04.32.22.48.54.48,0,0,.05.05.05.05.16.17.33.33.49.5,0,0,.05.05.05.05.16.18.32.37.48.55,0,0,.01.02.01.02,1.62,2.81,1.68,5.74.63,8.75,0,0-.05.14-.05.14,0,0-.19.09-.19.09,0,0,.06.19.06.19Zm-246.4,368.34l-.09-.07c-.01-.3-.15-.45-.46-.41l-.14-.11c-2.45-3.63-2.7-5.88-.77-8.41,2.12-2.78,4.93-2.88,8.05-2.02,3.57.98,7.25,1.41,10.93,1.82.49.37,1.04.35,1.6.21,1.01.19,2,.55,3.05.25,5.41,1.25,10.94,1.51,16.44,1.95,16.61,1.32,33.21.53,49.79-.6,12.22-.83,24.4-2.17,36.56-3.61,1.01-.12,2-.02,2.11-1.48.35-4.33.77-8.66,1.21-13.45-6.27,3.05-11.96,2.24-17.55-.75-1.6-.86-3.51-.9-5.33-.9-11.85-.02-23.7,0-35.81,0,1.48,2.87,1.04,3.8-1.6,4.6-2.31.7-4.77.07-7.01.65-3.53.92-6.37-.11-9.18-2.06-2-1.39-4.14-3.01-6.58-3.06-7.25-.16-14.5.03-21.75.08-.55-.07-1.11-.13-1.66-.2-2.52-.43-5.06-.32-7.6-.21-5.88-.41-11.77-.8-17.65-1.24-1.64-.12-2.56.06-2.08,2.16.47,2.02.5,4.14.72,6.21.72,6.85,1.43,13.7,2.14,20.54.05.92.1,1.84.14,2.76-.13,1.65-.1,3.28.4,4.88.05.92.1,1.84.14,2.76-.13,1.65-.1,3.28.4,4.88.06,1.1.11,2.2.17,3.3-.14,1.47-.1,2.92.38,4.33.05.92.1,1.84.15,2.75-.12,1.47-.13,2.93.38,4.34.06,1.1.12,2.2.18,3.3-.13,1.29-.12,2.56.35,3.79.06,1.1.12,2.2.19,3.3-.14,1.47-.09,2.92.39,4.33l.15,2.76c-.13,1.29-.14,2.57.36,3.8l.2,3.29c.29,1.62-.87,3.68,1.45,4.67.34.08.68.16,1.02.25.09.3.29.4.58.31.2.07.41.13.61.2.16.1.32.2.47.3.21.08.42.16.64.24.15.1.3.2.45.29.22.08.45.16.67.24.05.21.13.38.39.21.36.13.71.26,1.07.4.1.3.3.4.6.3.22.06.45.12.67.18.23.34.55.49.96.39.22.05.45.1.67.16.24.33.55.47.95.36.36.08.72.16,1.08.24.82.62,1.82.68,2.78.82l1.1.2c1.18.64,2.47.82,3.78.93.38.07.76.13,1.15.2.15.07.29.13.44.2.4.08.8.15,1.2.23.35.04.7.07,1.05.11.24.12.47.3.72.35,16.95,3.31,33.93,3.04,50.95.47,13.38-2.02,26.5-5.24,39.7-8.15,1.44-.32,1.91-.98,2.06-2.32.33-2.89.81-5.75,1.21-8.63.8-5.81,1.57-11.62,2.34-17.32-33.28,9.97-66.61,14.77-100.83,6.89-.35-.06-.7-.11-1.05-.17-.27-.36-.63-.44-1.05-.34-.36-.07-.73-.15-1.09-.22-.82-.62-1.81-.67-2.77-.84l-1.09-.23c-.8-.64-1.78-.69-2.73-.85-.38-.07-.76-.14-1.15-.22-.26-.32-.58-.43-.98-.31-.37-.09-.74-.18-1.11-.27-.07-.3-.25-.4-.54-.3-.22-.07-.43-.14-.65-.22-.15-.1-.29-.19-.44-.29-.39-.27-.77-.54-1.16-.82-.17-.17-.34-.35-.51-.52-.16-.2-.31-.41-.47-.61-1.18-2.62-1.09-5.15.54-7.57.37-.32.74-.65,1.11-.97l.22.04.08-.22.13-.07c1.94-.76,3.95-.86,6-.68.38.06.76.12,1.14.18.3.31.65.47,1.08.36.38.08.75.15,1.13.23.25.36.59.46,1.01.36.63.22,1.26.45,1.88.67.48.1.96.19,1.44.29,17.25,5.03,34.83,5.86,52.58,3.8,16.03-1.86,31.95-4.94,48.19-4.4,1.67.06,2.14-.57,2.3-2.14.57-5.51,1.23-11.01,1.98-16.5.26-1.92-.09-2.51-2.19-2.29-10.37,1.11-20.75,2.22-31.15,3.05-17.48,1.39-34.98,2.21-52.51.95-6.42-.46-12.82-1.18-19.23-1.78-.18.03-.37.05-.55.08-1.11-.14-2.28.08-3.28-.61-.66-.4-1.38-.46-2.13-.35-.55-.07-1.1-.14-1.65-.21-.68-.41-1.41-.45-2.17-.35-.38-.05-.75-.1-1.13-.15-.66-.41-1.39-.5-2.14-.4-.38-.06-.75-.12-1.13-.18-.47-.41-1.01-.47-1.6-.35-.36-.07-.71-.14-1.07-.22-.1-.28-.28-.37-.56-.24l-1.09-.31c-.07-.31-.27-.42-.57-.34-.17-.07-.34-.14-.51-.21-.21-.14-.41-.28-.62-.42ZM171.3,147.5c.38-.29.49-.66.36-1.11.02-1.99,1.05-3.71,1.53-5.57,2.87-11.07,5.5-22.19,7.67-33.41.44-2.24,1.28-4.5.53-7.42-6.72,9.18-13.88,17.39-23.03,24.53,5.14,0,8.45,1.91,10.39,6.02.82,1.75,1.1,3.64,1.55,5.48.18,4.16.39,8.33-.21,12.48-.84,1.09-.59,2.44-.76,3.65-.76,5.45-2.53,10.66-3.49,16.06l-.11.08.09-.1c.51-.18.97-.35,1.11-1.01,1.23-5.5,2.5-10.99,3.75-16.48.2-1.07.4-2.14.6-3.2h0Zm99.75,79.6c2.02-.67,4.18-.59,6.39-.9-.52-1.03-.88-2.19-2.02-1.32-1.69,1.29-3.57,1.12-5.46,1.18-1.55.39-2.11-1.59-3.7-1.5.15,1.28-.64,2.87.55,3.68,1.07.72,2.39-.2,3.53-.74.24-.12.47-.26.71-.39Zm-136.3,619.41c.53-.01,1.06-.02,1.58-.04,12.17-.06,24.34-.05,36.5-.19,9.48-.11,18.45-4.04,27.98-3.92,1.59.02,1.62-1.25,1.82-2.25.86-4.27,1.7-8.55,2.43-12.85.58-3.43,1.04-6.88,1.07-10.73-4.2,2.4-8.25,4.25-12.55,5.38-15.04,3.94-30.28,6.71-45.81,7.94-7.26.57-14.52.29-21.78.59-3.92-.3-7.86-.51-11.98-1.81.77,4.78,1.52,9.13,2.16,13.51.18,1.23.83,1.62,1.89,1.93,3.5.99,7.01,1.86,10.65,2.07,1.97.7,4,.54,6.03.38Zm-4.36-28.9l3.8-.04c12.02.05,23.9-1.34,35.71-3.41,11.95-2.09,23.58-6.07,35.88-6.14,1.68,0,1.57-1.12,1.69-2.17.82-7.04,1.64-14.07,2.45-21.11.37-3.25.36-3.24-2.63-2.32-12.41,3.83-24.96,6.97-37.85,8.77-12.24,1.71-24.51,2.85-36.86,3.09-6.21.48-12.15-1.25-18.19-2.16-1.67-.25-3.74-1.72-4.83-.73-1.12,1.02.04,3.25.23,4.93.79,7.1,1.72,14.19,2.63,21.48,3.42-1.48,6.58-.71,9.73-.55,2.73.72,5.49.52,8.25.35Zm-3.26-74.05c-.46-.52-1.05-.52-1.66-.41-7.41-1.58-14.84-3.11-22.37-5.93,1.41,12.96,2.78,25.48,4.13,37.99.14,1.29.95,1.81,2.05,2.22,4.7,1.76,9.55,2.82,14.54,3.26,1.24.63,2.54.49,3.85.37,1.08.04,2.17.08,3.25.12.99.06,1.98.18,2.97.17,21.44-.29,42.49-3.17,63.12-9.12,4.26-1.23,8.42-3.02,12.94-2.95,1.67.02,2.14-.5,2.35-2.08.98-7.66,2.08-15.3,3.14-22.95.39-2.83.79-5.65,1.22-8.67-1.22.29-2.01.49-2.81.68-19.43,4.67-38.94,8.77-59.04,9.23-9.29.21-18.49-.69-27.67-1.92h0Zm-38.65-449.47c-5.21.09-10.07.79-14.87,1.79-19.05,3.95-36.38,11.81-52.06,23.28-4.2,3.07-7.02,7.3-8.49,12.37-.64,2.19.09,3.67,2.05,4.74,2.28,1.24,4.72,1.85,7.26,2.17,7.02.87,13.97.11,20.9-.92,16.04-2.4,31.5-7.09,46.92-11.94,13-4.09,25.54-9.44,38.42-13.86.95-.33,1.51-.69,1.17-1.68-.34-.99.22-2.59-1.58-2.7-2.13-.13-3.85-1.1-5.16-2.7-1.93-2.35-4.44-3.65-7.28-4.54-6.16-1.93-12.44-3.36-18.68-4.97-2.93-.76-5.86-1.26-8.59-1.02Zm219.21,84.62c2.07-.09,5.02-.84,7.79-2.33,2.27-1.23,2.99-2.92,2.08-5.42-1.19-3.26-2.82-6.28-4.61-9.23-11.02-18.07-24.89-33.67-41.02-47.31-.35-.29-.67-.66-1.08-.82-1.08-.42-2.14-.42-2.93.62-.81,1.07.1,1.61.73,2.24,1.64,1.63,2.61,3.69,3.66,5.7,6.56,12.56,11.71,25.75,17.32,38.74,2.27,5.25,4.79,10.39,8.92,14.52,2.24,2.23,4.93,3.32,9.15,3.29Zm-172.02-84.22c.71-3.95,2.41-7.44,4.52-10.72.85-1.32.53-2.29-.34-3.42-2.58-3.36-6.06-5.53-9.86-7.04-15.63-6.22-31.78-9.54-48.68-7.86-3.63.36-7.28.97-10.9,2.85,7.32,6.88,15.61,11.34,25.12,12.78,10.4,1.57,20.53,3.57,29.87,8.67,3.25,1.77,6.72,3.13,10.27,4.75Zm77.09-12.45c10.14,2.66,20.13,5.68,30.29,8.04,1.75.41,2.44.29,2.35-1.75-.16-3.63-.13-7.27-.04-10.9.12-4.5,1.05-8.82,3.27-12.79,1.12-2,2.55-3.75,4.3-5.24,6-5.09,13.32-3.46,16.54,3.74,2.42,5.4,2.96,11.21,3.21,17.02.2,4.58.04,9.18.04,13.84,2.54-.79,4.84-1.58,7.19-2.2,1.36-.35,1.52-.95.94-2.09-.28-.56-.42-1.19-.61-1.8-4.43-14.31-5.79-29.15-7.62-43.91-.36-2.92-.45-3.08-2.93-1.4-3.23,2.19-6.41,4.45-9.58,6.73-15.52,11.15-30.2,23.54-47.37,32.7Zm-143.26,110.75c1.12-.63,2.16-1.14,3.12-1.76,4.14-2.68,7.74-6.02,11.22-9.49,15.43-15.38,28.43-32.8,41.69-49.99.81-1.05,2.95-2.12,1.58-3.79-1.58-1.93-3,.23-4.16.95-23.61,14.61-39.65,35.88-52.42,59.98-.6,1.14-1.33,2.39-1.02,4.11Zm151.17-229.78c0-2.73.05-4.69,0-6.65-.24-7.98-.4-15.96-1.59-23.89-2.02-13.51-9.18-23.85-19.55-32.25-1.15-.93-2.31-3.19-3.5-2.48-1.55.93-1.04,3.35-.66,5.07.94,4.25,2.08,8.45,3.21,12.65,4.06,15.05,9.43,29.55,18.3,42.54,1.04,1.53,2.23,2.96,3.79,5Zm-23.27,40.13c1.97,2.69,4.54,4.23,7.17,5.61,14.2,7.49,29.18,12.96,44.7,16.99,1.53.4,2.36-.11,3.25-1.18,2.27-2.75,4.91-4.82,8.94-4.52-19.24-13.94-41.35-16.57-64.06-16.9ZM126.67,43.44c.14.25.23.53.42.7,1.63,1.44,3.24,2.93,4.94,4.28,12.33,9.82,25.75,17.28,41.73,19.22,2.98.36,5.73.19,8.41-1.29,1.15-.63,1.27-1.2.45-2.04-1.33-1.36-2.61-2.81-4.12-3.95-14.48-10.97-30.86-16.64-48.97-17.39-.93-.04-1.99-.37-2.86.47Zm54.41,37.88c-24.62,11.33-44.17,28.93-61.51,49.41.8.43,1.27.01,1.75-.17,11.97-4.55,22.88-10.89,32.81-19,10.58-8.64,16.89-21.08,26.95-30.24Zm75.07,331.34c6.71-12.78,9.47-63.32,4.14-74.45-2.38,8.79-4.27,17.56-5.96,26.38-2.19,11.44-3.92,22.92-2.33,34.61.63,4.64,1.71,9.15,4.15,13.47Zm-97.77-40.43c.25-.01.49-.03.74-.04,3-8.73,5.96-17.47,9.02-26.18.5-1.42.22-1.86-1.2-2.22-5.02-1.3-9.71-3.47-14.39-5.65-1.43-.67-2.87-1.33-4.81-2.22,1.73,13.07,8.45,24.01,10.64,36.31ZM251.07,76.38c-2.6-.71-4.51-1.26-6.44-1.76-10.51-2.7-20.96-3-31.36.68-4.3,1.52-6.37,4.91-8.52,8.94,15.71-1.32,31.39.06,46.32-7.86Zm-32.41,276.01c12.85-8.9,24.7-18.76,32.72-32.47.31-.53.58-1.15.65-1.75.16-1.33-.06-2.08-1.75-1.31-15.79,7.16-25.4,19.83-31.61,35.53Zm66.6-114.41c.02,7.52,1.27,14.85,2.27,22.21,1.31,9.62,2.78,19.22,6.5,28.29,1.43,3.5,3.18,6.82,5.96,10.23-2.66-21.24-5.81-41.69-14.73-60.74Zm-141.32-56.03c-2.93.04-5.32,1.18-7.48,2.88-6.25,4.92-10.7,11.32-14.7,18.08-1.92,3.24-3.66,6.58-4.89,10.38,8.04-2.79,19.36-17.2,27.07-31.34Zm-41.25-37.09c-.01.79.48.93.84,1.16,9.53,6.17,19.68,10.48,31.29,10.4.68,0,1.28.02,1.62-.67.72-1.45,1.99-2.37,4.08-3.39-13.08-3-24.98-7.53-37.82-7.5Zm68.25,121.25c-4.61,4.2-8.29,8.4-11.81,12.75-4.02,4.97-3.97,5.36-.59,10.83.81,1.3,1.35,1.41,2.41.37,3.16-3.11,6.38-6.16,9.56-9.25.58-.57,1.23-1.2,1.18-2.07-.21-4.03-.48-8.06-.76-12.63Zm-18.64,52.09c-1.03,0-2.04.06-3.03-.01-1.64-.12-2.21.78-2.5,2.22-.31,1.55.72,1.76,1.77,2.18,2.77,1.12,5.52,2.31,8.25,3.52,4.39,1.96,8.7,4.11,13.36,5.38.68.18,1.49.71,2.03.06.62-.74.05-1.53-.4-2.22-4.58-7.09-10.65-11.58-19.49-11.13ZM213.87,24.98c-1.21.65-1.41,1.69-1.83,2.54-4.76,9.62-8.23,19.7-10.73,30.12-.21.89-1.35,2.16.23,2.82,1.74.74,1.89-.97,2.3-1.92,3.26-7.68,5.87-15.58,7.9-23.67.8-3.2,1.81-6.37,2.13-9.88Zm110.93,209.03c-5.65-6-12.31-10.13-20.54-11.25-1.86-.25-3.8.03-5.7.14-.52.03-1.1.29-1.19.93-.09.69.49.89.98,1.11,8.57,3.7,17.51,6.33,26.44,9.08Zm5.96,60.42c-.55-.64-1.13-.56-1.66-.61-3.44-.28-6.86.07-10.28.41-6.36.65-6.37.62-5.21,6.83.05.27.06.54.1.81.13.74.46,1.18,1.29.87,5.58-2.02,11.42-3.57,15.75-8.31Zm-203.49-122.68c-7.1-4.9-22.49-5.41-27.73-1.12,9.12,1.41,18.11,2.44,27.73,1.12Zm34.44,134.64c4.22,1.24,7.77,3.01,11.1,5.35v-15.22c-3.92,3.48-7.38,6.56-11.1,9.87Zm-14.17-174.26c-4.16,2.14-8.19,4.5-12.68,6.57,2.81,1.9,5.3,3.59,7.89,5.34,1.3-4.15,3.03-7.95,4.79-11.91Zm10.04,9.67c-3.64,5.06-6.14,19.56-3.92,22.7,2.26-5.97,4.59-19.47,3.92-22.7Zm101.38,131.63c-1.53,6.68-.72,13.48-.85,20.24,0,.17.06.36.13.52.23.52.61,1,1.19.92.51-.07.54-.66.56-1.11.25-6.86.54-13.72-1.03-20.57Zm-93.53-103.42c-5.16,6.12-5.75,9.57-2.35,15.28.53-2.79.99-5.36,1.5-7.93.5-2.47.91-4.95.85-7.36Zm122.81,134.57c-.87-1.43-1.33-2.19-1.8-2.95q-3.13-5.1-6.6.06c-.38.56-1.12,1.09-.71,1.89.41.78,1.18,1.03,2.06,1.02,2.14-.03,4.28,0,7.04,0Zm19.33-106.69c-.24-.13-.48-.25-.71-.38-2.61,4.02-5.22,8.05-7.82,12.07,1.87-.28,3.93,1.19,4.86-1.15,1.38-3.46,2.94-6.86,3.68-10.54Zm-163.35,106.61c1.9-1.58,3.61-2.99,5.31-4.43.39-.33.99-.67.54-1.3-.25-.35-.65-.71-1.05-.81-.85-.21-.65.65-.8,1.05-.58,1.49-1.52,2.63-2.92,3.41-.61.34-1.38.57-1.07,2.09Zm136.39-122.83c.46-4.05.38-8.15.19-12.63-1.74,4.42-.12,8.51-.19,12.63Z"/><path class="cls-9" d="m127.14,743.56c9.18,1.23,18.38,2.13,27.67,1.92,20.1-.46,39.61-4.56,59.04-9.23.79-.19,1.58-.38,2.81-.68-.42,3.02-.83,5.84-1.22,8.67-1.06,7.65-2.17,15.29-3.14,22.95-.2,1.58-.68,2.1-2.35,2.08-4.52-.06-8.69,1.73-12.94,2.95-20.62,5.95-41.68,8.83-63.12,9.12-.99.01-1.98-.11-2.97-.17.08-6.97-1.28-13.81-1.93-20.71-.53-5.64-1.23-11.27-1.85-16.91Z"/><path class="cls-9" d="m121.62,701.21c34.22,7.87,67.55,3.08,100.83-6.89-.77,5.7-1.55,11.51-2.34,17.32-.39,2.88-.87,5.75-1.21,8.63-.16,1.34-.62,2-2.06,2.32-13.19,2.91-26.32,6.12-39.7,8.15-17.02,2.57-33.99,2.84-50.95-.47-.25-.05-.48-.23-.72-.35-.14-8.31-1.74-16.47-2.44-24.73-.1-1.12.4-2.89-1.4-3.5-.06-.16-.06-.32,0-.49Z"/><path class="cls-9" d="m120.58,668.31c6.41.6,12.81,1.31,19.23,1.78,17.53,1.26,35.03.44,52.51-.95,10.4-.83,20.78-1.94,31.15-3.05,2.1-.23,2.45.37,2.19,2.29-.76,5.49-1.42,10.99-1.98,16.5-.16,1.57-.63,2.19-2.3,2.14-16.24-.54-32.16,2.54-48.19,4.4-17.75,2.06-35.32,1.23-52.58-3.8.75-.85.5-1.88.5-2.86.01-4.07.02-8.14,0-12.21,0-1.43.29-2.91-.52-4.24Z"/><path class="cls-9" d="m123.84,636.68c7.25-.05,14.5-.24,21.75-.08,2.44.05,4.58,1.67,6.58,3.06,2.81,1.95,5.66,2.98,9.18,2.06,2.24-.58,4.7.05,7.01-.65,2.64-.8,3.08-1.73,1.6-4.6,12.11,0,23.96,0,35.81,0,1.82,0,3.73.05,5.33.9,5.6,2.98,11.28,3.8,17.55.75-.44,4.79-.86,9.12-1.21,13.45-.12,1.46-1.11,1.36-2.11,1.48-12.16,1.44-24.34,2.78-36.56,3.61-16.58,1.13-33.18,1.91-49.79.6-5.5-.44-11.03-.7-16.44-1.95-1.02-5.15.41-10.23.55-15.35.03-1.03-.39-2.41.75-3.29Z"/><path class="cls-9" d="m132.57,794.28c12.35-.24,24.62-1.38,36.86-3.09,12.89-1.8,25.44-4.94,37.85-8.77,3-.93,3.01-.94,2.63,2.32-.81,7.04-1.63,14.08-2.45,21.11-.12,1.06-.01,2.16-1.69,2.17-12.29.07-23.92,4.04-35.88,6.14-11.82,2.07-23.7,3.46-35.71,3.41.15-.51.46-1.03.42-1.52-.65-7.26-1.35-14.51-2.04-21.77Z"/><path class="cls-9" d="m126.02,830.43c7.25-.3,14.52-.01,21.78-.59,15.53-1.23,30.77-4,45.81-7.94,4.3-1.13,8.34-2.97,12.55-5.38-.03,3.86-.49,7.31-1.07,10.73-.73,4.3-1.57,8.57-2.43,12.85-.2,1-.23,2.27-1.82,2.25-9.53-.12-18.5,3.81-27.98,3.92-12.17.14-24.34.13-36.5.19.44-4.63-.79-9.2-.51-13.83.09-1.53-.77-1.73-2.03-1.8-2.59-.14-5.23.53-7.78-.41Z"/><path class="cls-8" d="m121.62,701.21c-.06.16-.05.33,0,.49.22,2.51.42,5.02.68,7.53.71,6.7,1.85,13.35,2.09,20.1-.52.02-1.04.04-1.55.06h-.06c-.38-.05-.76-.12-1.15-.18-1.08-1.05-2.34-1.36-3.78-.93-.37-.07-.73-.13-1.1-.2-.58-1.45-1.82-.66-2.78-.82-.36-.08-.72-.16-1.08-.24-.32-.12-.64-.24-.96-.36-.22-.05-.45-.1-.67-.16-.32-.13-.64-.26-.96-.39-.22-.06-.45-.12-.67-.18-.2-.1-.4-.2-.6-.3-.36-.13-.71-.26-1.07-.4-.1-.13-.22-.2-.39-.21-.22-.08-.45-.16-.67-.24-.15-.1-.3-.2-.45-.29-.21-.08-.42-.16-.64-.24-.16-.1-.32-.2-.47-.3-.2-.07-.41-.13-.61-.2-.19-.1-.39-.21-.58-.31-.34-.08-.68-.16-1.02-.25-.75-1.47-.26-3.33-1.45-4.67l-.2-3.29c1.22-1.39,0-2.56-.36-3.8l-.15-2.76c1.18-1.56.08-2.92-.39-4.33-.06-1.1-.12-2.2-.19-3.3,1.12-1.38.4-2.59-.35-3.79-.06-1.1-.12-2.2-.18-3.3,1.22-1.57.1-2.92-.38-4.34-.05-.92-.1-1.84-.15-2.75,1.2-1.56.09-2.92-.38-4.33-.06-1.1-.11-2.2-.17-3.3,1.26-1.74-.14-3.26-.4-4.88-.05-.92-.1-1.84-.14-2.76,1.25-1.74-.15-3.26-.4-4.88-.05-.92-.1-1.84-.14-2.76.62-.33,1.25-.62,1.98-.48,0,0,.14.11.14.11.15.14.31.27.46.41,0,0,.09.07.09.07.21.14.41.28.62.42.17.07.34.14.51.21.19.11.38.22.57.34.36.1.72.2,1.09.31.19.08.37.16.56.24.36.07.71.14,1.07.22.45.49,1.03.39,1.6.35.38.06.75.12,1.13.18.67.37,1.24,1.29,2.14.4.38.05.75.1,1.13.15.65.6,1.43.36,2.17.35.55.07,1.1.14,1.65.21.63.58,1.4.35,2.13.35,1,.69,2.18.47,3.28.61,0,5.23,0,10.45,0,15.68,0,1.17.16,2.37-.87,3.26-.63-.22-1.26-.45-1.88-.67-.34-.12-.67-.24-1.01-.36-.38-.08-.75-.15-1.13-.23-.17-.69-.44-1.1-1.08-.36-.38-.06-.76-.12-1.14-.18-2.42-1.44-4.37-1.22-6,.68,0,0-.13.07-.13.07-.12.02-.22.08-.3.18-.37.32-.74.65-1.11.97-2.93,1.83-3.2,5.63-.54,7.57.16.2.31.41.47.61.17.17.34.35.51.52.39.27.77.54,1.16.82.15.1.29.19.44.29.22.07.43.14.65.22.18.1.36.2.54.3.37.09.74.18,1.11.27.33.1.65.2.98.31.38.07.76.14,1.15.22.55,1.45,1.79.67,2.73.85.36.08.73.16,1.09.23.56,1.47,1.81.68,2.77.84.36.07.73.15,1.09.22.35.11.7.22,1.05.34.35.06.7.11,1.05.17Z"/><path class="cls-4" d="m127.14,743.56c.62,5.64,1.32,11.26,1.85,16.91.65,6.9,2.01,13.74,1.93,20.71-1.08-.04-2.17-.08-3.25-.12-1.22-.76-2.55-.45-3.85-.37-4.99-.44-9.84-1.5-14.54-3.26-1.1-.41-1.91-.92-2.05-2.22-1.35-12.52-2.72-25.03-4.13-37.99,7.53,2.83,14.96,4.35,22.37,5.93.45.58,1.03.59,1.66.41h0Z"/><path class="cls-4" d="m132.57,794.28c.69,7.26,1.39,14.51,2.04,21.77.04.49-.27,1.01-.42,1.52-1.27.01-2.53.02-3.8.04-2.72-.8-5.49-.41-8.25-.35-3.15-.16-6.31-.93-9.73.55-.91-7.3-1.85-14.38-2.63-21.48-.19-1.68-1.35-3.91-.23-4.93,1.09-.99,3.16.48,4.83.73,6.04.91,11.98,2.64,18.19,2.16Z"/><path class="cls-7" d="m99.69,663.46c-.73-.13-1.36.15-1.98.48-.71-6.85-1.43-13.7-2.14-20.54-.22-2.08-.25-4.19-.72-6.21-.48-2.09.44-2.28,2.08-2.16,5.88.44,11.77.83,17.65,1.24,2.51.82,5.06.54,7.6.21.55.07,1.11.13,1.66.2-1.13.88-.72,2.26-.75,3.29-.15,5.12-1.57,10.2-.55,15.35-1.05.3-2.04-.06-3.05-.25-.46-.59-1.01-.53-1.6-.21-3.68-.41-7.36-.84-10.93-1.82-3.13-.86-5.93-.76-8.05,2.02-1.93,2.53-1.68,4.77.77,8.41Z"/><path class="cls-4" d="m126.02,830.43c2.55.94,5.19.27,7.78.41,1.26.07,2.12.27,2.03,1.8-.28,4.62.95,9.2.51,13.83-.53.01-1.06.02-1.58.04-1.97-.79-4.01-.43-6.03-.38-3.64-.22-7.15-1.09-10.65-2.07-1.07-.3-1.71-.69-1.89-1.93-.63-4.37-1.38-8.73-2.16-13.51,4.12,1.31,8.05,1.51,11.98,1.81Z"/><path class="cls-5" d="m88.49,294.08c2.74-.24,5.66.26,8.59,1.02,6.24,1.61,12.53,3.04,18.68,4.97,2.84.89,5.35,2.2,7.28,4.54,1.32,1.6,3.03,2.57,5.16,2.7,1.8.11,1.24,1.71,1.58,2.7.34.99-.22,1.35-1.17,1.68-12.88,4.43-25.42,9.78-38.42,13.86-15.42,4.85-30.88,9.54-46.92,11.94-6.92,1.04-13.88,1.79-20.9.92-2.54-.31-4.98-.93-7.26-2.17-1.96-1.07-2.69-2.55-2.05-4.74,1.47-5.07,4.29-9.29,8.49-12.37,15.68-11.47,33.01-19.33,52.06-23.28,4.81-1,9.66-1.7,14.87-1.79Z"/><path class="cls-3" d="m307.7,378.7c-4.22.03-6.91-1.06-9.15-3.29-4.13-4.13-6.65-9.27-8.92-14.52-5.61-12.99-10.76-26.18-17.32-38.74-1.05-2.01-2.02-4.07-3.66-5.7-.63-.63-1.53-1.16-.73-2.24.78-1.04,1.84-1.05,2.93-.62.4.16.73.53,1.08.82,16.13,13.64,30,29.24,41.02,47.31,1.8,2.95,3.42,5.97,4.61,9.23.91,2.5.2,4.2-2.08,5.42-2.77,1.49-5.72,2.24-7.79,2.33Z"/><path class="cls-3" d="m135.68,294.49c-3.55-1.63-7.02-2.98-10.27-4.75-9.34-5.1-19.47-7.11-29.87-8.67-9.51-1.43-17.8-5.9-25.12-12.78,3.62-1.88,7.28-2.49,10.9-2.85,16.9-1.68,33.05,1.64,48.68,7.86,3.8,1.51,7.28,3.69,9.86,7.04.87,1.13,1.19,2.1.34,3.42-2.11,3.28-3.81,6.76-4.52,10.72Z"/><path class="cls-6" d="m69.52,392.78c-.31-1.72.41-2.97,1.02-4.11,12.78-24.1,28.82-45.36,52.42-59.98,1.17-.72,2.59-2.88,4.16-.95,1.37,1.68-.77,2.74-1.58,3.79-13.26,17.19-26.26,34.61-41.69,49.99-3.48,3.47-7.07,6.81-11.22,9.49-.96.62-2,1.13-3.12,1.76Z"/><path class="cls-6" d="m220.69,163c-1.56-2.04-2.75-3.47-3.79-5-8.88-12.98-14.24-27.48-18.3-42.54-1.13-4.2-2.27-8.41-3.21-12.65-.38-1.73-.89-4.14.66-5.07,1.18-.71,2.34,1.55,3.5,2.48,10.37,8.4,17.53,18.74,19.55,32.25,1.19,7.93,1.35,15.91,1.59,23.89.06,1.95,0,3.91,0,6.65Z"/><path class="cls-6" d="m197.42,203.13c22.72.33,44.82,2.95,64.06,16.9-4.03-.3-6.67,1.76-8.94,4.52-.88,1.07-1.72,1.58-3.25,1.18-15.53-4.03-30.5-9.5-44.7-16.99-2.63-1.39-5.2-2.93-7.17-5.61Z"/><path class="cls-6" d="m126.67,43.44c.87-.84,1.93-.51,2.86-.47,18.11.75,34.49,6.42,48.97,17.39,1.51,1.14,2.79,2.59,4.12,3.95.82.84.7,1.41-.45,2.04-2.68,1.47-5.43,1.65-8.41,1.29-15.98-1.95-29.4-9.4-41.73-19.22-1.7-1.36-3.3-2.84-4.94-4.28-.19-.17-.27-.45-.42-.7Z"/><path class="cls-11" d="m181.08,81.33c-10.06,9.16-16.38,21.6-26.95,30.24-9.93,8.12-20.84,14.45-32.81,19-.47.18-.95.6-1.75.17,17.34-20.49,36.89-38.09,61.51-49.41Z"/><path class="cls-11" d="m256.15,412.66c-2.44-4.32-3.52-8.83-4.15-13.47-1.58-11.69.14-23.17,2.33-34.61,1.69-8.81,3.57-17.59,5.96-26.38,5.33,11.13,2.57,61.68-4.14,74.45Z"/><path class="cls-11" d="m251.07,76.38c-14.93,7.92-30.61,6.54-46.32,7.86,2.15-4.04,4.22-7.42,8.52-8.94,10.4-3.68,20.84-3.38,31.36-.68,1.93.5,3.84,1.05,6.44,1.76Z"/><path class="cls-11" d="m218.66,352.39c6.22-15.7,15.82-28.37,31.61-35.53,1.69-.77,1.91-.02,1.75,1.31-.07.6-.34,1.22-.65,1.75-8.02,13.7-19.86,23.57-32.72,32.47Z"/><path class="cls-2" d="m143.94,181.95c-7.71,14.14-19.04,28.55-27.07,31.34,1.23-3.8,2.97-7.14,4.89-10.38,4-6.75,8.46-13.15,14.7-18.08,2.16-1.7,4.55-2.84,7.48-2.88Z"/><path class="cls-2" d="m102.69,144.86c12.85-.03,24.74,4.51,37.82,7.5-2.09,1.02-3.36,1.94-4.08,3.39-.34.69-.93.67-1.62.67-11.61.07-21.76-4.24-31.29-10.4-.35-.23-.85-.37-.84-1.16Z"/><path class="cls-2" d="m170.94,266.11c.28,4.57.55,8.6.76,12.63.04.87-.6,1.5-1.18,2.07-3.18,3.09-6.4,6.14-9.56,9.25-1.06,1.05-1.6.93-2.41-.37-3.39-5.46-3.43-5.86.59-10.83,3.52-4.35,7.2-8.55,11.81-12.75Z"/><path class="cls-2" d="m152.29,318.2c8.84-.45,14.91,4.04,19.49,11.13.44.69,1.02,1.47.4,2.22-.54.65-1.36.12-2.03-.06-4.67-1.26-8.97-3.42-13.36-5.38-2.73-1.22-5.48-2.41-8.25-3.52-1.05-.42-2.08-.63-1.77-2.18.29-1.44.85-2.34,2.5-2.22.99.07,2,.01,3.03.01Z"/><path class="cls-10" d="m213.87,24.98c-.32,3.52-1.33,6.68-2.13,9.88-2.03,8.09-4.64,15.99-7.9,23.67-.41.96-.55,2.66-2.3,1.92-1.58-.67-.45-1.93-.23-2.82,2.5-10.42,5.97-20.5,10.73-30.12.42-.85.62-1.89,1.83-2.54Z"/><path class="cls-10" d="m127.27,171.74c-9.62,1.33-18.61.29-27.73-1.12,5.24-4.29,20.63-3.78,27.73,1.12Z"/><path class="cls-10" d="m157.57,141.79c.67,3.22-1.66,16.73-3.92,22.7-2.22-3.13.28-17.64,3.92-22.7Z"/><path class="cls-1" d="m258.95,273.42c1.57,6.85,1.29,13.71,1.03,20.57-.02.45-.05,1.04-.56,1.11-.58.08-.96-.4-1.19-.92-.07-.16-.13-.35-.13-.52.13-6.77-.68-13.57.85-20.24Z"/><path class="cls-7" d="m124.4,729.32c-.24-6.75-1.38-13.4-2.09-20.1-.26-2.5-.46-5.02-.68-7.53,1.8.61,1.3,2.39,1.4,3.5.71,8.25,2.31,16.42,2.44,24.73-.35-.04-.7-.07-1.05-.11.03-.17.02-.33-.02-.5Z"/><path class="cls-7" d="m119.16,687.33c1.03-.89.88-2.1.87-3.26,0-5.23,0-10.45,0-15.68.18-.03.37-.05.55-.08.82,1.33.52,2.81.52,4.24.03,4.07.02,8.14,0,12.21,0,.97.24,2.01-.5,2.86-.48-.1-.96-.19-1.44-.29Z"/><path class="cls-7" d="m104.84,695.01c-2.67-1.94-2.4-5.74.54-7.57-1.63,2.42-1.71,4.95-.54,7.57Z"/><path class="cls-7" d="m106.91,686.21c1.62-1.9,3.58-2.13,6-.68-2.04-.17-4.06-.07-6,.68Z"/><path class="cls-7" d="m101.69,718.51c1.19,1.34.7,3.19,1.45,4.67-2.32-.98-1.16-3.05-1.45-4.67Z"/><path class="cls-9" d="m122.15,817.25c2.76-.05,5.53-.45,8.25.35-2.76.17-5.53.37-8.25-.35Z"/><path class="cls-9" d="m122.18,636.48c-2.54.33-5.09.61-7.6-.21,2.54-.11,5.08-.22,7.6.21Z"/><path class="cls-7" d="m98.4,674.34c.25,1.62,1.65,3.14.4,4.88-.5-1.6-.52-3.23-.4-4.88Z"/><path class="cls-7" d="m97.85,666.7c.26,1.62,1.65,3.14.4,4.88-.5-1.6-.53-3.23-.4-4.88Z"/><path class="cls-7" d="m99.49,689.61c.48,1.42,1.61,2.77.38,4.34-.51-1.41-.51-2.87-.38-4.34Z"/><path class="cls-7" d="m100.59,704.33c.47,1.41,1.57,2.77.39,4.33-.47-1.41-.53-2.86-.39-4.33Z"/><path class="cls-7" d="m98.96,682.52c.46,1.41,1.58,2.77.38,4.33-.47-1.41-.52-2.86-.38-4.33Z"/><path class="cls-7" d="m100.05,697.24c.76,1.21,1.47,2.41.35,3.79-.48-1.23-.49-2.51-.35-3.79Z"/><path class="cls-7" d="m117.87,728.26c1.44-.42,2.7-.11,3.78.93-1.31-.11-2.6-.29-3.78-.93Z"/><path class="cls-7" d="m101.13,711.42c.37,1.24,1.58,2.41.36,3.8-.5-1.23-.48-2.51-.36-3.8Z"/><path class="cls-9" d="m128.74,846.13c2.02-.05,4.06-.41,6.03.38-2.03.16-4.05.32-6.03-.38Z"/><path class="cls-7" d="m114.57,699.4c-.94-.18-2.18.6-2.73-.85.95.17,1.93.22,2.73.85Z"/><path class="cls-7" d="m118.43,700.48c-.96-.17-2.21.62-2.77-.84.95.17,1.95.22,2.77.84Z"/><path class="cls-7" d="m113.99,727.24c.96.16,2.2-.63,2.78.82-.97-.14-1.96-.2-2.78-.82Z"/><path class="cls-9" d="m123.82,780.69c1.3-.08,2.63-.39,3.85.37-1.31.13-2.62.26-3.85-.37Z"/><path class="cls-7" d="m109.66,666.71c-.91.89-1.47-.03-2.14-.4.76-.1,1.48,0,2.14.4Z"/><path class="cls-7" d="m112.96,667.22c-.74,0-1.53.25-2.17-.35.76-.1,1.5-.06,2.17.35Z"/><path class="cls-7" d="m116.75,667.78c-.73,0-1.5.23-2.13-.35.75-.11,1.47-.05,2.13.35Z"/><path class="cls-7" d="m114.05,685.71c.65-.74.91-.33,1.08.36-.44.11-.78-.05-1.08-.36Z"/><path class="cls-9" d="m117.89,654.85c.58-.32,1.13-.38,1.6.21-.56.14-1.1.16-1.6-.21Z"/><path class="cls-7" d="m106.39,666.14c-.57.03-1.15.13-1.6-.35.58-.11,1.13-.05,1.6.35Z"/><path class="cls-9" d="m127.14,743.56c-.63.18-1.22.17-1.66-.41.62-.12,1.2-.12,1.66.41Z"/><path class="cls-7" d="m110.7,698.33c-.33-.1-.65-.2-.98-.31.4-.12.72-.01.98.31Z"/><path class="cls-7" d="m120.57,701.04c-.35-.11-.7-.22-1.05-.34.42-.11.78-.03,1.05.34Z"/><path class="cls-7" d="m110.32,726.1c.32.13.64.26.96.39-.41.1-.73-.05-.96-.39Z"/><path class="cls-7" d="m111.95,726.64c.32.12.64.24.96.36-.4.11-.72-.03-.96-.36Z"/><path class="cls-9" d="m124.4,729.32c.04.17.05.33.02.5-.4-.08-.8-.15-1.2-.23-.15-.02-.28-.09-.38-.21.52-.02,1.04-.04,1.55-.06Z"/><path class="cls-7" d="m116.26,686.3c.34.12.67.24,1.01.36-.42.1-.76,0-1.01-.36Z"/><path class="cls-7" d="m100.29,663.99c-.15-.14-.31-.27-.46-.41.31-.04.45.11.46.41Z"/><path class="cls-7" d="m101,664.48c-.21-.14-.41-.28-.62-.42.21.14.41.28.62.42Z"/><path class="cls-7" d="m102.09,665.03c-.19-.11-.38-.22-.57-.34.3-.08.5.03.57.34Z"/><path class="cls-7" d="m103.73,665.57c-.19-.08-.37-.16-.56-.24.28-.13.46-.04.56.24Z"/><path class="cls-7" d="m106.48,686.46c.07-.1.17-.16.3-.18,0,0-.08.22-.08.22l-.22-.04Z"/><path class="cls-7" d="m105.82,696.14c-.17-.17-.34-.35-.51-.52.17.17.34.35.51.52Z"/><path class="cls-7" d="m107.42,697.24c-.15-.1-.29-.19-.44-.29.15.1.29.19.44.29Z"/><path class="cls-7" d="m108.61,697.76c-.18-.1-.36-.2-.54-.3.29-.1.47,0,.54.3Z"/><path class="cls-7" d="m104.16,723.43c.19.1.39.21.58.31-.3.09-.49,0-.58-.31Z"/><path class="cls-7" d="m105.35,723.94c.16.1.32.2.47.3-.16-.1-.32-.2-.47-.3Z"/><path class="cls-7" d="m106.46,724.48c.15.1.3.2.45.29-.15-.1-.3-.2-.45-.29Z"/><path class="cls-7" d="m107.59,725.01c.16,0,.29.08.39.21-.26.17-.33,0-.39-.21Z"/><path class="cls-7" d="m109.04,725.62c.2.1.4.2.6.3-.3.1-.5,0-.6-.3Z"/><path class="cls-7" d="m122.85,729.38c.1.12.23.19.38.21-.15-.07-.29-.13-.44-.2h.06Z"/></g></svg>