<?xml version="1.0" encoding="UTF-8"?><svg xmlns="http://www.w3.org/2000/svg" viewBox="0 0 460.88 722.79"><defs><style>.cls-1{fill:#fdece2;}.cls-1,.cls-2,.cls-3,.cls-4,.cls-5,.cls-6,.cls-7,.cls-8,.cls-9,.cls-10{stroke-width:0px;}.cls-11{isolation:isolate;}.cls-2{fill:#95c9ed;}.cls-3{fill:#fff;}.cls-4{fill:#fce3d3;}.cls-12{mix-blend-mode:multiply;opacity:.5;}.cls-5{fill:#f39e6c;}.cls-6{fill:#554742;}.cls-7{fill:#ad435c;}.cls-8{fill:#c8bbb4;}.cls-9{fill:#391c0b;}.cls-10{fill:#d8ebea;}</style></defs><g class="cls-11"><g id="_레이어_2"><g id="_레이어_1-2"><path class="cls-4" d="m288.94,271.09l-36.64-13.37c8.72-23.91,18.32-50.57,20.16-56.25.98-7.07,4.24-27.69,15.03-94.43l38.5,6.22c-5.36,33.16-13.95,86.63-15,93.97-.3,3.82-2.71,10.84-22.05,63.86Zm-16.56-69.08c-.16.8-.32,1.91-.35,3.21.02-.51.08-1.27.35-3.21Z"/><path class="cls-9" d="m292.52,278.79l-47.91-17.48,2.06-5.64c8.13-22.27,17.71-48.87,19.92-55.55.99-7.01,3.9-25.48,14.98-94.03l.96-5.92,50.35,8.14-.96,5.92c-5.2,32.16-13.8,85.72-14.96,93.69-.38,4.47-2.06,9.56-22.38,65.24l-2.06,5.64Zm-32.53-24.64l25.37,9.26c15.39-42.19,19.41-53.56,19.65-56.63l.04-.38c1-6.97,8.78-55.43,14.06-88.16l-26.65-4.31c-10.56,65.34-13.17,82.05-14.05,88.38l-.07.52h0c-.18,1.34-.28,2.22-.29,2.6l-.56-.02c-2.71,7.94-10.37,29.2-17.48,48.74Z"/><path class="cls-1" d="m283.22,102.31l-16.74-6.83L315.96,6.29s23.54,1.16,20.98,22.47c-2.56,21.3-9.83,44.64-9.83,44.64l5.38,19.2c.41,1.47.23,3.06-.52,4.4-10.59,18.89-27.61,24.07-43.82,27.13-3.85.73-7.3-2.49-6.82-6.38l1.9-15.42Z"/><path class="cls-9" d="m287.08,130.21c-2.98,0-5.89-1.13-8.09-3.19-2.73-2.56-4.09-6.31-3.63-10.03l1.34-10.86-18.75-7.65L312.52.11l3.73.18c1.41.07,13.94.94,21.53,9.93,4.31,5.11,6.03,11.59,5.11,19.25-2.22,18.5-7.79,38.12-9.54,43.99l4.91,17.51c.84,2.99.45,6.25-1.07,8.95-11.6,20.68-29.9,26.68-47.94,30.09-.72.14-1.45.2-2.18.2Zm-12.08-37.73l14.73,6-2.42,19.67c17.39-3.31,30.74-8.7,39.38-24.04l-5.84-20.82.53-1.7c.07-.23,7.14-23.08,9.6-43.57.51-4.26-.25-7.54-2.34-10.04-2.41-2.88-6.39-4.42-9.47-5.15l-44.17,79.63Z"/><path class="cls-8" d="m315.66,7.95c11.4,7.9-5.13,20.84-18.66,44.3-13.53,23.46-28.72,44.91-38.58,39.65s2.07-30.97,17.25-52.9c15.18-21.93,28.59-38.95,39.99-31.05Z"/><path class="cls-9" d="m261.62,98.75c-2.04,0-4.05-.49-6.04-1.55-3.19-1.7-5.36-4.6-6.27-8.37-3.61-14.91,13.78-42.19,21.42-53.23,8.44-12.19,15.47-21.58,22.33-27.76,11.84-10.66,20.68-8.5,26.01-4.82,3.48,2.41,5.56,5.46,6.2,9.08,1.32,7.55-3.93,14.93-11.19,25.15-3.73,5.24-7.96,11.18-11.89,18-12.65,21.95-27.09,43.49-40.56,43.5Zm48.06-86.74c-1.74,0-4.41.98-8.6,4.75-6.35,5.72-13.61,15.72-20.5,25.67-18.32,26.46-21.26,42.1-19.39,44.17.1.06,7.58,2.58,30.59-37.33,4.22-7.31,8.62-13.5,12.5-18.96,4.5-6.33,9.61-13.51,9.15-16.13-.08-.46-.87-1.05-1.21-1.28h0c-.49-.34-1.27-.88-2.55-.88Z"/><path class="cls-4" d="m382.01,263h-39v-43.33c0-7.55-2.65-14.91-7.46-20.72l-47.45-57.34,30.04-24.87,47.45,57.34c10.59,12.79,16.42,28.98,16.42,45.58v43.33Z"/><path class="cls-9" d="m388.01,269h-51v-49.33c0-6.15-2.16-12.15-6.08-16.89l-51.28-61.96,39.29-32.52,51.28,61.96c11.47,13.86,17.79,31.41,17.79,49.41v49.33Zm-39-12h27v-37.33c0-15.21-5.34-30.04-15.04-41.76l-43.62-52.71-20.8,17.21,43.62,52.71c5.7,6.89,8.84,15.6,8.84,24.54v37.33Z"/><path class="cls-1" d="m291,160.43l-26.02-29.23,76.28-67.72s21.82,8.91,12.34,28.16c-6,12.18-14.06,24.5-19.16,31.91-2.76,4-2.08,9.43,1.58,12.62h0c5.51,4.81,7.1,12.76,3.8,19.28-4.79,9.46-13.95,15.4-26.64,18.48-6.1,1.49-12.5-.89-16.32-5.87l-5.86-7.63Z"/><path class="cls-9" d="m309.53,180.37c-6.7,0-13.18-3.13-17.42-8.65l-5.73-7.46-29.87-33.55,83.56-74.19,3.46,1.41c1.3.53,12.84,5.51,17.02,16.51,2.37,6.25,1.85,12.93-1.57,19.85-6.03,12.24-13.99,24.52-19.6,32.66-1.03,1.49-.77,3.51.59,4.7,7.61,6.64,9.75,17.54,5.2,26.51-5.43,10.72-15.72,17.99-30.57,21.6-1.68.41-3.39.61-5.08.61Zm-36.07-48.67l22.3,25.08,5.86,7.63c2.42,3.15,6.4,4.61,10.14,3.69,11.45-2.79,18.88-7.81,22.7-15.37,2.06-4.07,1.08-9.02-2.39-12.05-5.96-5.2-7.07-14.04-2.58-20.55,5.39-7.81,13.01-19.56,18.72-31.15,1.9-3.85,2.27-7.2,1.13-10.24-1.32-3.52-4.56-6.29-7.22-8l-68.66,60.96Z"/><path class="cls-8" d="m340.42,64.95c8.14,11.23-11.76,17.95-32.31,35.6s-42,32.83-49.55,24.59,12.23-28.52,33.83-44.17,39.9-27.25,48.03-16.02Z"/><path class="cls-9" d="m264.16,133.44c-3.91,0-7.31-1.29-10.02-4.25-2.44-2.67-3.53-6.12-3.14-9.98,1.55-15.26,27-35.23,37.87-43.1,18.56-13.44,43.97-31.85,56.41-14.68h0c2.48,3.43,3.44,7,2.83,10.62-1.26,7.56-8.66,12.78-18.91,20.01-5.26,3.71-11.22,7.91-17.19,13.04-16.94,14.55-35.09,28.34-47.86,28.34Zm67.02-66.92c-7.42,0-21.13,9.06-35.27,19.31-26.06,18.88-34.03,32.66-32.96,35.23.08.09,6.29,4.96,41.25-25.06,6.4-5.5,12.61-9.88,18.09-13.74,6.35-4.48,13.55-9.56,13.99-12.17.08-.46-.47-1.28-.71-1.61h0c-.97-1.34-2.47-1.95-4.38-1.95Z"/><path class="cls-9" d="m234.86,301.34l-1.54-33.64s38.85-27.76,77.35-12.99c0,0,23.82-22.36,57.71-4.33s40.31,34.43,40.31,34.43l-19.6,72s0-47.41-68.08-39.56-86.14-15.91-86.14-15.91Z"/><path class="cls-9" d="m389.08,362.81c-.26,0-.53-.02-.8-.05-2.98-.4-5.21-2.94-5.21-5.95,0-.52-.29-13.65-11.46-23.49-10.56-9.31-27.37-12.71-49.94-10.11-70.67,8.13-90.78-17.16-91.61-18.23-.74-.97-1.16-2.14-1.22-3.36l-1.54-33.64c-.09-2.03.85-3.97,2.51-5.16,1.65-1.18,39.78-27.94,79.62-14.91,11.04-8.32,34.61-17.27,61.74-2.83,34.85,18.54,42.34,35.65,43.08,37.54.47,1.2.54,2.52.2,3.76l-19.6,72c-.72,2.64-3.11,4.42-5.78,4.42Zm-53.6-52.44c18.88,0,33.73,4.73,44.27,14.12,3.88,3.46,6.77,7.21,8.94,10.9l13.58-49.88c-2.52-4.16-11.57-16.44-36.72-29.82-29.49-15.69-49.95,2.64-50.81,3.43-1.68,1.54-4.11,2.03-6.24,1.21-29.48-11.32-60,5.02-69.05,10.55l1.28,27.92c4.83,4.29,25.48,18.73,79.57,12.5,5.31-.61,10.38-.92,15.17-.92Z"/><path class="cls-2" d="m442.16,504.75c-11.18-11.16-43.83-24.81-74.4-35.89l30.58-106.7s-6.42-33.15-45.27-54c-38.85-20.85-112.79,1.83-112.79,1.83l64.03,138.61-221.19,35.44-62.91,67.19c-2.32,2.48-3.61,5.75-3.61,9.15v16.39c0,6.44,4.62,11.94,10.96,13.05l93.81,16.43,34.23-44.7,148.28-13.22,45.45,33.25s80.01,31.49,100.68-30.33c0,0,15.08-23.57-7.87-46.48Z"/><path class="cls-9" d="m123.93,612.77l-97.4-17.05c-9.23-1.62-15.93-9.59-15.93-18.96v-16.39c0-4.94,1.86-9.64,5.23-13.25l64.31-68.69,215.4-34.51-63.59-137.66,6.57-2.02c3.12-.96,76.8-23.17,117.39-1.38,40.89,21.95,48.04,56.68,48.32,58.15l.27,1.41-29.44,102.71c37.83,13.98,61.82,25.87,71.33,35.36,20.39,20.36,15.06,43.35,9.09,53.3-5.73,16.64-16,28.51-30.53,35.29-32.96,15.38-76-1.23-77.81-1.94l-.72-.28-44.25-32.38-143.41,12.78-34.84,45.5Zm-37.83-123.14l-61.5,65.69c-1.29,1.37-1.99,3.17-1.99,5.05v16.39c0,3.53,2.52,6.53,6,7.14l90.23,15.8,33.62-43.91,153.16-13.65,46.61,34.1c5.37,1.96,41.48,14.23,67.7,1.97,11.61-5.43,19.82-15.14,24.42-28.87l.24-.71.4-.63c.48-.78,12.05-19.93-7.06-39h0c-5.98-5.96-23.35-16.79-72.2-34.5l-5.27-1.91,31.7-110.58c-1.6-6.05-10.02-31.45-41.91-48.57-29.69-15.94-82.91-4.37-101.54.45l64.39,139.37-226.98,36.37Z"/><path class="cls-3" d="m75.59,606.32c34.69,7.06,123.61,8.13,236.74,6.52l22.79-3.26,7.6,19.29,3.6,87.79-84.3-1.7h-132.33l-85.73-3.8-32.92-9.28,14.35-15.61,14.35-19.41,26.16-42.62,9.71-17.91Z"/><path class="cls-9" d="m352.56,722.79l-90.62-1.83h-132.54s-86.43-3.83-86.43-3.83l-42.98-12.12,20.73-22.56,14-18.95,25.94-42.26,11.75-21.68,4.35.89c30.5,6.21,105.2,8.25,235.08,6.4l27.1-3.88,9.7,24.65,3.9,95.17Zm-222.76-13.83h132.32s77.93,1.57,77.93,1.57l-3.29-80.4-5.49-13.94-18.86,2.65c-125.24,1.79-199.88-.06-233.63-5.82l-7.79,14.35-26.3,42.84-14.91,20.11-7.75,8.43,22.86,6.45,84.91,3.76Z"/><path class="cls-6" d="m311.67,375.87s36.41,2.15,43.02-16.39c6.62-18.54-8.24-29.16,4.3-29.36,12.53-.21,92.43,2.04,27.52-67.78,0,0,5.57,21.02-2.09,28-7.66,6.98-57.79-26.27-82.94.09-25.15,26.36,5.95,39.42,3.3,43.14-2.65,3.72-28.56,22.15-23.02,36.51s29.91,5.79,29.91,5.79Z"/><path class="cls-9" d="m297.2,384.44c-8.78,0-17.46-2.9-21.04-12.21-5.88-15.24,11.25-30.75,20.45-39.09.16-.14.32-.29.49-.44-6.41-6.44-22.32-22.97.04-46.41,19.07-19.99,49.03-10.78,68.85-4.69,5.21,1.6,12.26,3.77,14.87,3.74,2.37-3.4,1.9-13.67-.15-21.48-.7-2.66.5-5.46,2.91-6.78,2.41-1.33,5.41-.85,7.29,1.17,22.77,24.49,30.88,43.25,24.8,57.34-8.7,20.16-42.28,20.41-54.93,20.5-.15,0-.3,0-.44,0,.06.22.11.43.16.62,1.38,5.22,3.69,13.96-.17,24.77-7.39,20.71-40.2,20.71-47.83,20.42-4.34,1.4-9.84,2.53-15.31,2.53Zm31.21-98.35c-8.59,0-16.58,2.18-22.59,8.47-14.57,15.27-6.82,23.04,0,29.89,2.97,2.99,7.47,7.5,3.83,12.59-.88,1.24-2.24,2.49-4.99,4.98-5.53,5.01-20.23,18.33-17.32,25.88,3.27,8.48,22.14,2.35,22.33,2.28.75-.26,1.54-.37,2.33-.33,8.29.46,32.87-.79,37.02-12.42,2.61-7.31,1.09-13.05-.13-17.67-1.07-4.03-2.17-8.2.61-11.87,2.51-3.32,6.55-3.76,9.37-3.81.5,0,1.11-.01,1.8-.02,25.48-.19,40.29-4.65,44-13.25,2.83-6.57-.83-16.92-10.38-29.88-.5,5.27-2.11,10.4-5.85,13.81-5.16,4.7-13.45,2.15-26-1.7-10.26-3.16-22.69-6.97-34.06-6.97Z"/><ellipse class="cls-4" cx="89.16" cy="495.21" rx="24.24" ry="28.4"/><path class="cls-9" d="m89.16,529.6c-16.67,0-30.24-15.43-30.24-34.4s13.56-34.4,30.24-34.4,30.24,15.43,30.24,34.4-13.56,34.4-30.24,34.4Zm0-56.79c-10.06,0-18.24,10.05-18.24,22.4s8.18,22.4,18.24,22.4,18.24-10.05,18.24-22.4-8.18-22.4-18.24-22.4Z"/><ellipse class="cls-4" cx="325.12" cy="523.6" rx="28.4" ry="24.24" transform="translate(-288 460.82) rotate(-52.32)"/><path class="cls-9" d="m321.12,556.5c-6.11,0-12.06-1.84-17.03-5.67-6.54-5.05-10.37-12.69-10.8-21.51-.41-8.47,2.39-17.06,7.9-24.19,11.59-15.01,31.76-18.93,44.96-8.74,13.19,10.19,14.5,30.7,2.9,45.71-7.23,9.36-17.8,14.41-27.93,14.41Zm7.93-53.83c-6.49,0-13.49,3.47-18.37,9.79-3.76,4.87-5.69,10.65-5.41,16.27.26,5.26,2.44,9.74,6.15,12.6,7.96,6.15,20.58,3.2,28.12-6.58,7.55-9.77,7.21-22.72-.74-28.87-2.81-2.17-6.21-3.21-9.76-3.21Z"/><path class="cls-4" d="m87.38,466.81l7.49,46.69s-34.57,34.57,14.97,54.89c49.54,20.32,152.2,39.21,201.03-22.81,48.83-62.02,46.34-128.32,46.34-128.32,0,0-1.43-90.89-116.91-107.29s-168.95,80.91-152.91,156.83Z"/><path class="cls-9" d="m208.02,593.87c-38.47,0-76.36-10.04-100.47-19.93-17.36-7.12-27.41-16.92-29.86-29.13-2.96-14.72,6.39-27.94,10.79-33.19l-7.01-43.73c-9.32-44.34,3.83-92.13,34.34-124.75,14.44-15.45,32-26.74,52.17-33.56,22.03-7.45,46.64-9.32,73.14-5.55,62,8.8,91.9,38.93,106.07,62.66,15.17,25.41,15.96,48.67,16,50.41.12,3.56,1.7,69.56-47.62,132.2-26.46,33.6-67.33,44.58-107.55,44.58Zm6.86-279.75c-45.15,0-73.66,19.42-90.3,37.23-27.48,29.4-39.78,74.23-31.33,114.22l.05.29,7.97,49.72-2.17,2.17c-.11.11-12.14,12.45-9.64,24.75,1.63,8.01,9.25,14.85,22.64,20.34,11.03,4.52,50.04,19.04,95.67,19.04.92,0,1.83,0,2.76-.02,42.98-.55,75.15-14.01,95.61-39.99,46.79-59.42,45.08-123.74,45.05-124.39v-.12c0-.2-.6-21.86-14.6-45.01-18.71-30.95-51.4-49.93-97.15-56.43-8.69-1.23-16.87-1.8-24.56-1.8Z"/><path class="cls-6" d="m75.13,436.67s-14.72-106.36,102.43-138.34c121.9-33.27,172.99,48,182.5,79.84,9.5,31.84,16.63,67.96-12.36,130.69l-14.73,14.73-92.67-130.69-58.46-.48-98.7,55.58-8-11.35Z"/><path class="cls-9" d="m332.96,529.6c-.17,0-.34,0-.5-.02-1.76-.15-3.37-1.07-4.39-2.51l-90.9-128.19-53.79-.44-97.31,54.8c-2.68,1.51-6.07.75-7.85-1.77l-8-11.35c-.55-.78-.91-1.69-1.04-2.64-.16-1.14-3.75-28.41,7.58-60.03,10.48-29.25,36.21-67.73,99.21-84.92,124.99-34.12,179.41,49.01,189.82,83.91,9.87,33.06,17.02,70.71-12.66,134.93-.3.64-.7,1.23-1.2,1.73l-14.73,14.73c-1.13,1.13-2.66,1.76-4.24,1.76Zm-151.13-143.17h.05l58.46.47c1.93.02,3.73.96,4.85,2.53l88.56,124.9,8.95-8.95c27.43-59.86,21.15-93.53,11.61-125.49-5.01-16.77-20.25-42.83-46.76-61.11-34.26-23.63-77.47-28.56-128.41-14.66-46.39,12.66-76.97,38.54-90.91,76.93-9.11,25.1-7.82,47.73-7.3,53.43l3.98,5.64,93.98-52.92c.9-.51,1.91-.77,2.94-.77Z"/><path class="cls-6" d="m175.18,365.82s-101.23,42.3-124.04,112.16c0,0,94.57-27.09,151.13-78.42,0,0,76.51,52.75,133.54,124.04,0,0,9.5-78.89-95.52-147.8"/><path class="cls-9" d="m335.81,529.6c-1.79,0-3.53-.81-4.69-2.25-48.61-60.76-112.34-108.5-128.45-120.13-57.15,49.58-146.05,75.43-149.89,76.53-2.13.61-4.43,0-5.97-1.6-1.54-1.6-2.07-3.92-1.38-6.03,9.88-30.26,34.4-58.98,72.88-85.36,28.34-19.43,53.49-30.03,54.54-30.47,3.06-1.28,6.57.17,7.85,3.22,1.28,3.06-.16,6.57-3.22,7.85-.93.39-87.81,37.34-116.08,97.06,26.98-9.06,93.7-34.15,136.82-73.29,2.06-1.87,5.14-2.08,7.44-.5.72.5,68.19,47.34,123.49,111.58-1.03-7.75-3.19-17.79-7.62-29.27-9.58-24.82-32.02-61.65-84.55-96.11-2.77-1.82-3.54-5.54-1.73-8.31,1.82-2.77,5.54-3.54,8.31-1.73,55.6,36.48,79.34,75.95,89.47,102.63,11.15,29.38,8.83,50.04,8.72,50.91-.29,2.4-1.99,4.39-4.31,5.05-.54.15-1.1.23-1.64.23Z"/><g class="cls-12"><ellipse class="cls-5" cx="119.72" cy="536.45" rx="32.69" ry="28.1"/></g><g class="cls-12"><ellipse class="cls-5" cx="272.97" cy="539.22" rx="32.69" ry="28.1"/></g><ellipse class="cls-3" cx="254.03" cy="497.79" rx="32.38" ry="42.95" transform="translate(-245.61 748.15) rotate(-89.58)"/><path class="cls-9" d="m255.48,536.19c-.99,0-2-.01-3.04-.04-17.73-.5-30.73-5.06-38.64-13.57-6.23-6.7-9.16-15.54-8.69-26.26.93-21.1,23.62-37.63,50.51-36.89,15.19.43,29.02,6.17,37.95,15.77,6.43,6.91,9.76,15.45,9.38,24.06h0c-.61,13.94-7.67,36.93-47.47,36.93Zm-1.67-64.78c-19.76,0-36.08,11.2-36.71,25.44-.32,7.39,1.52,13.3,5.48,17.56,5.64,6.06,15.8,9.34,30.2,9.74,37.01,1.03,37.89-18.87,38.18-25.42.24-5.45-1.9-10.76-6.18-15.36-6.65-7.15-17.68-11.61-29.5-11.94-.49-.01-.99-.02-1.48-.02Z"/><ellipse class="cls-9" cx="254.22" cy="510.29" rx="40.4" ry="21.74" transform="translate(-32.12 17.31) rotate(-3.67)"/><ellipse class="cls-3" cx="149.3" cy="494.84" rx="32.38" ry="42.95" transform="translate(-346.62 640.51) rotate(-89.58)"/><path class="cls-9" d="m150.75,533.24c-.99,0-2-.01-3.04-.04-17.73-.5-30.73-5.06-38.64-13.57-6.23-6.7-9.16-15.54-8.69-26.26.91-20.63,22.6-36.91,48.73-36.91.59,0,1.18,0,1.77.02,15.19.43,29.02,6.17,37.95,15.77,6.43,6.91,9.76,15.45,9.38,24.06h0c-.61,13.94-7.67,36.93-47.47,36.93Zm-1.67-64.78c-19.76,0-36.08,11.2-36.71,25.44-.32,7.39,1.52,13.3,5.48,17.56,5.64,6.06,15.8,9.34,30.2,9.74,37.03,1.04,37.89-18.87,38.18-25.42.24-5.45-1.9-10.76-6.18-15.36-6.65-7.15-17.68-11.61-29.5-11.94-.49-.01-.99-.02-1.47-.02Z"/><ellipse class="cls-9" cx="149.49" cy="507.35" rx="40.4" ry="21.74" transform="translate(-32.15 10.6) rotate(-3.67)"/><path class="cls-3" d="m259.11,441.78s-32.85-1.07-45.3,13.19"/><path class="cls-9" d="m213.8,460.97c-1.4,0-2.8-.49-3.94-1.48-2.5-2.18-2.75-5.97-.58-8.47,13.91-15.94,46.35-15.36,50.01-15.24,3.31.11,5.91,2.88,5.8,6.19s-2.9,5.93-6.19,5.8c-8.37-.27-31.94,1.24-40.58,11.14-1.19,1.36-2.85,2.05-4.52,2.05Z"/><path class="cls-9" d="m176.54,454.37c-15.24,0-32.2-20.38-34.1-22.71-2.09-2.57-1.69-6.35.88-8.44,2.57-2.08,6.35-1.69,8.44.88h0c5.25,6.45,14.48,15.1,21.33,17.58l4.52-10.18c1.35-3.03,4.89-4.39,7.92-3.04,3.03,1.35,4.39,4.89,3.04,7.92l-6.42,14.43c-.95,2.14-3.06,3.53-5.4,3.56-.08,0-.15,0-.23,0Z"/><polyline class="cls-6" points="228.91 290.49 244.09 318.18 203.4 329.94 220.17 350.26"/><path class="cls-9" d="m220.18,356.26c-1.73,0-3.44-.74-4.63-2.18l-16.77-20.32c-1.29-1.56-1.7-3.66-1.11-5.59.6-1.93,2.12-3.43,4.07-3.99l33.49-9.68-11.58-21.12c-1.59-2.91-.53-6.55,2.38-8.15,2.91-1.59,6.55-.53,8.15,2.38l15.18,27.69c.88,1.6.98,3.5.28,5.19-.7,1.68-2.12,2.96-3.87,3.46l-31.91,9.23,10.96,13.27c2.11,2.56,1.75,6.34-.81,8.45-1.12.92-2.47,1.37-3.82,1.37Z"/><path class="cls-10" d="m186.53,653.63l.68,12.77c.21,3.88-3.99,6.43-7.34,4.45l-11.45-6.76-68.44-118.53c-3.14-5.43,14.97-15.89,18.11-10.46l68.44,118.53Z"/><path class="cls-9" d="m182.35,677.52c-1.91,0-3.82-.5-5.53-1.51l-12.81-7.56-69.22-119.9c-1.66-2.87-1.54-6.38.34-9.62,3.37-5.84,12.93-11.35,19.66-11.35h0c3.74,0,6.84,1.65,8.5,4.52l69.15,119.78.76,14.2c.21,4.01-1.79,7.79-5.22,9.87-1.73,1.05-3.68,1.58-5.64,1.58Zm-9.52-17.81l8.28,4.89-.49-9.22-66.8-115.71c-2.29.51-6.13,2.73-7.72,4.46l66.73,115.59Z"/><path class="cls-4" d="m74.13,569.61l47.25,36.62s18.29-15.93,31.85-7.56c9.34,5.77,20.2,14.71,26.05,19.72,2.9,2.48,4.33,6.3,3.66,10.05-1.24,6.91-4.28,10.03-8.79,10.04-2.12,0-4.17-.76-5.9-1.99l-18.82-13.29c11.39,7.93,19.08,17.36,13.9,32-3.47,16.78-16.85,21.25-41.74,11.43-6.57-2.59-12.12-7.26-15.83-13.26l-5.5-8.88-70.67-54.25c-9.84-9.31-6.69-26.06,6.09-30.53,4.46-1.56,9.57-1.71,15.19-.76,8.54,1.45,16.5,5.25,23.26,10.66Z"/><path class="cls-9" d="m143.68,677.79c-6.82,0-14.88-1.85-24.3-5.57-7.7-3.04-14.35-8.61-18.73-15.69l-4.92-7.95-70.05-53.77-.23-.21c-6.27-5.93-8.93-14.54-7.11-23.02,1.76-8.23,7.5-14.79,15.35-17.53,5.22-1.83,11.33-2.17,18.17-1.01,9.23,1.56,18.21,5.66,25.97,11.86l43.58,33.77c7.03-4.87,22.08-13.06,34.96-5.11,9.74,6.01,20.97,15.28,26.8,20.27,4.53,3.88,6.7,9.88,5.66,15.67-2.33,13-10.2,14.97-14.68,14.98h-.05c-1.08,0-2.15-.12-3.21-.35.3,3.81-.21,8.02-1.8,12.68-1.85,8.5-5.97,14.53-12.26,17.93-3.75,2.03-8.12,3.04-13.17,3.04Zm-110.18-92.1l71.27,54.71,6.07,9.82c3.03,4.89,7.62,8.74,12.93,10.84,12.54,4.95,22,6.03,27.36,3.14,3.17-1.71,5.23-5.05,6.3-10.2l.08-.4.14-.39c3.38-9.54.34-16.47-10.82-24.47l-.88-.62,6.89-9.83c.33.23.67.47,1.01.71l17.85,12.6c.81.57,1.67.89,2.42.89h0c.49,0,1.99,0,2.91-5.1.29-1.61-.34-3.31-1.66-4.43-5.56-4.76-16.25-13.59-25.3-19.17-7.99-4.93-20.88,3.6-24.76,6.98l-3.72,3.24-51.22-39.69c-6.18-4.94-13.27-8.2-20.52-9.43-4.82-.82-8.92-.65-12.21.5-3.93,1.37-6.69,4.55-7.58,8.71-.91,4.26.37,8.58,3.43,11.6Z"/><path class="cls-4" d="m373.97,562.48l-47.25,36.62s-18.29-15.93-31.85-7.56c-9.34,5.77-20.2,14.71-26.05,19.72-2.9,2.48-3.56,6.24-3.66,10.05-.48,19.22,36.47,48.01,61.36,38.19,6.57-2.59,12.12-7.26,15.83-13.26l5.5-8.88,70.67-54.25c9.84-9.31,6.69-26.06-6.09-30.53-4.46-1.56-9.57-1.71-15.19-.76-8.54,1.45-16.5,5.25-23.26,10.66Z"/><path class="cls-9" d="m315.54,667.47c-10.59,0-22.32-4.03-33.32-11.72-11.37-7.94-23.39-21.2-23.06-34.59.1-4.18.81-10.23,5.75-14.46,5.83-4.99,17.07-14.26,26.8-20.27,12.88-7.95,27.93.24,34.96,5.11l43.58-33.77c7.76-6.2,16.74-10.3,25.97-11.86,6.84-1.16,12.95-.82,18.17,1.01,7.85,2.75,13.59,9.3,15.35,17.53,1.81,8.48-.84,17.09-7.11,23.02l-.47.4-69.8,53.58-4.92,7.95c-4.38,7.08-11.03,12.65-18.73,15.69-4.06,1.6-8.51,2.39-13.18,2.39Zm-11.76-72.36c-2.03,0-3.99.44-5.76,1.53-9.04,5.58-19.73,14.41-25.3,19.17-.68.58-1.47,1.74-1.56,5.64-.17,6.9,7.21,16.96,17.94,24.46,9.68,6.77,24.02,12.42,35.22,8.01,5.31-2.1,9.9-5.94,12.93-10.84l6.08-9.82,71.27-54.71c3.06-3.02,4.34-7.34,3.43-11.6-.89-4.17-3.65-7.34-7.58-8.71-3.29-1.15-7.39-1.32-12.21-.5-7.24,1.23-14.34,4.49-20.52,9.43l-.07.06-51.15,39.64-3.72-3.24c-.11-.1-10.16-8.51-19-8.51Z"/><path class="cls-4" d="m176.92,555.08s33.33,12.48,57.21,3.03"/><path class="cls-9" d="m213.16,567.64c-19.48,0-37.3-6.56-38.34-6.94l4.21-11.24-2.1,5.62,2.1-5.62c.31.12,31.49,11.54,52.9,3.07l4.41,11.16c-7.35,2.91-15.4,3.95-23.18,3.95Z"/><path class="cls-7" d="m197.23,560.24s3.57-26.02,19.08-25.13c15.5.89,17.82,22.99,17.82,22.99-9.04,3.73-22.98,4.36-36.9,2.14Z"/><path class="cls-9" d="m213.02,567.54c-5.32,0-10.96-.45-16.73-1.37l-5.8-.92.8-5.82c1.61-11.71,8.78-31.25,25.36-30.3,16.26.93,22.39,18.26,23.45,28.35l.47,4.46-4.14,1.71c-6.23,2.57-14.35,3.89-23.4,3.89Zm-8.46-12.42c8.46.78,16.48.39,22.65-1.09-1.38-5.09-4.53-12.54-11.24-12.92-6.13-.34-9.66,8-11.41,14.02Z"/></g></g></g></svg>