<?xml version="1.0" encoding="UTF-8"?><svg id="_레이어_2" xmlns="http://www.w3.org/2000/svg" viewBox="0 0 251.36 368.53"><defs><style>.cls-1{fill:#694e39;}.cls-1,.cls-2,.cls-3,.cls-4,.cls-5,.cls-6,.cls-7,.cls-8,.cls-9,.cls-10,.cls-11,.cls-12,.cls-13{stroke-width:0px;}.cls-2{fill:#81b150;}.cls-3{fill:#5d4633;}.cls-4{fill:#684e38;}.cls-5{fill:#80b04f;}.cls-6{fill:#7ead4e;}.cls-7{fill:#684e39;}.cls-8{fill:#ae6d39;}.cls-9{fill:#684d38;}.cls-10{fill:#624935;}.cls-11{fill:#b8743d;}.cls-12{fill:#b4713c;}.cls-13{fill:#391c0b;}</style></defs><g id="_레이어_1-2"><path class="cls-13" d="m81.63,126.47c4.34.56,8.19.97,12.01,1.57,13.41,2.13,19.27,8.91,19.56,22.5.16,7.39-1.15,14.47-4.51,21.1-2.87,5.66-5.78,11.3-8.71,16.93-1.79,3.45-4.48,4.98-7.65,4.46-2.92-.47-5.34-2.83-5.76-6.44-.3-2.59-1.26-2.77-3.5-2.39-7.33,1.22-13.98,4.24-21.26,7.29,2.89.96,5.24,1.7,7.57,2.51,5.48,1.9,9.69,5.25,12.06,10.68,1.29,2.95,1.61,5.85-.66,8.43-2.18,2.48-5.01,2.74-8,1.74-5.6-1.88-11.39-2.15-17.34-2.14.09,1.14,1.12,1.12,1.71,1.45,3.92,2.2,7.51,4.78,10.29,8.36,4.27,5.48,2.83,10.88-3.79,12.98-10.1,3.21-19.57,7.66-28.55,13.24-7.01,4.36-12.91,9.62-16.1,17.53-1.39,3.44-4,4.79-7.05,4.38-2.97-.4-5.1-2.62-5.65-6.14C3.51,246.39.18,228.33.03,209.9c-.15-18.1.19-36.17,4.55-53.89,4.33-17.58,15.1-29.26,32.37-34.72,6.25-1.97,12.92-2.89,18.86.34,3.65,1.99,5.61,1.08,8.63-.87,11.27-7.25,23.43-11.6,37.12-9.15,7.72,1.38,14.7,4.55,20.88,9.44.75.59,1.35,1.47,2.71,1.63-.47-9.23-.92-18.36-1.39-27.49-.05-1-.33-2.01-.2-2.99.52-4.17-1.66-6.29-5.28-7.67-3.48-1.33-7.01-2.49-10.57-3.58-.9-.28-1.61-.46-2.3.62-8.23,12.87-20.69,15.16-34.59,13.64-19.01-2.09-30.91-13.69-38.25-30.19-7.47-16.79-11.97-34.6-15.26-52.67-1.08-5.91,2.91-10.72,8.92-10.15,9.04.84,18.07,2.17,25.93,7.33,1.72,1.13,3.61,1.7,5.55,2.16,5.41,1.27,10.73,3.04,15.63,5.5,5.21,2.61,10.5,5.45,14.53,9.92,3.35,3.71,7.32,6.38,12.03,8.18,5.28,2.02,9.87,5.37,14.49,8.58,1.62,1.13,3.22,2.3,5.24,3.74,0-1.37.04-2.32,0-3.26-.47-10.17-.64-20.34-.53-30.52.02-1.74.21-3.43,1.07-5,1.66-3.01,4.68-4.25,7.84-2.97,1.28.52,2.29.41,3.59.07C142.83,3,154.17.47,165.83.01c6.31-.25,9.57,3.22,9.68,9.46.13,7.81,1.16,15.59.96,23.41-.02.86.24,1.5.91,2.14,2.31,2.22,2.92,5.2,1.35,7.72-2.41,3.89-2.06,7.96-2.07,12.1,0,1.97,0,3.95,0,6.31,1.07-.99,1.12-1.95,1.39-2.8,4.49-14.09,8.81-28.26,16.01-41.29,1.4-2.54,2.99-4.98,4.6-7.39,1.07-1.59,2.46-2.93,4.29-3.68,2.6-1.07,5.47-.43,7.21,1.59,1.64,1.9,2.04,4.89.54,7.13-13.75,20.5-19.35,44.04-25.01,67.49-4.17,17.26-5.5,34.96-7,52.61-1.17,13.78-1.5,27.59-1.01,41.4.27,7.62.94,15.23,1.49,22.84.13,1.77-1,4.18.2,5.12,1.14.89,3.47.24,5.28.28,11.9.29,23.79.48,35.49,3.12,6.8,1.54,12.43,4.45,15.03,11.52.72,1.96.87,3.88.74,5.87-1.24,18.67-2.72,37.32-5.16,55.89-1.19,9.09-2.24,18.21-3.43,27.3-.21,1.61.22,2.04,1.81,1.96,4.59-.21,8.15,1.7,11.74,4.66,2.6,2.14,4.88,4.65,7.61,6.62,2.79,2.01,3.76,5.54,1.96,8.71-4.55,7.97-9.5,15.68-15.88,22.38-5.18,5.44-11.91,7.24-18.91,8.8-18.05,4.02-36.33,6.11-54.77,7-4.54.22-9.08.07-13.59-.57-2.14-.31-4.13-.45-6.35.36-3.12,1.15-6.35-.09-9.25-1.3-5.95-2.48-11.73-5.39-16.56-9.8-3.25-2.97-6.84-5.39-10.77-7.33-5.4-2.66-10.11-6.41-15.15-9.64-2.24-1.44-3.92-3.5-4.95-6.02-2.11-5.16-.98-9.43,3.49-12.74,4.39-3.26,9.49-4.84,14.72-6.11,1.93-.47,3.81-1.18,5.76-1.6,1.71-.37,1.87-1.22,1.44-2.73-6.75-24.12-11.71-48.67-17.57-73-.61-2.55-1.17-5.15-.41-7.8.15-.53.04-1.03-.19-1.57-1.86-4.4-.42-7.84,4.27-9.59,3.22-1.2,6.57-2.08,9.88-3.03,7.06-2.02,14.06-4.22,20.94-6.82,1.47-.56,1.98-1.19,1.79-2.74-2.6-21.24-2.74-42.6-2.83-63.95,0-1.29-.41-2.2-1.42-3.04-3.01-2.49-5.88-5.15-8.89-7.63-9.91-8.16-22.69-10.22-33.62-5.16Zm82.7,208.89c0-.24,0-.48,0-.71,6.53,0,13.08.22,19.6-.08,4.49-.2,9.1-.04,13.4-1.94,3.9-1.73,7.84-3.39,11.83-4.88,2.38-.89,3.71-2.11,3.5-4.88-.13-1.68.39-3.41.6-5.12,2.1-16.93,4.33-33.85,6.24-50.8,1.23-10.91,1.94-21.88,3.03-32.8.22-2.25-.13-2.67-2.37-2.09-12.61,3.27-25.48,5.03-38.46,5.53-17.96.7-35.86,2.43-53.82,3.08-6.57.24-13.29.32-19.63-2.17-.74-.29-1.67-.89-2.32-.41-.86.65-.21,1.68-.01,2.53,1.88,8.04,3.8,16.07,5.64,24.12,4.57,20,8.92,40.05,15.69,59.46.3.85.46,1.97,1.08,2.45,4.23,3.3,8.54,6.84,14.01,7.44,7.29.81,14.64,1.41,22.01,1.27ZM16.47,246.87c10.64-9.25,22.49-15.57,35.34-20.93-2.55-1.62-5.04-2.36-7.55-3.08-3.26-.94-6.69-.68-9.96-1.43-5.47-1.26-7.37-6.86-3.83-11.2,1.56-1.92,3.6-3.32,5.65-4.67,3.66-2.42,7.76-3.85,12.35-5.07-1.19-.38-1.94-.61-2.69-.85-3.38-1.08-6.26-2.77-6.68-6.68-.42-3.96,2.03-6.33,5.26-7.78,11.25-5.07,22.39-10.46,34.54-13.1,4.6-1,9.31-1.92,13.88.29.97.47,1.3-.07,1.67-.74,4.15-7.43,7.08-15.14,5.65-23.9-.71-4.34-1.77-5.59-6.05-6.56-6.96-1.59-14.03-2.1-21.12-1.44-5.05.46-10.12,1.2-14.68,3.72-5.44,3-10.18,6.94-14.8,11.05-2.08,1.84-4.18,3.7-6.82,4.72-.41-.62-.26-1.11-.15-1.66,1.68-8.54,6.54-15.44,11.46-22.31.49-.68,1.74-1.2,1.2-2.16-.46-.84-1.66-.59-2.54-.51-10.74.98-19.14,6.02-24.94,15.03-4.06,6.3-5.59,13.59-6.61,20.89-3.1,22.07-3.12,44.17-.41,66.28.48,3.92,1.17,7.82,1.81,12.12Zm61.11-164.06c6.55.34,12.57-1.45,16.75-7.47.41-.59.99-1.06,1.51-1.57,2.86-2.8,2.83-3.16-1.04-4.51-8.1-2.83-15.69-6.71-23.18-10.83-3.96-2.17-7.35-5.02-10.02-8.67-2.76-3.76-5.97-7.08-9.53-10.08-6.36-5.36-10.98-11.83-12.67-20.12-.36-1.76-1.26-2.69-3.06-2.83-.9-.07-1.82-.23-2.67-.52-2.33-.82-2.76-.09-2.24,2.2,3.22,14.28,6.91,28.48,12.92,41.83,6.27,13.91,16.51,22.91,33.23,22.58Zm49.05-12.11c-1.77-2.88-4.07-5.19-6.84-7.13-8.6-6.03-16.53-13.1-26.39-17.16-4.53-1.86-8.76-4.22-11.99-7.81-5.23-5.81-12.01-8.94-18.92-11.97-1.57-.69-3.25-1.13-4.89-1.66-.39-.12-.83-.48-1.2.09-.37.58-.14.98.32,1.4.73.68,1.36,1.47,2.11,2.12,5.07,4.3,9.75,8.95,13.68,14.35,1.18,1.63,2.79,2.87,4.54,3.85,4.98,2.8,9.92,5.77,15.29,7.71,11.33,4.08,21.78,9.9,32.23,15.76.62.35,1.15.95,2.05.46Zm36.45-47.83c-4.48,7.52-9.13,14.83-14.79,21.44-3.91,4.56-7.18,9.88-13.84,11.08-1.67.3-1.22,1.48-.29,2.4,1.81,1.78,3.72,3.47,5.01,5.7,1.1,1.9,2.57,3.48,4.09,5.04,1.29,1.33,2.03,1.44,2.94-.39.96-1.93,2.09-3.84,3.44-5.52,4.59-5.73,8.82-11.69,12.91-17.78.91-1.35,1.29-2.69,1.34-4.3.18-5.89-.5-11.74-.81-17.68Zm47.14,323.48c-1.48,0-2.53-.09-3.57.01-6.32.62-12.67.59-18.98,1.51-7.01,1.02-14.12.9-21.18,1.34-8.73.55-17.39.47-25.96-1.68-5.95-1.49-12.13-1.02-18.26-1.62,2.71,2.58,5.14,5.7,9.16,5.72,2.59.01,5.01.29,7.47,1.03,3.03.92,6.13,1.72,9.26,2.23,7.31,1.2,14.66.66,21.99.05,11.12-.93,22.2-2.06,33.19-4.12,2.95-.55,4.66-2.38,6.88-4.48Zm-58.89-199.37c.19-.08.38-.15.57-.23-.1-.6-.16-1.22-.3-1.81-1.36-5.53-2.7-11.06-4.12-16.58-2.22-8.67-4.07-17.45-7.47-25.78-.62-1.51-1.17-3.16-3.16-3.8.46,10.49,1.12,20.77,1.26,31.05.04,3.44,1.27,5.58,3.82,7.48,2.61,1.96,4.86,4.33,6.89,6.9.77.97,1.68,1.85,2.52,2.77Zm1.13-132.22c-.96,0-1.51-.09-2.01.01-5.39,1.15-10.75,2.42-16.16,3.44-2.05.39-2.66,1.29-2.58,3.27.26,6.69.39,13.39.58,20.08,0,.2.25.4.5.78,7.97-8.18,14.32-17.3,19.67-27.59Zm20.67,210.39c14.53-.57,28.35-1.75,42.27-5.16-.61-.25-.85-.39-1.11-.44-11.73-2.22-23.57-2.43-35.45-2.12-.85.02-1.36.37-1.58,1.18-.66,2.38-1.97,4.4-4.12,6.55Zm-24.18-52.72c-2.24,2.37-3.72,4.78-5.87,6.02-4.01,2.3-4.06,5.67-3.7,9.44.21,2.24.35,4.49.59,6.73.06.6.22,1.44.63,1.7.66.42,1.06-.44,1.46-.86,2.21-2.35,3.92-5.2,7.05-6.61.85-.38.6-1.43.62-2.22.12-4.43-.19-8.84-.77-14.2Zm14.6-106.11c-.24.12-.44.15-.55.28-3.31,3.92-6.12,8.36-11.06,10.6-.66.3-.79,1.01-.36,1.64,2.18,3.23,4.41,6.43,5.36,10.02,6.88-6.19,8.03-13.95,6.61-22.53Zm-31.16,161.52c-1.85-1.66-2.78-3.12-3.04-4.99-.21-1.49-1.3-.81-2.11-.53-3.17,1.08-6.33,2.19-9.5,3.26-.94.32-2.04.32-3,1.45,5.86,1.2,11.4.81,17.65.81Zm6.06-62.96c1.98-1.62,3.51-2.86,5.02-4.12.41-.34.94-.79.6-1.36-1.51-2.55-3.02-5.11-5.62-7.14v12.63Zm25.43-49.9c.18,0,.36,0,.54,0-.17-3.6-.31-7.21-.53-10.81-.04-.69.45-2-.7-1.91-1,.08-2.14,1.09-1.89,2.28.73,3.5,1.7,6.96,2.58,10.43Z"/><path class="cls-11" d="m164.33,335.36c-7.37.14-14.72-.46-22.01-1.27-5.47-.6-9.78-4.14-14.01-7.44-.62-.48-.78-1.6-1.08-2.45-6.77-19.41-11.12-39.46-15.69-59.46-1.84-8.05-3.77-16.08-5.64-24.12-.2-.85-.85-1.88.01-2.53.65-.49,1.57.11,2.32.41,6.35,2.49,13.07,2.41,19.63,2.17,17.96-.65,35.85-2.39,53.82-3.08,12.98-.5,25.85-2.26,38.46-5.53,2.24-.58,2.6-.16,2.37,2.09-1.09,10.93-1.8,21.89-3.03,32.8-1.91,16.95-4.14,33.87-6.24,50.8-.21,1.71-.73,3.44-.6,5.12.21,2.77-1.11,3.99-3.5,4.88-3.99,1.49-7.93,3.15-11.83,4.88-4.3,1.9-8.9,1.74-13.4,1.94-6.52.29-13.06.08-19.6.08,0,.24,0,.48,0,.71Z"/><path class="cls-2" d="m16.47,246.87c-.65-4.3-1.33-8.19-1.81-12.12-2.71-22.11-2.69-44.22.41-66.28,1.03-7.31,2.55-14.59,6.61-20.89,5.81-9.01,14.21-14.05,24.94-15.03.87-.08,2.07-.34,2.54.51.53.96-.72,1.48-1.2,2.16-4.93,6.87-9.78,13.77-11.46,22.31-.11.55-.26,1.04.15,1.66,2.65-1.02,4.75-2.88,6.82-4.72,4.62-4.1,9.36-8.04,14.8-11.05,4.56-2.52,9.62-3.25,14.68-3.72,7.09-.65,14.16-.14,21.12,1.44,4.27.97,5.34,2.22,6.05,6.56,1.43,8.76-1.5,16.47-5.65,23.9-.37.67-.7,1.21-1.67.74-4.57-2.21-9.28-1.29-13.88-.29-12.15,2.65-23.3,8.04-34.54,13.1-3.23,1.46-5.68,3.83-5.26,7.78.42,3.92,3.3,5.61,6.68,6.68.75.24,1.5.48,2.69.85-4.59,1.22-8.68,2.65-12.35,5.07-2.05,1.36-4.09,2.75-5.65,4.67-3.54,4.34-1.63,9.94,3.83,11.2,3.27.75,6.7.49,9.96,1.43,2.51.73,5,1.47,7.55,3.08-12.84,5.36-24.69,11.68-35.34,20.93Z"/><path class="cls-5" d="m77.59,82.81c-16.72.33-26.97-8.67-33.23-22.58-6.01-13.35-9.7-27.54-12.92-41.83-.52-2.29-.09-3.01,2.24-2.2.85.3,1.77.45,2.67.52,1.81.14,2.7,1.06,3.06,2.83,1.69,8.29,6.31,14.76,12.67,20.12,3.55,3,6.77,6.32,9.53,10.08,2.67,3.65,6.07,6.49,10.02,8.67,7.49,4.11,15.08,8,23.18,10.83,3.87,1.35,3.91,1.71,1.04,4.51-.52.51-1.1.98-1.51,1.57-4.18,6.02-10.2,7.81-16.75,7.47Z"/><path class="cls-6" d="m126.64,70.7c-.9.49-1.44-.11-2.05-.46-10.44-5.86-20.89-11.67-32.23-15.76-5.37-1.94-10.31-4.91-15.29-7.71-1.75-.99-3.36-2.23-4.54-3.85-3.93-5.39-8.61-10.05-13.68-14.35-.76-.64-1.38-1.44-2.11-2.12-.45-.42-.69-.82-.32-1.4.36-.57.81-.21,1.2-.09,1.64.53,3.32.97,4.89,1.66,6.9,3.03,13.68,6.16,18.92,11.97,3.23,3.59,7.47,5.95,11.99,7.81,9.86,4.05,17.8,11.12,26.39,17.16,2.77,1.95,5.06,4.25,6.84,7.13Z"/><path class="cls-1" d="m163.09,22.86c.3,5.93.99,11.79.81,17.68-.05,1.61-.44,2.95-1.34,4.3-4.09,6.08-8.33,12.05-12.91,17.78-1.35,1.68-2.48,3.58-3.44,5.52-.91,1.83-1.65,1.72-2.94.39-1.52-1.57-2.99-3.14-4.09-5.04-1.29-2.23-3.2-3.92-5.01-5.7-.93-.92-1.38-2.1.29-2.4,6.66-1.2,9.93-6.51,13.84-11.08,5.66-6.61,10.32-13.92,14.79-21.44Z"/><path class="cls-12" d="m210.23,346.35c-2.23,2.1-3.93,3.93-6.88,4.48-10.99,2.05-22.07,3.18-33.19,4.12-7.34.62-14.68,1.16-21.99-.05-3.12-.51-6.22-1.31-9.26-2.23-2.47-.75-4.89-1.02-7.47-1.03-4.02-.02-6.45-3.14-9.16-5.72,6.13.6,12.31.12,18.26,1.62,8.58,2.15,17.23,2.23,25.96,1.68,7.06-.44,14.18-.32,21.18-1.34,6.31-.92,12.66-.89,18.98-1.51,1.04-.1,2.09-.01,3.57-.01Z"/><path class="cls-9" d="m151.33,146.98c-.84-.92-1.75-1.79-2.52-2.77-2.04-2.57-4.28-4.94-6.89-6.9-2.54-1.91-3.77-4.05-3.82-7.48-.13-10.28-.79-20.56-1.26-31.05,1.99.64,2.55,2.29,3.16,3.8,3.4,8.33,5.25,17.11,7.47,25.78,1.41,5.52,2.76,11.05,4.12,16.58.15.59.2,1.21.3,1.81-.19.08-.38.15-.57.23Z"/><path class="cls-7" d="m152.46,14.76c-5.34,10.29-11.69,19.41-19.67,27.59-.26-.39-.5-.58-.5-.78-.2-6.69-.32-13.39-.58-20.08-.08-1.98.53-2.89,2.58-3.27,5.41-1.02,10.77-2.3,16.16-3.44.51-.11,1.05-.01,2.01-.01Z"/><path class="cls-12" d="m173.13,225.15c2.16-2.15,3.46-4.17,4.12-6.55.22-.8.73-1.15,1.58-1.18,11.88-.31,23.73-.1,35.45,2.12.26.05.5.19,1.11.44-13.92,3.41-27.74,4.59-42.27,5.16Z"/><path class="cls-4" d="m148.95,172.43c.59,5.36.89,9.77.77,14.2-.02.8.24,1.84-.62,2.22-3.13,1.41-4.84,4.26-7.05,6.61-.4.42-.8,1.28-1.46.86-.41-.26-.57-1.1-.63-1.7-.24-2.24-.37-4.49-.59-6.73-.36-3.77-.31-7.14,3.7-9.44,2.15-1.24,3.63-3.65,5.87-6.02Z"/><path class="cls-9" d="m163.55,66.31c1.43,8.58.28,16.34-6.61,22.53-.95-3.59-3.18-6.79-5.36-10.02-.42-.63-.3-1.34.36-1.64,4.94-2.24,7.74-6.68,11.06-10.6.1-.12.31-.16.55-.28Z"/><path class="cls-8" d="m132.38,227.83c-6.25,0-11.79.39-17.65-.81.96-1.13,2.06-1.13,3-1.45,3.17-1.08,6.33-2.18,9.5-3.26.81-.28,1.9-.96,2.11.53.27,1.87,1.19,3.33,3.04,4.99Z"/><path class="cls-10" d="m138.45,164.87v-12.63c2.59,2.03,4.1,4.6,5.62,7.14.34.58-.18,1.02-.6,1.36-1.51,1.26-3.04,2.5-5.02,4.12Z"/><path class="cls-3" d="m163.88,114.97c-.88-3.47-1.85-6.93-2.58-10.43-.25-1.19.89-2.21,1.89-2.28,1.15-.09.66,1.22.7,1.91.22,3.6.36,7.21.53,10.81-.18,0-.36,0-.54,0Z"/></g></svg>