<?xml version="1.0" encoding="UTF-8"?><svg id="_레이어_2" xmlns="http://www.w3.org/2000/svg" viewBox="0 0 253.66 588.34"><defs><style>.cls-1{fill:#a6856b;}.cls-1,.cls-2,.cls-3,.cls-4{stroke-width:0px;}.cls-2{fill:#a08067;}.cls-3{fill:#528138;}.cls-4{fill:#391c0b;}</style></defs><g id="_레이어_1-2"><path class="cls-3" d="m181.24,35.03c1.59.37,2.62-.88,3.89-1.39,2.27-.92,4.44-2.12,7-1.99,2.68.13,4.74,1.24,5.71,3.86.98,2.64.01,4.8-1.88,6.64-1.06,1.03-2.42,1.6-3.75,2.18-5.69,2.5-10.88,5.83-15.8,9.59-1.45,1.11-2.85,2.24-4.67,2.73-.49.13-1.07.45-1.33.86-3.95,6.18-7.59,12.52-10.89,19.81,3.15-1.27,5.69-2.32,8.25-3.33,1.53-.61,3.12-1.05,4.79-.77,2.66.44,4.52,1.89,5.22,4.55.73,2.78-.13,5.34-2.5,6.68-6.72,3.81-12.35,9.37-19.65,12.16-3.54,1.35-5.48,3.6-6.57,7.25-1.77,5.91-4.05,11.67-6.15,17.47-.81,2.23-1.61,4.41-1.38,6.87.15,1.6-.49,3.17-1.79,4.1-1.58,1.12-1.79,2.5-1.7,4.23.13,2.43.03,4.86.03,7.21,1.26.36,1.68-.38,2.19-.8,8.37-6.98,16.71-14.01,25.1-20.98.95-.79,1.33-1.52,1.05-2.78-.99-4.57-.59-9.23-.67-13.85-.01-.63.12-1.27.25-1.89.7-3.16,3.17-5.26,6.09-5.24,2.85.02,5.22,1.98,5.84,5.14.39,2,.39,4.08.61,6.54,3.65-3.67,8.19-5.85,10.15-10.7.66-1.63,1.94-3.07,3.14-4.42,2.25-2.51,2.29-3.9-.28-6.25-1.32-1.21-2.41-2.5-2.62-4.32-.27-2.36.56-4.31,2.5-5.69,2.3-1.64,4.77-1.63,7.22-.38,2.8,1.44,4.61,3.85,5.75,6.68.79,1.95,1.42,1.66,2.79.52,3.28-2.73,6.68-5.32,10.11-7.86,1.2-.89,1.57-1.63.94-3.13-.98-2.37-1.37-4.89-.61-7.46.86-2.95,3.07-4.72,5.91-4.74,2.86-.02,5.22,1.66,5.86,4.71.51,2.43.94,4.44,3.54,5.76,1.89.95,2.07,3.33,1.35,5.38-.49,1.38-.09,2.02,1.14,2.76,4.2,2.52,4.49,5.56.3,8.37-4.28,2.87-8.99,5.49-14.35,2.11-.57-.36-1.04-.23-1.49.11-4.02,2.96-7.81,6.16-10.99,10.46,1.75.42,3.24.65,4.64,1.14,3.16,1.11,5.2,4.1,4.81,6.82-.39,2.76-2.89,5.14-6.28,4.97-7.14-.35-13.06,2.58-18.87,6.16,0,.11-.04.33.04.4,4.17,3.65,3.78,7.25-1.08,10.03-1.77,1.01-3.72,1.48-5.68,1.81-6.17,1.03-12.07,3.45-18.42,3.51-.99,0-1.59.81-2.28,1.39-5.78,4.84-11.53,9.72-17.33,14.54-2.8,2.32-5.62,4.66-9.1,5.9-1.56.56-1.36,1.73-1.36,2.88.08,10.63.1,21.27.31,31.9.14,7.24-.69,14.55,1.11,21.71.24.94.33,1.92.57,3.43,1.77-2.18,3.26-3.98,4.69-5.82.25-.32.41-.87.32-1.24-2.11-8.69.26-17.14,1.4-25.65.2-1.52.62-3.03,1.09-4.5,1.16-3.61,3.85-5.61,6.99-5.3,3.25.32,5.69,2.9,5.88,6.77.15,3.16-.2,6.35-.29,9.53-.02.86-.4,1.76.06,2.55,2.87-2.72,5.73-5.41,8.57-8.14.52-.5.26-1.17.19-1.81-1.03-8.76,1.23-16.96,4.59-24.89,1.5-3.55,4.77-5.01,7.97-4.14,3.05.83,4.97,3.62,4.83,7.36-.08,2.15-.44,4.28-.73,7.03,4.48-3.77,8.57-7.16,12.56-10.66.53-.46.59-1.48.8-2.27.93-3.53,2.05-6.99,4.19-10,2.3-3.23,5.79-4.24,8.79-2.62,2.96,1.6,4.09,5.14,2.63,8.78-.63,1.58-1.57,3.04-2.53,4.87,1.27-.14,2.36-.33,3.46-.37,2.81-.09,5.4.66,7.71,2.26,1.63,1.13,2.01,2.72.64,4.19-4.93,5.35-10.73,8.89-18.36,8.18-1.91-.18-3.51.04-4.97,1.47-1.94,1.9-4.06,3.59-6.11,5.37.65,1.12,1.57.63,2.28.7,3.28.32,6.18,1.45,8.51,3.84,1.97,2.02,1.91,3.73-.17,5.57-2.43,2.14-5.32,3.23-8.5,3.15-4.77-.12-9.61,1.26-14.31-.6-.71-.28-1.17.25-1.65.68-2.93,2.7-5.87,5.38-9.22,8.45,4.47,0,7.93,0,11.39,0,1.09,0,2.18-.09,3.27-.01,3.31.25,5.61,2.02,6.27,4.74.73,3-.5,6.04-3.6,7.5-8.78,4.16-17.75,7.41-27.82,5.61-2.7-.48-5.49.2-7.4,2.86-3.02,4.19-6.02,8.49-9.34,12.34-3.02,3.5-2.81,6.87-2.77,10.65.24,22.02,2,43.93,4.32,65.81.99,9.32.43,18.71.91,28.03.42.28.68.11.95-.18,3.67-3.91,7.33-7.83,11.04-11.7,1.01-1.06,1.38-2,1.05-3.59-1.19-5.7-1.73-11.5-2.05-17.31-.08-1.43.12-2.92.49-4.31.89-3.31,3.77-5.24,6.94-4.87,3.04.35,5.18,2.78,5.21,6.3.03,3.17.09,6.32.86,10.03,3.04-3.44,5.77-6.55,8.53-9.63.74-.83.22-1.44-.13-2.19-3.69-7.99-4.09-16.31-2.21-24.77.89-3.99,3.68-6.15,7.02-6.06,3.25.09,5.77,2.25,6.61,6.18.83,3.9,1.3,7.87,2.03,12.41,3.51-3.81,6.74-7.3,9.92-10.82.62-.69-.03-1.37-.27-2.02-3.17-8.72-2.18-17.37.65-25.91,1.23-3.71,4.24-5.54,7.44-5.2,3.22.34,5.64,2.78,6.22,6.62.46,3.02.62,6.09.97,9.73,2.86-3.46,5.01-6.77,7.02-10.18.48-.81-.02-1.78-.16-2.67-.61-3.81-.7-7.61.63-11.3,1.48-4.13,4.55-6.52,7.97-6.26,3.62.27,5.8,2.68,6.68,7.39.05.25.2.49.3.73.96.04,1.46-.71,2.13-1.11,1.84-1.08,3.78-1.77,5.93-1.76,5.08.03,6.51,2.21,4.63,6.89-1.52,3.79-4.45,6.37-7.56,8.75-1.59,1.22-3.63,1.56-5.44.65-1.69-.85-2.27-.21-2.69,1.23-1.1,3.77-3.72,6.76-5.21,10.33-.12.06-.23.12-.35.18.06.05.13.15.19.15.25,0,.3-.12.16-.33,1.48.39,2.84-.3,4.26-.46,4.1-.47,8.17-.52,12.08,1.07,3.48,1.42,5.55,4.14,5.32,7.16-.26,3.51-2.34,5.83-5.59,6.61-7.08,1.7-14.08,4.65-21.6,2.19-.89-.29-1.59.11-2.31.48-1.23.63-2.69,1.38-3.9.83-2.92-1.31-4.31.53-5.87,2.32-.99,1.13-2.04,2.21-3.36,3.62,2.31.29,4.09.43,5.85.75,3.65.65,6,2.79,6.46,5.74.49,3.09-.82,5.97-4.15,7.56-6.26,2.99-12.26,6.91-19.62,6.71-1.18-.03-2.48.09-3.5-.35-2.8-1.23-4.33.24-5.97,2.16-3.15,3.71-6.44,7.3-10.15,11.48,4.41-.38,8.07-.69,11.74-1,1.99-.17,3.98-.33,5.94.29,2.72.85,4.53,2.92,4.68,5.41.14,2.47-1.44,4.84-4.02,5.93-1.44.61-2.97.78-4.52.92-6.33.56-12.69.83-18.96,1.96-1.17.21-2.49.45-3.48-.18-2.16-1.36-3.32-.31-4.76,1.24-4.88,5.26-9.95,10.34-14.47,15.93-.4.49-.8,1.13-1.34,1.33-3.11,1.16-2.81,3.38-2.13,5.93,2.71,10.12,3.85,20.48,5.17,30.85.97,7.65,1.68,15.32,2.47,22.99.18,1.75.84,2.13,2.39,1.98,1.62-.15,3.25-.12,4.88-.18-.5.53-1.19.3-1.79.4-3.12.54-3.65,1.31-3.41,4.52.2,2.61.91,5.19.54,7.84-1.53.18-1.57,1.25-1.45,2.41-1.05.84-2.09,1.72-3.16,2.53-5.29,3.99-8.18,3.67-12.33-1.34-.09-.77.22-1.59-.35-2.29l-.27-12.66c.13-.52.39-1.04.38-1.56-.24-14.63.21-29.39-3.35-43.67-3.71-14.88-4.89-29.9-4.77-45.12.02-3-.29-6-.18-8.99.17-4.57-1.46-8.53-3.65-12.37-5.04-8.84-10.46-17.46-15.87-26.08-.98-1.56-2.1-2.22-3.96-2.22-6.09-.01-12.17-.23-18.14-1.69-1.95-.48-3.85-1.09-5.54-2.21-2.61-1.73-4.19-4.07-3.89-7.3.31-3.36,2.37-5.37,5.4-6.55,2.12-.82,4.39-.87,6.95-1.26-2.88-3.26-5.89-5.53-10.19-5.58-.68,0-.89.14-1.02.83-1.68,8.79-6.44,15.61-13.5,20.92-1.52,1.14-3.11,2.25-4.82,3.07-2.81,1.35-3.77.72-3.36-2.36.69-5.17,2.55-10,4.9-14.64.36-.7,1.31-1.42.85-2.15-.52-.8-1.68-.5-2.52-.35-2.14.39-4.25.94-6.37,1.42-.87.2-1.4.75-1.76,1.55-2.23,5.03-5.93,8.86-9.97,12.45-2.58,2.29-4.95,4.81-7.47,7.17-.99.93-2.08,1.78-3.22,2.5-3.27,2.07-6.62,2.09-9.15.03-2.79-2.28-3.34-5.26-2.39-8.61.22-.77.43-1.54.88-3.16-3.73,2.22-7.92,1.95-9.79,6.26-.96,2.21-3.17,3.44-5.56,4.06-2.19.57-4.43.84-6.11-.99-1.62-1.76-1.73-4.06-.83-6.15.74-1.72.44-2.66-.95-3.89-2.72-2.41-3.06-6.03-1.12-8.58,1.89-2.49,5.55-3.43,8.26-1.21,2.93,2.41,5.3,1.66,8.08.3,1.7-.84,3.52-1.44,5.59-2.27-1.82-1.31-3.52-2.41-5.08-3.68-4.42-3.58-5.67-7.77-3.48-11.35,2.19-3.58,6.58-4.58,11.68-2.47,5.3,2.19,10.3,4.99,15.21,7.93,1.56.94,2.9,1.09,4.59.54,3.33-1.08,6.72-1.96,10.19-2.96-.33-1.16-1.08-1.28-1.71-1.54-.92-.38-1.88-.69-2.79-1.1-3.9-1.77-5.75-5.03-4.66-8.15,1.05-3.01,4.72-4.55,8.75-3.58,3.66.88,7,2.52,10.14,4.56,1.05.68,2.08,1.5,3.65.21-3.76-2.76-6.21-6.81-10.51-8.88-1.69-.81-3.13-2.15-4.69-3.24-4.54-3.18-9.59-4.17-15.03-3.44-.81.11-1.63.19-2.44.13-3.11-.23-5.31-2.01-5.93-4.74-.58-2.53.53-5.29,3.22-6.59,2.27-1.09,1.56-2,.43-3.28-.74-.84-1.64-1.43-2.62-1.91-.9-.44-1.83-.81-2.69-1.31-2.97-1.73-4.35-4.61-3.52-7.25.87-2.74,4.18-4.66,7.51-4.11,3.87.64,7.32,2.33,9.81,5.42,1.84,2.29,4.27,3.55,7.08,5.05.22-1.8.14-3.41.65-4.92.94-2.74,2.74-4.51,5.65-4.86,2.79-.33,5.45.73,6.36,3.26,2.62,7.28,6.99,14.05,6.96,22.16,0,.64-.13,1.35.37,1.81,3.12,2.85,5.96,6,9.36,8.42,0-3.35-.03-6.57.01-9.79.03-2.27,0-4.55.62-6.77.93-3.38,3.31-5.34,6.39-5.26,3.05.08,5.49,2.17,6.14,5.57.39,2.04.45,4.15.64,6.23.34,3.72.97,7.39,1.91,11,.78,3.02,1.35,6.01.45,9.13-.42,1.48-.06,3.05,1.02,4.06,2.09,1.97,4.39,3.71,6.96,5.84-.45-3.6-.9-6.64-1.2-9.68-.21-2.08-.16-4.18.64-6.18,1.97-4.86,7.62-6.09,11.38-2.45.65.62,1.29,1.33,1.68,2.13,3.61,7.5,6.22,15.17,3.56,23.61-.41,1.29-.22,2.48.23,3.71.81,2.22,1.64,4.45,1.36,6.89-.08.66.13,1.25.49,1.8,2.54,3.86,5.07,7.73,7.61,11.6.73-.2.45-.74.42-1.1-1.05-15.6-1.19-31.24-1.61-46.86-.17-6.19-1.01-12.31-1.9-18.43-.33-2.25-1.24-4.6-.87-6.72,1.01-5.69-1.59-9.98-4.24-14.59-4.34-7.55-8.27-15.35-12.17-23.16-1.21-2.43-2.85-3.72-5.39-4.43-6.29-1.76-12.66-3.3-18.73-5.78-1.51-.62-3.04-1.24-4.43-2.07-2.99-1.79-4.25-4.62-3.56-7.58.68-2.9,3.14-4.98,6.62-5.1,2.71-.09,5.43.28,8.15.44.78.05,1.56.08,2.84.14-1.98-3.24-4.23-5.67-6.54-8.04-2.47-2.53-5.23-4.36-8.6-5.85-4.33-1.91-8.72-2.66-13.21-3.52-3.66-.7-7.22-1.84-10.58-3.49-3.17-1.56-4.84-4.23-4.48-7.13.41-3.31,2.44-5.14,5.59-5.87.48-.11,1.25.05,1.22-.72-.02-.57-.6-.9-1.12-1.07-3.78-1.28-5.09-4.4-5.88-7.89-.62-2.75-1.22-5.5-1.76-8.26-.25-1.27-.61-2.01-2.14-1.43-7.24,2.75-13.64-2.33-16.98-6.74-1.76-2.33-1.77-5.24-.27-7.41,1.69-2.43,4.08-3.2,6.93-2.66,3.07.59,5.83,2.02,8.56,3.45,1.5.79,2.09.57,2.1-1.21.01-2.14.64-4.13,2-5.82,1.54-1.91,3.52-2.87,5.99-2.46,2.47.4,4.02,1.93,4.91,4.22.68,1.75.69,3.58.51,5.38-1.14,11.39,4.03,20.34,11.11,29.01.56-2.53-.01-4.73.02-6.9.02-1.36-.16-2.74.01-4.07.45-3.44,2.72-5.66,5.8-5.87,3.07-.21,5.75,1.65,6.54,5.02,1.52,6.45,3.37,12.9,4.03,19.46.66,6.53,5.27,9.49,9.54,13.6.34-2.04.6-3.63.88-5.22.16-.89.28-1.8.52-2.67.98-3.48,3.54-5.51,6.65-5.32,3.07.19,5.65,2.57,5.98,6.07.44,4.7.73,9.48-1,14.02-1.88,4.94-.61,9.49,1.62,13.83,3.48,6.79,7.19,13.46,10.81,20.17.42.78.86,1.54,1.77,2.26,0-3.81.76-7.8-.14-11.38-2.69-10.66-4.52-21.51-7.33-32.13-3.22-12.11-6.36-24.25-9.66-36.34-1-3.68-4.24-6.03-6.14-9.21-.96-1.61-2.44-2.92-3.69-4.36-.14-.15-.29-.31-.43-.46,0,0-.07-.08-.07-.08-.15-.17-.31-.34-.46-.51-.36-.38-.73-.77-1.09-1.15-.88-1.04-1.76-.44-2.64-.01-1.46,0-2.93.02-4.39.03-.5-.42-1.06-.54-1.68-.35-.37-.07-.73-.14-1.1-.21-.29-.33-.64-.48-1.08-.32-.36-.08-.72-.17-1.08-.25-.29-.35-.65-.5-1.11-.34-.35-.07-.7-.15-1.05-.22-.48-.47-1.04-.56-1.67-.36-.53-.05-1.07-.1-1.6-.16-.5-.42-1.06-.53-1.68-.36-.45-.14-.9-.28-1.35-.43-.3-.52-.72-.84-1.34-.87-.45-.53-.9-1.06-1.35-1.6.1-.3-.01-.48-.32-.54-.07-.17-.13-.35-.2-.52-.14-1.91,0-3.78.74-5.57.72-.62,1.44-1.25,2.17-1.87.3.11.48-.02.58-.3.18,0,.35-.06.5-.15,2.87-.65,5.71.03,8.85.42-.68-1.33-1.21-2.52-2.64-2.16-2.07.52-4.15.17-6.21.46-.52-.06-1.05-.11-1.57-.17-.49-.43-1.05-.52-1.66-.33-.37-.07-.74-.13-1.1-.2-.29-.35-.64-.5-1.08-.35-.2-.06-.39-.12-.59-.18-.09-.25-.24-.35-.49-.19-.22-.11-.44-.22-.65-.34-.05-.27-.19-.38-.46-.27-.79-.82-1.59-1.65-2.38-2.47-.1-.19-.21-.38-.31-.58-.05-.18-.11-.35-.16-.53,0-1.3.02-2.6.02-3.9.1-.15.15-.32.16-.5.12-.2.23-.4.35-.6.65-.62,1.22-1.63,1.97-1.81,3.77-.9,2.05-2.56.81-4.36-2.85-4.12-5.19-8.54-7.51-12.96-.5-.95-.88-2.02-1.04-3.07-.45-2.81.96-5.43,3.37-6.55,2.52-1.17,5.41-.51,7.39,1.78,1.68,1.94,2.65,4.33,3.92,6.53,1.45,2.5,2.75,5.1,4.6,7.42,2.99-5.73,4.47-6.35,10.42-4.45.25-.96.51-1.91.76-2.87-1.74-.47-3.43-.79-5.03-1.38-3.93-1.43-6.52-4.22-7.67-8.25-.94-3.29.48-6.54,3.31-7.81,2.81-1.26,5.86-.26,7.78,2.66,1.81,2.74,3.42,5.65,4.06,8.87.53,2.65,1.74,3.48,4.38,2.57-2.18-4.17-3.57-8.53-2.5-13.32.36-1.6.75-3.19,1.58-4.62,1.65-2.84,4.61-4.17,7.34-3.31,2.76.86,4.44,3.59,4.09,6.9-.26,2.44-.76,4.89-1.8,7.11-1.49,3.16-2.27,6.7-4.67,9.4-.52.58-.1.96.09,1.44,2.06,4.94,3.97,9.94,6.19,14.83,2.63,5.82,3.21,12.28,5.17,18.32.28.86.49,1.74.77,2.77,1.49-.6,2.64-1.69,4.21-1.89,1.42-.19.76-1.12.41-1.81-1.17-2.26-2.52-4.43-3.53-6.76-1.35-3.13-.68-6.28,1.46-7.99,1.02-.82,2.24-1.43,3.52-1.19,2.27.42,2.49-.53,2.27-2.48-.43-3.81-1.53-7.12-4.51-9.83-2.4-2.19-4.38-4.85-6.47-7.36-1.96-2.36-3.12-5-1.69-8.04,1.41-3,4.08-3.59,7.53-3.22-.73-2.17-1.42-4.07-2-6.01-.98-3.22-.28-6,1.87-7.7,2.27-1.8,5.39-1.77,7.71.4,1.15,1.07,2.01,1.36,3.22.38.07-.06.16-.09.24-.12,2.81-1.12,5.88-1.91,8.21.38,2.32,2.28.14,4.91-.57,7.33-.15.5-.5.94-.76,1.41-1.04,1.47-2.07,2.94-3.12,4.39-1.07,1.47-1.08,2.89.24,4.67.65-3.37,1.8-6.16,4.49-8,.33-.11.67-.22,1-.33,1.15.06,2.3.11,3.45.17.28.11.55.22.83.33.25.56.69.86,1.28.95.18.18.35.37.53.55.05.61.37,1.04.89,1.33.17.61.34,1.23.51,1.84-.02.96-.04,1.91-.06,2.87-.06.37-.13.73-.19,1.1-.33.29-.48.64-.32,1.07-.09.35-.18.7-.26,1.06-.38.29-.51.67-.38,1.13-.04.18-.09.37-.13.55-.36.28-.51.63-.37,1.08-.05.2-.1.39-.15.59-.34.27-.51.61-.37,1.05-.06.2-.11.39-.17.59-.35.26-.53.6-.41,1.05-.06.18-.11.36-.17.55-.38.27-.55.62-.44,1.08-1.3,3.12-2.67,6.19-5.57,8.22-.47.33-.83.76-.74,1.36.5,3.59-.13,7.2,0,11.59,1.02-1.34,1.65-2.05,2.14-2.84,1.88-3.08,4.79-4.94,7.86-6.53,3.31-1.71,6.99-.26,8.88,3.39.62,1.2,1.04,2.51,1.46,3.8.42,1.29.74,2.61,1.18,4.19,1.56-1.64,2.41-3.12,1.93-5.34-1.06-4.88-1.9-9.8-2.84-14.7-.3-1.53-.48-3.05-.09-4.59.71-2.78,2.8-4.75,5.47-4.97,2.84-.24,4.88,1.09,6.24,3.52.35.63.58,1.33.86,2.01.93-.13.94-1,1.24-1.58,1.63-3.04,3.09-6.18,4.86-9.13,1.5-2.49,2.78-4.33-.37-6.91-2.57-2.11-1.73-6.41.84-8.43,2.68-2.1,6.56-1.54,8.71,1.27,2.4,3.13,3.44,3.29,6.67,1.22,2.1-1.35,4.32-1.45,6.4-.01,2.08,1.44,2.76,3.53,2.15,5.99-.64,2.59-2.9,4.92-5.64,4.68-2.85-.26-3.76,1.25-4.82,3.2-2.67,4.92-5.86,9.57-7.7,14.92-.1.1-.2.2-.31.3.08.02.18.07.25.05.23-.11.22-.25,0-.39Zm-45.01,65.34c1.48-1.4,1.57-2.44,1.89-3.34,2.52-7.09,4.52-14.47,8.24-21,2.82-4.94.39-9.01-.4-13.44-.14-.78-.71-1.61-1.69-.53-2.5,2.76-5.01,5.5-7.51,8.26-.45.49-.55,1.12-.55,1.78,0,9.2,0,18.39,0,28.28Zm-12.47-21.65c-1.21,2.26-2.3,4.31-3.41,6.34-.35.65-.66,1.28-.45,2.06,1.26,4.69,2.51,9.39,3.86,14.45v-22.85Zm-27.87-31.12c-.05,3.62-1.61,7.44,3.38,9.44-1.34-3.18-1.03-6.59-3.38-9.44Z"/><path class="cls-4" d="m141.32,416.81c.09,4.22.18,8.44.27,12.66-2.33.29-4.67.56-7,.89-2.33.33-4.65.69-6.97,1.07-2.41.4-4.84.71-7.21,1.3-2.14.53-4.59.32-6.8,2.35,1.48.1,2.44.2,3.41.22,7.33.15,14.66.11,21.99-.35,2.42-.15,3.26-.9,2.92-3.18,4.15,5.01,7.04,5.33,12.33,1.34,1.08-.81,2.11-1.69,3.16-2.53.26,1.74,1.13,2.4,2.97,2.02,4.88-1,9.79-1.84,14.68-2.79.66-.13,1.73-.1,1.65-1.02-.09-1-1.16-.61-1.8-.61-5.35-.04-10.7-.02-16.05-.02.36-2.65-.34-5.23-.54-7.84-.25-3.21.28-3.98,3.41-4.52.6-.1,1.29.13,1.79-.4,12.1-.41,24.13.13,35.94,3.13,1.14.29,2.29.63,3.34,1.15,2.25,1.11,4.33,1.92,7.09,1.82,5.11-.19,10.02,6.64,9.45,12.59-.84,8.77-1.85,17.52-2.86,26.27-.53,4.6-1.22,9.18-1.85,13.76-.23,1.65-.7,3.33-1.88,4.44-1.85,1.73-2.12,3.82-2.29,6.11-1.25,17.13-4.17,34.06-6.04,51.12-.25,2.3-.12,3.35,2.57,4.39,4.1,1.59,8.25,3.06,12.34,4.68,3.59,1.42,5.33,4.35,5.08,8.2-.76,11.97-6.22,21.13-17.35,25.84-9.41,3.98-19.21,7.21-29.37,8.8-9.4,1.48-18.85.07-28.27-.41-7.42-.38-14.46-2.45-21.16-5.63-4.44-2.11-9.1-3.58-13.81-4.93-3.46-.98-6.59-2.57-9.22-5.04-3.48-3.27-5.07-7.21-4.21-12.03.98-5.52,5.85-8.96,11.35-7.96.52.09,1.04.19,1.89.34-1.16-4.58-2.32-8.9-3.34-13.25-3.75-15.99-6.2-32.24-9.28-48.36-1.4-7.3-5.05-13.86-7.41-20.86-2.53-7.52-4.5-15.09-5.4-22.97-.76-6.7,2.43-11.71,6.41-16.45.88-1.05,2.17-1.89,3.54-1.85,2.67.08,4.39-1.45,6.14-3.04,2.06-1.87,4.38-3.19,7.12-3.78,9.66-2.1,19.36-3.98,29.25-4.65Zm55.85,72.15c-.51.03-.81-.02-1.03.08-12.17,5.4-25.27,6.14-38.17,6.36-13.59.24-27.15-1.81-40.58-4.18-2.48-.44-2.49.24-2.12,2.21,1.02,5.44,1.8,10.93,2.82,16.37,2.23,11.96,4.47,23.91,7.72,35.65.5,1.8.88,3.64,2.85,4.71,5.48,2.97,11.21,5.3,17.35,6.22,8.12,1.22,16.31.49,24.47.22,7.46-.25,13.25-3.92,18.58-8.66,1.06-.94,1.6-2.05,1.73-3.54,1.26-14.3,3.25-28.51,5.09-42.73.54-4.2,1.29-8.39,1.29-12.72Zm-95.57-43.78c.14,1.32.22,2.3.34,3.28.93,7.83,4,15.03,6.39,22.45,1.06,3.29,2.98,4.99,5.83,6.13,1.42.57,2.92,1.09,4.42,1.32,18.83,2.89,37.62,5.72,56.81,2.83,8.24-1.24,15.82-3.8,23.2-7.35,2.39-1.15,4.03-2.74,4.13-5.8.13-3.61.89-7.19,1.31-10.8.78-6.76,1.47-13.53,2.26-20.29.24-2.04-.25-2.33-2.11-1.46-1.88.88-3.91,1.45-5.92,1.99-21.88,5.82-44.05,10.03-66.74,10.7-9.92.3-19.97.96-29.92-3.01Zm26.81,122.37c5.35,2.62,10.66,5.37,16.61,6.29,9.62,1.48,19.34,1.6,29.05,1.54.63,0,1.26-.12,1.88-.25,9.01-1.82,17.67-4.81,26.28-7.91,3.64-1.31,5.72-4.34,7.64-7.47.31-.51.6-1.13-.24-1.72-6.51,5.42-14.23,8.18-22.43,9.68-5.35.98-10.86,1.21-16.12,2.48-9.75,2.36-19.24,1.51-28.77-1.01-4.52-1.2-9.13-2.05-13.91-1.64Z"/><path class="cls-2" d="m141.94,431.75c.34,2.28-.49,3.03-2.92,3.18-7.33.46-14.66.5-21.99.35-.97-.02-1.93-.12-3.41-.22,2.21-2.03,4.65-1.81,6.8-2.35,2.36-.59,4.8-.9,7.21-1.3,2.32-.38,4.64-.75,6.97-1.07,2.33-.33,4.66-.59,7-.89.56.7.26,1.52.35,2.29Z"/><path class="cls-2" d="m158.88,428.15c5.35,0,10.7-.02,16.05.02.63,0,1.71-.38,1.8.61.08.91-.99.89-1.65,1.02-4.89.94-9.8,1.79-14.68,2.79-1.84.38-2.71-.28-2.97-2.02-.12-1.17-.07-2.24,1.45-2.42Z"/><path class="cls-1" d="m197.17,488.95c0,4.33-.74,8.52-1.29,12.72-1.84,14.23-3.82,28.44-5.09,42.73-.13,1.49-.67,2.59-1.73,3.54-5.33,4.74-11.13,8.41-18.58,8.66-8.17.27-16.36,1-24.47-.22-6.14-.92-11.87-3.25-17.35-6.22-1.98-1.07-2.36-2.92-2.85-4.71-3.24-11.74-5.49-23.69-7.72-35.65-1.01-5.44-1.8-10.93-2.82-16.37-.37-1.97-.36-2.65,2.12-2.21,13.42,2.36,26.99,4.41,40.58,4.18,12.9-.22,26-.96,38.17-6.36.23-.1.52-.04,1.03-.08Z"/><path class="cls-1" d="m101.6,445.18c9.96,3.97,20,3.3,29.92,3.01,22.69-.68,44.85-4.88,66.74-10.7,2.01-.53,4.05-1.11,5.92-1.99,1.86-.87,2.35-.58,2.11,1.46-.8,6.76-1.49,13.53-2.26,20.29-.41,3.6-1.18,7.19-1.31,10.8-.11,3.06-1.75,4.65-4.13,5.8-7.38,3.55-14.96,6.1-23.2,7.35-19.2,2.89-37.98.07-56.81-2.83-1.51-.23-3-.75-4.42-1.32-2.85-1.14-4.78-2.85-5.83-6.13-2.38-7.42-5.45-14.62-6.39-22.45-.12-.98-.2-1.96-.34-3.28Z"/><path class="cls-2" d="m128.41,567.54c4.78-.41,9.39.44,13.91,1.64,9.53,2.52,19.02,3.37,28.77,1.01,5.27-1.27,10.77-1.51,16.12-2.48,8.2-1.5,15.92-4.26,22.43-9.68.84.58.55,1.21.24,1.72-1.92,3.13-4,6.16-7.64,7.47-8.62,3.11-17.28,6.09-26.28,7.91-.62.13-1.26.25-1.88.25-9.71.06-19.43-.07-29.05-1.54-5.95-.91-11.27-3.66-16.61-6.29Z"/></g></svg>