<?xml version="1.0" encoding="UTF-8"?><svg id="_레이어_2" xmlns="http://www.w3.org/2000/svg" viewBox="0 0 396.9 510.35"><defs><style>.cls-1{fill:#c2814d;}.cls-1,.cls-2,.cls-3,.cls-4,.cls-5,.cls-6,.cls-7,.cls-8,.cls-9,.cls-10,.cls-11,.cls-12,.cls-13{stroke-width:0px;}.cls-2{fill:#694e39;}.cls-3{fill:#4d7c36;}.cls-4{fill:#694f39;}.cls-5{fill:#4f7f36;}.cls-6{fill:#6a503a;}.cls-7{fill:#664c37;}.cls-8{fill:#c78550;}.cls-9{fill:#4e7e36;}.cls-10{fill:#fff;}.cls-11{fill:#4e7d36;}.cls-12{fill:#684e39;}.cls-13{fill:#391c0b;}</style></defs><g id="_레이어_1-2"><path class="cls-13" d="m319.58,331.95c-6.14,1.59-11.99,4.15-18.22,5.43-5.08,1.05-10.18,1.89-15.39.88-9.12-1.77-12.57-9.35-7.87-17.4,2.1-3.6,5.1-6.36,8.29-8.94,1.05-.85,2.14-1.66,3.58-2.78-4.25-.71-8.11-1.28-11.94-2.02-6.17-1.19-12.1-3.19-17.73-5.98-1.61-.8-3.2-1.75-4.59-2.89-3.91-3.19-4.66-7.86-2.05-12.2,2.18-3.63,5.51-6.02,9.19-7.88,8.34-4.21,17.31-5.83,26.56-6.24.98-.04,1.97,0,3-.29-5.8-3.23-11.73-6.17-18.42-6.61-12.89-.84-25.75-1.12-38.34,2.77-9.94,3.07-16.87,9.63-22.26,18.19-.77,1.23-.88,2.53-.86,3.91.16,11.17.18,22.36,2,33.43.13.8.14,1.63.19,2.45.31,4.82.31,4.89,5.33,4.57,8.35-.55,16.7-.58,25.06-.6,2.85,0,5.59.44,8.33,1.11,3.03.74,5.14,2.71,5.29,5.81.73,14.6,2.11,29.2.36,43.81-.13,1.07.18,1.36.95,1.87,2.81,1.87,3.78,4.2,3.04,6.92-.69,2.56-2.95,4.27-6.11,4.63q-4.75.54-5.04,5.35c-1.3,22.95-2.8,45.9-3.53,68.88-.05,1.68.22,2.24,1.98,2.13,4.98-.32,9.96-.22,14.94.35,3.97.46,6.94,3.81,5.76,7.59-2.4,7.72-7.22,13.73-14.06,18.08-.52.33-1.17.59-1.78.64-3.09.26-5.63,1.61-8.03,3.51-1.35,1.07-3.2,1.8-4.87,1.29-2.65-.81-4.94.11-7.37.71-5.67,1.42-11.53,1.4-17.31,1.89-11.5.97-22.85,3.14-34.32,4.28-10.22,1.01-20.48,1.4-30.74,1.74-2.96.1-5.45-.97-8.02-2.71-2.69-1.81-6.05-2.76-9.04-4.25-5.04-2.52-10.01-5.15-14.56-8.5-1.32-.98-2.6-2-3.48-3.41-2.39-3.83-.83-8.13,3.38-9.73,3.99-1.52,8.13-1.75,12.32-1.77,3.23-.02,3.28-.05,2.71-3.26-2.77-15.82-5.69-31.62-8.33-47.46-1.7-10.2-3.85-20.34-4.06-30.74,0-.36.01-.78-.17-1.06-4.2-6.56-3.84-14.26-5.23-21.5-1.59-8.28-2.57-16.68-3.84-25.03-.97-6.36,3.47-12.27,9.86-12.87,10.22-.95,20.44-1.83,30.67-2.65,1.87-.15,2.82-.23,2.53-2.73-.72-6.22-1.94-12.37-2.29-18.65-.52-9.58.87-19.05,1.28-28.58.57-13.44.09-26.9.46-40.34.04-1.29-.29-1.92-1.68-1.55-.17.05-.36.08-.54.07-5.38-.37-9.39.96-13.25,5.64-5.34,6.47-15.33,6.6-23.63,2-3.67-2.04-6.86-4.77-10.23-7.22-3.33-2.43-6.94-3.87-11.13-3.74-1.36.04-2.07.05-1.78,1.9.61,3.9-1.29,7.06-3.83,9.79-7.25,7.78-15.85,13.64-26,16.85-8.84,2.8-16.91,6.92-24.48,12.22-7.34,5.14-15.27,9.08-24.11,10.98-4.58.99-8.19-.47-11.02-4.14-6.41-8.3-6.82-15.68-.93-24.28,7.02-10.25,13.73-20.71,23.41-28.9,11.04-9.35,15.03-22.31,17.37-36,1.22-7.15,1.99-14.4,3.83-21.43,1.54-5.9,4.2-11.22,8.85-15.34,2.82-2.5,6.09-4.07,9.93-3.62,4.97.58,8.47,4.54,9.14,10.07.46,3.82.09,7.62-.24,11.43-.18,2.06-.32,4.13-.51,6.66,2.51-1.81,3.99-3.95,5.52-6.01,5.25-7.08,10.37-14.27,16.68-20.47,4.2-4.13,8.84-7.56,14.85-8.57,7.46-1.25,13.79,2.57,16.04,9.83,2.26,7.33,1.52,14.75.28,22.13-.47,2.76-1.21,5.49-1.95,8.2-.35,1.26-.56,1.93,1.23,1.9,9.15-.16,18.11,1.07,26.73,4.28,2.01.75,1.81-.45,1.81-1.7-.04-10.18-.03-20.36-.1-30.54-.1-13.48,1.49-26.86,2.59-40.25.3-3.7-.83-5.48-3.23-7.38-3.15-2.5-6.57-4.5-10.32-5.99-4.38-1.75-8.72-3.58-13.04-5.46-1.4-.61-3.11-1.19-3.94-2.32-2.17-2.95-5.24-3.38-8.39-3.6-8.35-.61-13.38-5.5-16.49-12.74-3.22-7.5.8-14.3,8.93-15.27,4.37-.52,8.71-.16,12.98.87,2.05.49,3.91.45,6.02-.37,3.9-1.51,8.19-1.45,12.32-2.07,10.06-1.51,20.06-3.21,29.64-6.81,8.25-3.1,16.56-3.45,25.1-.97,6.61,1.92,12.13,5.23,16.22,10.8,2.19,2.98,4.31,6.02,6.62,9.25,1.17-3.22,2.29-6.18,3.31-9.17,4.77-13.93,10.66-27.37,17.21-40.54,5.26-10.58,12.58-19.5,21.75-26.92,3.64-2.95,7.63-5.19,12.27-6.22,2.36-.52,4.65-.52,7,.03,8.13,1.88,11.53,7.97,8.12,15.57-4.18,9.31-9.87,17.75-16.29,25.69-7.36,9.12-14.67,18.27-21.97,27.44-4.2,5.28-7.51,11.09-10.23,17.28-2.99,6.79-5.69,13.72-9.97,19.9-3.41,4.91-3.73,10.93-5.22,16.51-2.62,9.83-5.37,19.71-4.09,30.03.67,5.39,1.47,10.71-.14,16.26,1.6-.27,2.18-1.16,2.91-1.76,3.44-2.84,6.87-5.81,10.96-7.55,4.29-1.83,7.26-4.81,9.85-8.49.9-1.28,1.05-2.13.47-3.61-3.91-10-4.74-20.08-.17-30.15.83-1.83,1.87-3.53,3.14-5.08,4.29-5.22,10.01-6.53,16.09-3.53,5.09,2.5,9.08,6.33,12.31,10.92,2.51,3.56,4.8,7.28,7.24,10.89,1.05,1.55,2.04,3.17,3.68,4.41.55-1.59.96-3.08,1.56-4.47,4.4-10.13,17-11.67,23.63-2.89,2.87,3.8,4.56,8.25,6.69,12.45.74,1.46,1.45,2.93,2.21,4.37.72,1.36,1.24,2.95,2.3,3.99,1.42,1.4,2.65-.69,4.1-.79,3.07-.22,6.03.34,8.82,1.36,18.76,6.86,34.64,17.78,46.85,33.74,1.6,2.09,2.93,4.37,3.91,6.84,1.38,3.49,1.73,6.93-.86,10.02-2.54,3.02-5.95,3.13-9.51,2.44-3.74-.72-7.46-1.65-11.23-2.11-8.89-1.09-17.17.54-24.44,6.09-2.02,1.54-4.01,3.14-6.12,4.55-8.71,5.78-18.57,3.21-23.46-6.08-.55-1.04-1.03-2.1-1.6-3.26-2.85,2.07-4.23,5.05-5.71,7.93-2.99,5.82-5.87,11.72-10.25,16.65-5.42,6.11-12.67,5.75-17.68-.69-1.53-1.96-2.55-4.17-3.34-6.5-1.77-5.21-2.35-10.62-2.73-16.06-.05-.79,0-1.58,0-2.72-1.64.66-2.52,1.7-3.49,2.56-5.04,4.45-9.77,9.26-15.34,13.06-3.42,2.33-7.01,4.34-11.32,4.03-7.09-.52-11.77-7.32-11.09-15.77.6-7.43,2.93-14.37,5.66-21.22.38-.97,1.19-1.9.61-3.07-.89-.32-1.36.39-1.86.83-2.13,1.84-4.3,3.65-6.3,5.62-5.66,5.58-8.88,12.02-9.73,20.27-1.87,18.05-4.07,36.09-7.28,53.98-.19,1.05-.23,2.12-.38,3.58,2.57-1.88,4.77-3.59,7.06-5.17,18.77-12.89,38.75-15.38,60-6.98,8.18,3.23,16.35,6.48,24.26,10.35,1.38.68,1.75.54,2.02-1.05,1.13-6.73,2.75-13.32,5.87-19.46,2.23-4.4,5.31-8.02,9.6-10.51,6.19-3.6,11.8-2,15.02,4.37,2.44,4.82,3.56,10.07,4.5,15.35,1.27,7.18.95,14.5,2.11,21.69.18,1.14.47,2.26.78,3.74,1.34-1.08,1.76-2.38,2.36-3.52,2.58-4.89,5.81-9.24,10.55-12.24,8.19-5.19,15.65-1.59,16.92,8.06.65,4.91.39,9.79-.04,14.69-.1,1.14-.24,1.99,1.43,2.24,4.5.69,7.77,3.46,9.4,7.49,4.77,11.75,9.91,23.4,11.93,36.05.42,2.61.41,5.26.05,7.89-1.27,9.26-6.41,14.19-15.74,15.13-4.35.44-8.65.22-13.03-.23-9.3-.95-18.66-1.35-27.99-2.07-4.07-.31-8.13-.88-12.08-1.97-8.97-2.49-11.3-7.04-7.95-15.47.12-.1.36-.27.35-.28-.21-.32-.42-.24-.63.02Zm-133.93-87.04c.08.07.17.15.25.22-.08-.08-.15-.16-.23-.25-1.01-4.64-3.81-8.34-6.48-12.06-2.55-3.54-5.18-7.09-8.89-9.7-.89,1.41-.16,2.22.64,2.99,2.09,2.03,3.52,4.35,3.3,7.41-.05.75.06,1.46.76,1.91,2.3,1.5,3.88,3.78,5.93,5.55,1.55,1.34,2.57,3.31,4.72,3.92Zm-15.18,33.22c-.28-1.26-.57-2.51-.85-3.77l-.23.04v3.76c-.06,7.41-.6,14.79-1.19,22.18-.1,1.25-.25,2.57,1.6,2.89,3.42.59,6.6,1.91,9.51,3.78,1.37.89,1.94.4,2.39-.85,1.39-3.82,2.73-7.66,4.18-11.46.79-2.07.27-3.23-1.77-4.28-5.59-2.88-10.75-6.36-13.64-12.29Zm-6.97,200.64c7.66-.22,17.47-1.7,27.36-2.14,14.7-.66,29.3-2.57,43.99-3.37,1.19-.07,1.67-.44,1.36-1.65-.75-2.86-.47-5.79-.38-8.68.63-21.61,2.09-43.18,3.33-64.76.2-3.54.15-3.52-3.33-3.13-16.16,1.83-32.36,3.11-48.61,3.51-14.26.34-28.49,1.13-42.7,2.32-1.55.13-2,.51-1.72,2.13,3.98,23.26,7.35,46.62,11.62,69.83,1.11,6.04,1.06,6.05,9.1,5.95Zm83.69-115.85c-.29-6.07-.64-12.15-.84-18.23-.06-1.61-.52-2.19-2.2-2.21-9.09-.12-18.16.18-27.21.84-17.74,1.29-35.46,2.8-53.19,4.15-11.4.87-22.75,2.32-34.18,2.79-1.68.07-2.44.61-2.13,2.5,1.72,10.66,3.44,21.31,4.94,32,.4,2.87,1.53,3.89,4.35,3.57,2.34-.26,4.72-.12,7.07-.28,7.87-.56,15.73-1.46,23.62-1.74,18.69-.65,37.38-1.14,56-2.91,7.41-.7,14.82-1.36,22.22-2.02.84-.08,1.68-.04,1.5-1.32-.82-5.71.21-11.42.07-17.13Zm126.14-175.41c-.03-.23.02-.45-.07-.56-9.94-11.53-22.26-19.64-36.31-25.26-1.06-.42-2.06-.46-2.98.52-4.21,4.47-10.23,2.94-13.8-.53-2.32-2.26-3.82-5.08-5.31-7.87-2.95-5.53-5.74-11.14-8.62-16.71-.41-.79-.81-1.85-1.86-1.75-1.3.13-1.29,1.46-1.38,2.35-.19,1.98-.1,3.99-.18,5.99-.28,7.04-5.51,10.42-12.06,7.81-1.7-.68-3.24-1.64-4.7-2.72-5.52-4.07-9.37-9.55-12.99-15.25-2.72-4.28-5.27-8.69-9.51-11.8-1.93-1.42-3.06-1.4-4.09.95-3.25,7.37-2.33,14.51,1.01,21.54.74,1.55,2.14,3.01,1.94,4.71-.37,3.17,1.13,5.53,2.51,8.08,1.83,3.4,1.04,6.56-1.99,8.92-1.08.85-2,1.81-2.83,2.91-3.18,4.22-5.97,8.69-8.19,13.48-3.14,6.76-6.07,13.6-6.86,21.13-.08.79-.41,1.91.23,2.34.9.6,1.64-.48,2.33-.96,4.54-3.2,8.46-7.13,12.6-10.8,4.21-3.73,8.3-7.65,13.33-10.28,6.39-3.35,12.32.18,12.5,7.36.07,2.91-.1,5.82.01,8.72.16,4.35.49,8.7,1.58,12.93.23.91.12,2.33,1.24,2.47.87.11,1.28-1.15,1.71-1.93,2.31-4.22,4.56-8.47,6.91-12.67,3.37-6.02,7.66-11.08,14.66-13,5.65-1.55,9.78.62,11.92,6.11.59,1.52,1.07,3.1,1.74,4.58,1.22,2.68,3.02,3.19,5.45,1.63.69-.44,1.35-.92,1.97-1.46,10-8.64,21.63-12.24,34.75-11.45,1.78.11,3.51.9,5.34.46Zm-309.33-12.48c-2.41,2.74-3.15,5.99-3.74,9.27-1.3,7.32-2.44,14.67-3.85,21.97-2.53,13.07-7.13,25.29-17.05,34.62-8.93,8.4-16.7,17.65-23.35,27.9-1.09,1.68-2.28,3.29-2.96,5.19-.63,1.76.18,3.23,1.14,4.56.99,1.36,2.2.27,3.22-.05,5.94-1.89,11.31-4.92,16.38-8.49,8.01-5.64,16.6-10.03,25.98-12.93,6.76-2.09,12.74-5.65,18.08-10.33,1.85-1.62,2.41-2.56.2-4.52-4.31-3.82-3.41-9.99,1.93-11.9,11.38-4.05,22.73-4.75,33.39,2.38,2.56,1.71,4.98,3.64,7.49,5.44,2.07,1.49,4.2,2.88,6.79,3.3,3.66.59,6.12-1.41,6.24-5.08.14-4.48,3.73-7.29,8.15-6.29,3.93.89,7.87,1.26,11.87.69.52-.07,1.19.12,1.49-.42.42-.76-.38-1.1-.76-1.55-3.74-4.47-7.89-8.55-12.17-12.48-7.35-6.73-16.71-9.9-25.93-8.08-14.23,2.8-27.78,8.39-40.11,16.41-2.89,1.88-5.71,3.9-8.71,5.58-3.4,1.9-6.87,1.05-8.65-1.78-1.94-3.1-1.15-6.78,2.14-9.06,4.03-2.79,8.07-5.59,12.29-8.08,10.86-6.42,22.69-10.57,34.63-14.4,2.64-.85,4.41-2.43,5.46-4.88.64-1.5,1.21-3.04,1.68-4.6,1.91-6.41,2.68-12.97,2.15-19.65-.3-3.8-1.6-4.47-4.95-2.76-2.7,1.39-4.87,3.44-6.94,5.62-6.28,6.61-11.13,14.33-16.93,21.32-3.63,4.38-7.74,8.25-13.41,9.83-4.75,1.32-8.93-.89-10.7-5.51-1.53-3.99-1.68-8.14-1.28-12.34.28-2.97.52-5.94.78-8.92Zm297.29,98.46c-1.72,1.75-2.58,3.19-3.36,4.69-1.29,2.51-2.66,4.95-4.42,7.18-5.75,7.29-16.05,6.28-20.23-2-.95-1.87-1.59-3.86-2.08-5.89-1.61-6.66-1.48-13.5-2.11-20.27-.42-4.52-1.3-8.91-2.75-13.23-1.24.41-1.79,1.26-2.24,2.14-5.06,9.94-6.79,20.66-6.51,31.61.17,6.64-5.73,11.72-11.98,9.4-12.1-4.48-23.9-2.59-35.56,1.75-.72.27-1.87.46-1.86,1.34.01,1.12,1.32,1.03,2.1,1.35,7.9,3.28,16.3,4.17,24.68,5.07,2.54.27,5.04.66,7.49,1.3,3.63.94,6.65,2.75,7.34,6.78.66,3.84-1.35,6.66-4.2,8.87-4.44,3.45-8.99,6.76-13.47,10.16-.48.36-1.2.77-.99,1.48.24.83,1.08.48,1.64.45,1.26-.06,2.53-.18,3.78-.4,7.54-1.34,14.58-4.37,21.87-6.56,4.33-1.31,8.62-2.95,13.24-2.86,4.9.09,8.9,3.13,10.23,7.57,1.17,3.92-.31,7.48-4.39,10.52-.84.63-1.7,1.25-2.94,2.17,2.7.34,5.01.74,7.33.91,8.05.58,16.1,1.15,24.16,1.59,4.52.25,9.01,1.07,13.58.66,2.41-.22,3.83-1.18,4.22-3.72.59-3.89-.07-7.65-1.25-11.25-2.53-7.76-5.31-15.44-8.08-23.13-.99-2.75-1.28-2.74-3.1-.47-1.87,2.33-4.55,3.12-7.3,2.15-2.69-.95-4.46-3.08-4.02-6.05.66-4.42.09-8.88.77-13.26.47-3.07.42-6.14.41-10.05ZM209.95,111.3c4.14-10.02,4.43-19.65-3.63-28.2-.12-.13-.22-.29-.33-.43-5.19-7.31-12.72-8.94-20.93-8.1-7.19.74-13.56,4.64-20.75,6.01,18.22,5.85,32.7,17.01,45.64,30.72Zm-10.84,8.28c-.46-1.88-1.59-2.71-2.51-3.67-14.22-14.74-31.91-22.97-51.57-27.55-5.53-1.29-11.21-.7-16.76-1.58-3.44-.55-6.82-1.61-10.66-1.64.96,2.19,2.62,2.46,4.33,2.69,4.22.56,8.42,1.25,12.48,2.63,1.99.67,3.65,1.79,4.67,3.55.85,1.47,2.05,2.23,3.51,2.81,2.61,1.04,5.2,2.14,7.83,3.15,8.58,3.3,15.76,8.51,21.44,15.74.93,1.18,1.95,1.7,3.47,1.63,5.46-.25,10.88.17,16.26,1.09,2.4.41,4.81.75,7.52,1.16Zm-29.25,59.29c0,7.63.22,14.7-.09,21.75-.15,3.46.81,5.85,3.62,7.74,1.42.95,2.63,2.21,3.92,3.34,4.09,3.62,8.54,6.68,13.46,9.11,1.9.94,2.55.38,2.95-1.42,1.62-7.23,4.1-14.24,5.38-21.56.5-2.85.19-3.44-2.65-3.63-3.86-.27-7.4-1.47-10.75-3.44-5.56-3.27-10.56-7.26-15.84-11.89Zm2.09-38.49c-.84.68-.92,1.39-.97,2.1-.37,5.05-.66,10.11-1.13,15.15-.33,3.5,0,6.45,4.02,7.67.9.27,1.71,1.04,2.39,1.75,6.93,7.29,15.8,12.07,23.6,18.23,1.1.87,1.56.7,1.61-.71.18-5.79.36-11.59.6-17.38.05-1.32-.47-2.06-1.71-2.34-8.48-1.89-13.95-8.05-19.67-13.85-3.23-3.27-5.93-6.98-8.74-10.62Zm-29.12,352.3c1.41.79,2.7,1.14,3.41,1.98,2.9,3.45,6.74,2.85,10.52,2.78,16.63-.33,33.09-2.37,49.54-4.68,8.62-1.21,17.3-2.15,26.02-2.09,3.2.03,6.33.74,9.37-1.11,1.38-.85,3.18-.45,4.8-.03.68.18,1.63.68,2.03-.04,1.18-2.16,2.74-4.07,4.12-6.18-4.62.42-9.37-1.89-13.38,1.8-.7.64-2.04.71-3.11.81-4.61.43-9.23.66-13.83,1.17-11.01,1.2-22.06,1.77-33.1,2.55-11.49.81-22.94,2.04-34.49,2.18-3.76.05-7.72-.31-11.88.88Zm26.52-220.9c1.21-2.17,2.66-2.15,3.91-1.6,3.71,1.66,7.72,2.66,11.02,5.21,1.5,1.16,3.19,2.07,4.77,3.12,1.34.89,2.35.82,2.86-.89.79-2.69,1.86-5.34,2.25-8.09.24-1.69.53-4.09-1.61-5.02-7.92-3.44-14.62-8.62-20.94-14.37-.49-.45-.87-1.41-1.7-1.02-.75.35-.54,1.27-.54,1.98,0,6.62,0,13.24,0,20.68ZM246.05,56.51c7.01-5.26,30.09-36.16,32.23-43.3-17.56,9.3-24.99,26.24-32.23,43.3Zm-43.59,97.9c.87-5.44.54-10.49.68-15.53.02-.79-.17-1.49-1.16-1.44-5.39.3-10.77.21-16.23-.78,4.61,6.77,11.05,11.61,16.71,17.74Zm-34.74,158.44c.41,3.8.77,6.9,1.06,10.01.17,1.82,1.39,2.71,2.88,3.21,1.56.53,1.93-.98,2.57-1.88.52-.73.9-1.56,1.32-2.36.55-1.04.38-1.84-.69-2.51-2.58-1.61-5.03-3.4-7.14-6.48Z"/><path class="cls-8" d="m163.5,478.77c-8.05.1-7.99.09-9.1-5.95-4.27-23.21-7.63-46.57-11.62-69.83-.28-1.62.17-2,1.72-2.13,14.21-1.19,28.44-1.98,42.7-2.32,16.25-.39,32.46-1.68,48.61-3.51,3.48-.39,3.54-.42,3.33,3.13-1.24,21.58-2.7,43.15-3.33,64.76-.08,2.9-.36,5.82.38,8.68.32,1.22-.16,1.59-1.36,1.65-14.69.8-29.29,2.71-43.99,3.37-9.89.45-19.7,1.92-27.36,2.14Z"/><path class="cls-8" d="m247.19,362.91c.14,5.71-.89,11.43-.07,17.13.18,1.28-.66,1.24-1.5,1.32-7.41.67-14.82,1.32-22.22,2.02-18.63,1.77-37.32,2.25-56,2.91-7.88.28-15.74,1.17-23.62,1.74-2.35.17-4.73.02-7.07.28-2.82.32-3.95-.7-4.35-3.57-1.5-10.69-3.22-21.34-4.94-32-.3-1.88.46-2.43,2.13-2.5,11.43-.47,22.78-1.92,34.18-2.79,17.73-1.35,35.45-2.85,53.19-4.15,9.05-.66,18.13-.96,27.21-.84,1.68.02,2.14.61,2.2,2.21.21,6.08.55,12.15.84,18.23Z"/><path class="cls-5" d="m373.33,187.5c-1.83.44-3.56-.35-5.34-.46-13.12-.79-24.75,2.81-34.75,11.45-.62.53-1.28,1.02-1.97,1.46-2.43,1.56-4.23,1.05-5.45-1.63-.67-1.48-1.15-3.06-1.74-4.58-2.14-5.49-6.27-7.66-11.92-6.11-6.99,1.91-11.29,6.97-14.66,13-2.35,4.2-4.59,8.45-6.91,12.67-.43.78-.85,2.04-1.71,1.93-1.12-.14-1.01-1.55-1.24-2.47-1.09-4.24-1.41-8.58-1.58-12.93-.11-2.9.06-5.82-.01-8.72-.18-7.18-6.11-10.71-12.5-7.36-5.03,2.63-9.13,6.55-13.33,10.28-4.14,3.67-8.06,7.61-12.6,10.8-.68.48-1.43,1.56-2.33.96-.64-.43-.31-1.54-.23-2.34.79-7.53,3.73-14.37,6.86-21.13,2.22-4.79,5.02-9.25,8.19-13.48.83-1.1,1.75-2.07,2.83-2.91,3.03-2.36,3.82-5.52,1.99-8.92-1.38-2.56-2.88-4.92-2.51-8.08.2-1.71-1.2-3.16-1.94-4.71-3.33-7.02-4.25-14.16-1.01-21.54,1.04-2.35,2.16-2.37,4.09-.95,4.24,3.1,6.79,7.51,9.51,11.8,3.62,5.7,7.47,11.18,12.99,15.25,1.47,1.08,3.01,2.04,4.7,2.72,6.55,2.61,11.77-.77,12.06-7.81.08-2-.01-4,.18-5.99.09-.89.08-2.22,1.38-2.35,1.06-.1,1.46.96,1.86,1.75,2.88,5.57,5.67,11.18,8.62,16.71,1.49,2.79,2.99,5.61,5.31,7.87,3.56,3.47,9.59,5,13.8.53.92-.98,1.92-.94,2.98-.52,14.04,5.63,26.37,13.74,36.31,25.26.09.11.05.33.07.56Z"/><path class="cls-9" d="m64,175.02c-.26,2.97-.5,5.95-.78,8.92-.39,4.2-.24,8.35,1.28,12.34,1.77,4.62,5.95,6.83,10.7,5.51,5.67-1.58,9.78-5.45,13.41-9.83,5.8-6.98,10.65-14.71,16.93-21.32,2.08-2.19,4.24-4.24,6.94-5.62,3.35-1.72,4.64-1.04,4.95,2.76.53,6.67-.23,13.23-2.15,19.65-.47,1.56-1.03,3.1-1.68,4.6-1.05,2.45-2.82,4.04-5.46,4.88-11.94,3.83-23.77,7.98-34.63,14.4-4.22,2.49-8.26,5.3-12.29,8.08-3.3,2.28-4.08,5.96-2.14,9.06,1.77,2.83,5.25,3.68,8.65,1.78,3-1.68,5.82-3.7,8.71-5.58,12.33-8.02,25.89-13.61,40.11-16.41,9.22-1.81,18.58,1.35,25.93,8.08,4.29,3.92,8.43,8.01,12.17,12.48.37.45,1.18.79.76,1.55-.3.54-.97.34-1.49.42-4,.57-7.94.2-11.87-.69-4.42-1-8.01,1.81-8.15,6.29-.12,3.67-2.58,5.67-6.24,5.08-2.59-.42-4.72-1.81-6.79-3.3-2.51-1.8-4.93-3.73-7.49-5.44-10.66-7.12-22.01-6.43-33.39-2.38-5.34,1.9-6.24,8.07-1.93,11.9,2.21,1.96,1.64,2.9-.2,4.52-5.35,4.68-11.32,8.24-18.08,10.33-9.38,2.9-17.98,7.29-25.98,12.93-5.07,3.57-10.44,6.61-16.38,8.49-1.01.32-2.23,1.4-3.22.05-.96-1.33-1.77-2.8-1.14-4.56.68-1.9,1.88-3.51,2.96-5.19,6.64-10.26,14.42-19.51,23.35-27.9,9.92-9.33,14.52-21.55,17.05-34.62,1.41-7.3,2.56-14.65,3.85-21.97.58-3.29,1.33-6.53,3.74-9.27Z"/><path class="cls-9" d="m361.29,273.48c0,3.91.06,6.98-.41,10.05-.68,4.38-.11,8.84-.77,13.26-.44,2.97,1.33,5.1,4.02,6.05,2.75.97,5.43.18,7.3-2.15,1.82-2.27,2.11-2.29,3.1.47,2.77,7.68,5.55,15.36,8.08,23.13,1.17,3.6,1.84,7.37,1.25,11.25-.39,2.53-1.81,3.5-4.22,3.72-4.57.41-9.06-.41-13.58-.66-8.06-.44-16.11-1.01-24.16-1.59-2.33-.17-4.64-.57-7.33-.91,1.24-.92,2.09-1.54,2.94-2.17,4.07-3.04,5.56-6.6,4.39-10.52-1.33-4.44-5.33-7.48-10.23-7.57-4.62-.09-8.91,1.56-13.24,2.86-7.29,2.2-14.33,5.22-21.87,6.56-1.24.22-2.51.34-3.78.4-.56.03-1.41.37-1.64-.45-.2-.71.51-1.12.99-1.48,4.48-3.39,9.03-6.71,13.47-10.16,2.85-2.22,4.86-5.04,4.2-8.87-.69-4.03-3.71-5.84-7.34-6.78-2.45-.64-4.96-1.03-7.49-1.3-8.39-.9-16.79-1.79-24.68-5.07-.77-.32-2.08-.22-2.1-1.35-.01-.89,1.14-1.08,1.86-1.34,11.66-4.34,23.46-6.23,35.56-1.75,6.25,2.31,12.15-2.77,11.98-9.4-.28-10.96,1.45-21.68,6.51-31.61.45-.88.99-1.73,2.24-2.14,1.46,4.32,2.33,8.71,2.75,13.23.63,6.76.51,13.61,2.11,20.27.49,2.03,1.13,4.02,2.08,5.89,4.18,8.27,14.47,9.29,20.23,2,1.75-2.22,3.13-4.67,4.42-7.18.77-1.5,1.64-2.94,3.36-4.69Z"/><path class="cls-9" d="m209.95,111.3c-12.94-13.7-27.42-24.87-45.64-30.72,7.19-1.37,13.57-5.27,20.75-6.01,8.21-.84,15.74.79,20.93,8.1.11.15.2.3.33.43,8.07,8.55,7.77,18.18,3.63,28.2Z"/><path class="cls-11" d="m199.11,119.58c-2.71-.42-5.12-.76-7.52-1.16-5.38-.92-10.8-1.34-16.26-1.09-1.52.07-2.54-.45-3.47-1.63-5.68-7.23-12.87-12.43-21.44-15.74-2.62-1.01-5.21-2.1-7.83-3.15-1.46-.58-2.66-1.34-3.51-2.81-1.02-1.76-2.68-2.87-4.67-3.55-4.06-1.38-8.26-2.06-12.48-2.63-1.72-.23-3.37-.5-4.33-2.69,3.85.03,7.22,1.09,10.66,1.64,5.55.88,11.23.29,16.76,1.58,19.66,4.59,37.35,12.82,51.57,27.55.92.96,2.06,1.79,2.51,3.67Z"/><path class="cls-4" d="m169.86,178.87c5.28,4.63,10.28,8.62,15.84,11.89,3.35,1.97,6.89,3.17,10.75,3.44,2.83.2,3.14.78,2.65,3.63-1.27,7.32-3.76,14.34-5.38,21.56-.4,1.8-1.05,2.36-2.95,1.42-4.92-2.43-9.37-5.49-13.46-9.11-1.29-1.14-2.5-2.39-3.92-3.34-2.81-1.89-3.78-4.28-3.62-7.74.31-7.05.09-14.12.09-21.75Z"/><path class="cls-2" d="m171.95,140.37c2.81,3.64,5.52,7.35,8.74,10.62,5.73,5.8,11.2,11.95,19.67,13.85,1.24.28,1.77,1.02,1.71,2.34-.24,5.79-.42,11.59-.6,17.38-.04,1.41-.51,1.58-1.61.71-7.8-6.16-16.67-10.94-23.6-18.23-.68-.71-1.5-1.48-2.39-1.75-4.02-1.22-4.35-4.17-4.02-7.67.47-5.04.76-10.1,1.13-15.15.05-.71.13-1.43.97-2.1Z"/><path class="cls-1" d="m142.83,492.67c4.16-1.19,8.12-.83,11.88-.88,11.55-.14,23-1.37,34.49-2.18,11.04-.77,22.09-1.34,33.1-2.55,4.6-.5,9.22-.74,13.83-1.17,1.07-.1,2.41-.17,3.11-.81,4.01-3.69,8.76-1.38,13.38-1.8-1.38,2.11-2.94,4.02-4.12,6.18-.39.72-1.35.22-2.03.04-1.62-.42-3.42-.81-4.8.03-3.03,1.86-6.17,1.14-9.37,1.11-8.72-.07-17.41.87-26.02,2.09-16.45,2.31-32.91,4.36-49.54,4.68-3.78.07-7.61.67-10.52-2.78-.71-.84-1.99-1.19-3.41-1.98Z"/><path class="cls-12" d="m169.35,271.77c0-7.44,0-14.06,0-20.68,0-.71-.21-1.63.54-1.98.83-.39,1.21.57,1.7,1.02,6.32,5.76,13.01,10.93,20.94,14.37,2.14.93,1.85,3.33,1.61,5.02-.39,2.75-1.46,5.4-2.25,8.09-.5,1.72-1.51,1.79-2.86.89-1.58-1.05-3.27-1.96-4.77-3.12-3.3-2.55-7.31-3.55-11.02-5.21-1.25-.56-2.7-.57-3.91,1.6Z"/><path class="cls-6" d="m170.47,278.13c2.89,5.94,8.04,9.41,13.64,12.29,2.04,1.05,2.56,2.21,1.77,4.28-1.45,3.8-2.79,7.64-4.18,11.46-.45,1.25-1.02,1.74-2.39.85-2.9-1.88-6.09-3.19-9.51-3.78-1.85-.32-1.7-1.64-1.6-2.89.59-7.38,1.13-14.77,1.19-22.18.36-.01.72-.03,1.08-.04Z"/><path class="cls-3" d="m246.05,56.51c7.24-17.06,14.67-34.01,32.23-43.3-2.14,7.14-25.22,38.04-32.23,43.3Z"/><path class="cls-3" d="m202.45,154.41c-5.66-6.13-12.1-10.97-16.71-17.74,5.46.98,10.83,1.07,16.23.78.99-.05,1.19.64,1.16,1.44-.14,5.03.19,10.09-.68,15.53Z"/><path class="cls-7" d="m185.65,244.91c-2.15-.61-3.17-2.58-4.72-3.92-2.05-1.77-3.63-4.04-5.93-5.55-.7-.45-.81-1.16-.76-1.91.21-3.06-1.21-5.38-3.3-7.41-.8-.77-1.53-1.58-.64-2.99,3.71,2.6,6.34,6.15,8.89,9.7,2.67,3.71,5.48,7.42,6.48,12.06l-.02.02Z"/><path class="cls-7" d="m167.71,312.85c2.11,3.08,4.56,4.87,7.14,6.48,1.07.67,1.24,1.47.69,2.51-.42.8-.8,1.63-1.32,2.36-.64.89-1.01,2.41-2.57,1.88-1.49-.5-2.71-1.39-2.88-3.21-.29-3.11-.65-6.21-1.06-10.01Z"/><path class="cls-7" d="m170.47,278.13c-.36.01-.72.03-1.08.04,0-1.25,0-2.51,0-3.76l.23-.04c.28,1.26.57,2.51.85,3.77Z"/><path class="cls-7" d="m185.67,244.89c.08.08.15.16.23.25-.08-.07-.17-.15-.25-.22,0,0,.02-.02.02-.02Z"/><path class="cls-10" d="m319.58,331.95c.2-.26.42-.33.63-.02,0,.01-.23.19-.35.28-.09-.09-.18-.18-.28-.27Z"/></g></svg>