<svg width="124" height="26" viewBox="0 0 124 26" fill="none" xmlns="http://www.w3.org/2000/svg">
<path d="M109.273 11.1191L118.607 1.53906H123.441L112.613 12.4023L123.512 25.5332H118.66L110.029 14.8633L109.273 15.6016V25.5332H105.652V1.53906H109.273V11.1191Z" fill="#20C39C"/>
<path d="M96.1426 19.6973H85.877L83.2051 25.5332H79.3027L91.1855 0.00976562L102.629 25.5332H98.6738L96.1426 19.6973ZM94.6836 16.2871L91.1152 8.13086L87.3887 16.2871H94.6836Z" fill="#20C39C"/>
<path d="M70.3203 15.7949V25.5332H66.6992V1.53906H70.7949C73.0098 1.53906 74.5918 1.69727 75.541 2.01367C77.2754 2.58789 78.5527 3.69531 79.373 5.33594C79.9004 6.37891 80.1641 7.48633 80.1641 8.6582C80.1641 10.7207 79.4668 12.4199 78.0723 13.7559C76.6543 15.1152 74.6328 15.7949 72.0078 15.7949H70.3203ZM70.3203 12.4375H71.6738C73.4082 12.4375 74.6621 12.1152 75.4355 11.4707C76.2559 10.7793 76.666 9.82422 76.666 8.60547C76.666 7.33984 76.2148 6.38477 75.3125 5.74023C74.5156 5.16602 73.25 4.87891 71.5156 4.87891H70.3203V12.4375Z" fill="#20C39C"/>
<path d="M49.8594 1.08203C51.5234 1.08203 53.1406 1.43945 54.7109 2.1543C56.2812 2.85742 57.6582 3.85938 58.8418 5.16016C61.0449 7.5625 62.1465 10.3633 62.1465 13.5625C62.1465 15.3086 61.7891 16.9844 61.0742 18.5898C60.3594 20.1836 59.3457 21.5664 58.0332 22.7383C55.6309 24.9062 52.8125 25.9902 49.5781 25.9902C47.7969 25.9902 46.0684 25.6152 44.3926 24.8652C42.7168 24.1152 41.2812 23.0723 40.0859 21.7363C38.0703 19.498 37.0625 16.7676 37.0625 13.5449C37.0625 10.0527 38.3398 7.08203 40.8945 4.63281C43.3555 2.26562 46.3438 1.08203 49.8594 1.08203ZM49.4727 4.49219C46.7656 4.49219 44.5449 5.54688 42.8105 7.65625C41.416 9.35547 40.7188 11.3477 40.7188 13.6328C40.7188 16.1875 41.6094 18.3203 43.3906 20.0312C45.1602 21.7305 47.2344 22.5801 49.6133 22.5801C50.8906 22.5801 52.1211 22.3047 53.3047 21.7539C54.5 21.2031 55.5195 20.4355 56.3633 19.4512C57.7812 17.8105 58.4902 15.8184 58.4902 13.4746C58.4902 11.002 57.6406 8.875 55.9414 7.09375C54.2656 5.35938 52.1094 4.49219 49.4727 4.49219Z" fill="#20C39C"/>
<path d="M33.5117 4.94922H23.8789V10.6973H33.2129V14.1074H23.8789V22.123H33.5117V25.5332H20.2578V1.53906H33.5117V4.94922Z" fill="#20C39C"/>
<path d="M15.2656 5.10742L12.3301 6.84766C11.8965 6.13281 11.5156 5.62891 11.1875 5.33594C10.5781 4.77344 9.76953 4.49219 8.76172 4.49219C7.70703 4.49219 6.85156 4.79102 6.19531 5.38867C5.5625 5.96289 5.24609 6.66016 5.24609 7.48047C5.24609 8.27734 5.62695 8.93945 6.38867 9.4668C6.86914 9.80664 7.36133 10.082 7.86523 10.293L10.2559 11.2598C12.2598 12.0801 13.6895 13.0527 14.5449 14.1777C15.4355 15.3496 15.8809 16.7266 15.8809 18.3086C15.8809 20.6289 15.0664 22.5391 13.4375 24.0391C12.0312 25.3398 10.2734 25.9902 8.16406 25.9902C5.45703 25.9902 3.36523 24.9238 1.88867 22.791C1.19727 21.7949 0.734375 20.5 0.5 18.9062L4.15625 18.0977C4.30859 19.3164 4.53711 20.1953 4.8418 20.7344C5.1582 21.2969 5.62695 21.748 6.24805 22.0879C6.88086 22.416 7.56641 22.5801 8.30469 22.5801C9.52344 22.5801 10.5078 22.1465 11.2578 21.2793C11.9141 20.5293 12.2422 19.627 12.2422 18.5723C12.2422 17.2246 11.6855 16.1758 10.5723 15.4258C10.0332 15.0742 9.44727 14.7637 8.81445 14.4941L6.49414 13.5098C3.21289 12.127 1.57227 10.0996 1.57227 7.42773C1.57227 5.2832 2.48633 3.60742 4.31445 2.40039C5.65039 1.52148 7.13867 1.08203 8.7793 1.08203C10.5957 1.08203 12.1426 1.63281 13.4199 2.73438C14.0527 3.28516 14.668 4.07617 15.2656 5.10742Z" fill="#20C39C"/>
</svg>
